%TF.GenerationSoftware,KiCad,Pcbnew,7.0.6*%
%TF.CreationDate,2023-07-10T17:04:03+08:00*%
%TF.ProjectId,rbc_circuits,7262635f-6369-4726-9375-6974732e6b69,1.0*%
%TF.SameCoordinates,Original*%
%TF.FileFunction,Paste,Top*%
%TF.FilePolarity,Positive*%
%FSLAX46Y46*%
G04 Gerber Fmt 4.6, Leading zero omitted, Abs format (unit mm)*
G04 Created by KiCad (PCBNEW 7.0.6) date 2023-07-10 17:04:03*
%MOMM*%
%LPD*%
G01*
G04 APERTURE LIST*
G04 Aperture macros list*
%AMRoundRect*
0 Rectangle with rounded corners*
0 $1 Rounding radius*
0 $2 $3 $4 $5 $6 $7 $8 $9 X,Y pos of 4 corners*
0 Add a 4 corners polygon primitive as box body*
4,1,4,$2,$3,$4,$5,$6,$7,$8,$9,$2,$3,0*
0 Add four circle primitives for the rounded corners*
1,1,$1+$1,$2,$3*
1,1,$1+$1,$4,$5*
1,1,$1+$1,$6,$7*
1,1,$1+$1,$8,$9*
0 Add four rect primitives between the rounded corners*
20,1,$1+$1,$2,$3,$4,$5,0*
20,1,$1+$1,$4,$5,$6,$7,0*
20,1,$1+$1,$6,$7,$8,$9,0*
20,1,$1+$1,$8,$9,$2,$3,0*%
G04 Aperture macros list end*
%ADD10RoundRect,0.250000X-0.450000X0.350000X-0.450000X-0.350000X0.450000X-0.350000X0.450000X0.350000X0*%
%ADD11R,2.650000X1.850000*%
%ADD12R,1.310000X0.450000*%
%ADD13R,1.310000X1.750000*%
%ADD14RoundRect,0.155000X-0.212500X-0.155000X0.212500X-0.155000X0.212500X0.155000X-0.212500X0.155000X0*%
%ADD15RoundRect,0.250000X0.412500X0.650000X-0.412500X0.650000X-0.412500X-0.650000X0.412500X-0.650000X0*%
%ADD16RoundRect,0.155000X0.212500X0.155000X-0.212500X0.155000X-0.212500X-0.155000X0.212500X-0.155000X0*%
%ADD17RoundRect,0.250000X0.450000X-0.350000X0.450000X0.350000X-0.450000X0.350000X-0.450000X-0.350000X0*%
%ADD18RoundRect,0.250000X0.400000X0.625000X-0.400000X0.625000X-0.400000X-0.625000X0.400000X-0.625000X0*%
%ADD19RoundRect,0.250000X-0.400000X-0.625000X0.400000X-0.625000X0.400000X0.625000X-0.400000X0.625000X0*%
%ADD20RoundRect,0.150000X0.150000X-0.512500X0.150000X0.512500X-0.150000X0.512500X-0.150000X-0.512500X0*%
%ADD21RoundRect,0.250000X-0.475000X0.337500X-0.475000X-0.337500X0.475000X-0.337500X0.475000X0.337500X0*%
%ADD22RoundRect,0.237500X0.300000X0.237500X-0.300000X0.237500X-0.300000X-0.237500X0.300000X-0.237500X0*%
%ADD23RoundRect,0.250000X0.650000X-0.412500X0.650000X0.412500X-0.650000X0.412500X-0.650000X-0.412500X0*%
%ADD24R,0.800000X2.700000*%
%ADD25RoundRect,0.237500X-0.300000X-0.237500X0.300000X-0.237500X0.300000X0.237500X-0.300000X0.237500X0*%
%ADD26RoundRect,0.250000X0.625000X-0.400000X0.625000X0.400000X-0.625000X0.400000X-0.625000X-0.400000X0*%
%ADD27RoundRect,0.250000X-0.625000X0.400000X-0.625000X-0.400000X0.625000X-0.400000X0.625000X0.400000X0*%
G04 APERTURE END LIST*
D10*
%TO.C,R1*%
X75234000Y-133227000D03*
X75234000Y-135227000D03*
%TD*%
D11*
%TO.C,IC7*%
X149461000Y-63199000D03*
X149461000Y-65349000D03*
D12*
X146611000Y-62324000D03*
X146611000Y-62974000D03*
X146611000Y-63624000D03*
X146616000Y-64274000D03*
X146611000Y-64924000D03*
X146611000Y-65574000D03*
X146611000Y-66224000D03*
X152311000Y-66224000D03*
D13*
X152311000Y-65574000D03*
D12*
X152311000Y-64924000D03*
X152311000Y-64274000D03*
X152311000Y-63624000D03*
D13*
X152311000Y-62974000D03*
D12*
X152311000Y-62324000D03*
%TD*%
D14*
%TO.C,C11*%
X136850500Y-80120000D03*
X137985500Y-80120000D03*
%TD*%
D15*
%TO.C,C1*%
X77304500Y-151229000D03*
X74179500Y-151229000D03*
%TD*%
D11*
%TO.C,IC8*%
X149461000Y-109049000D03*
X149461000Y-111199000D03*
D12*
X146611000Y-108174000D03*
X146611000Y-108824000D03*
X146611000Y-109474000D03*
X146616000Y-110124000D03*
X146611000Y-110774000D03*
X146611000Y-111424000D03*
X146611000Y-112074000D03*
X152311000Y-112074000D03*
D13*
X152311000Y-111424000D03*
D12*
X152311000Y-110774000D03*
X152311000Y-110124000D03*
X152311000Y-109474000D03*
D13*
X152311000Y-108824000D03*
D12*
X152311000Y-108174000D03*
%TD*%
D16*
%TO.C,C7*%
X80268000Y-80120000D03*
X79133000Y-80120000D03*
%TD*%
D17*
%TO.C,R4*%
X79506000Y-139291000D03*
X79506000Y-137291000D03*
%TD*%
D18*
%TO.C,R29*%
X140314000Y-71484000D03*
X137214000Y-71484000D03*
%TD*%
D16*
%TO.C,C8*%
X80268000Y-82152000D03*
X79133000Y-82152000D03*
%TD*%
D19*
%TO.C,R32*%
X137214000Y-54246000D03*
X140314000Y-54246000D03*
%TD*%
D18*
%TO.C,R30*%
X140314000Y-91042000D03*
X137214000Y-91042000D03*
%TD*%
D20*
%TO.C,U1*%
X74438000Y-144355500D03*
X75388000Y-144355500D03*
X76338000Y-144355500D03*
X76338000Y-142080500D03*
X75388000Y-142080500D03*
X74438000Y-142080500D03*
%TD*%
D19*
%TO.C,R37*%
X137214000Y-68182000D03*
X140314000Y-68182000D03*
%TD*%
D21*
%TO.C,C6*%
X85348000Y-137216000D03*
X85348000Y-139291000D03*
%TD*%
D19*
%TO.C,R11*%
X76914000Y-71484000D03*
X80014000Y-71484000D03*
%TD*%
%TO.C,R21*%
X76888000Y-57548000D03*
X79988000Y-57548000D03*
%TD*%
%TO.C,R23*%
X76914000Y-98700000D03*
X80014000Y-98700000D03*
%TD*%
D18*
%TO.C,R16*%
X80040000Y-106828000D03*
X76940000Y-106828000D03*
%TD*%
D10*
%TO.C,R5*%
X125480000Y-142620000D03*
X125480000Y-144620000D03*
%TD*%
D11*
%TO.C,IC2*%
X67715000Y-111199000D03*
X67715000Y-109049000D03*
D12*
X70565000Y-112074000D03*
X70565000Y-111424000D03*
X70565000Y-110774000D03*
X70560000Y-110124000D03*
X70565000Y-109474000D03*
X70565000Y-108824000D03*
X70565000Y-108174000D03*
X64865000Y-108174000D03*
D13*
X64865000Y-108824000D03*
D12*
X64865000Y-109474000D03*
X64865000Y-110124000D03*
X64865000Y-110774000D03*
D13*
X64865000Y-111424000D03*
D12*
X64865000Y-112074000D03*
%TD*%
D19*
%TO.C,R31*%
X137214000Y-57514000D03*
X140314000Y-57514000D03*
%TD*%
D14*
%TO.C,C12*%
X136850500Y-82152000D03*
X137985500Y-82152000D03*
%TD*%
D19*
%TO.C,R7*%
X76914000Y-77580000D03*
X80014000Y-77580000D03*
%TD*%
D11*
%TO.C,IC6*%
X149461000Y-98641000D03*
X149461000Y-100791000D03*
D12*
X146611000Y-97766000D03*
X146611000Y-98416000D03*
X146611000Y-99066000D03*
X146616000Y-99716000D03*
X146611000Y-100366000D03*
X146611000Y-101016000D03*
X146611000Y-101666000D03*
X152311000Y-101666000D03*
D13*
X152311000Y-101016000D03*
D12*
X152311000Y-100366000D03*
X152311000Y-99716000D03*
X152311000Y-99066000D03*
D13*
X152311000Y-98416000D03*
D12*
X152311000Y-97766000D03*
%TD*%
D18*
%TO.C,R18*%
X80040000Y-112924000D03*
X76940000Y-112924000D03*
%TD*%
D19*
%TO.C,R27*%
X137214000Y-74532000D03*
X140314000Y-74532000D03*
%TD*%
D22*
%TO.C,C9*%
X66652500Y-59070000D03*
X64927500Y-59070000D03*
%TD*%
D18*
%TO.C,R25*%
X140314000Y-77580000D03*
X137214000Y-77580000D03*
%TD*%
%TO.C,R38*%
X140314000Y-64880000D03*
X137214000Y-64880000D03*
%TD*%
D22*
%TO.C,C13*%
X152150000Y-59070000D03*
X150425000Y-59070000D03*
%TD*%
D11*
%TO.C,IC4*%
X67715000Y-100791000D03*
X67715000Y-98641000D03*
D12*
X70565000Y-101666000D03*
X70565000Y-101016000D03*
X70565000Y-100366000D03*
X70560000Y-99716000D03*
X70565000Y-99066000D03*
X70565000Y-98416000D03*
X70565000Y-97766000D03*
X64865000Y-97766000D03*
D13*
X64865000Y-98416000D03*
D12*
X64865000Y-99066000D03*
X64865000Y-99716000D03*
X64865000Y-100366000D03*
D13*
X64865000Y-101016000D03*
D12*
X64865000Y-101666000D03*
%TD*%
D11*
%TO.C,IC5*%
X149461000Y-52791000D03*
X149461000Y-54941000D03*
D12*
X146611000Y-51916000D03*
X146611000Y-52566000D03*
X146611000Y-53216000D03*
X146616000Y-53866000D03*
X146611000Y-54516000D03*
X146611000Y-55166000D03*
X146611000Y-55816000D03*
X152311000Y-55816000D03*
D13*
X152311000Y-55166000D03*
D12*
X152311000Y-54516000D03*
X152311000Y-53866000D03*
X152311000Y-53216000D03*
D13*
X152311000Y-52566000D03*
D12*
X152311000Y-51916000D03*
%TD*%
D19*
%TO.C,R20*%
X76888000Y-54246000D03*
X79988000Y-54246000D03*
%TD*%
%TO.C,R24*%
X76914000Y-101748000D03*
X80014000Y-101748000D03*
%TD*%
D18*
%TO.C,R19*%
X79962000Y-50944000D03*
X76862000Y-50944000D03*
%TD*%
D19*
%TO.C,R34*%
X137214000Y-101748000D03*
X140314000Y-101748000D03*
%TD*%
D18*
%TO.C,R42*%
X140314000Y-106828000D03*
X137214000Y-106828000D03*
%TD*%
D19*
%TO.C,R40*%
X137214000Y-112924000D03*
X140314000Y-112924000D03*
%TD*%
D18*
%TO.C,R17*%
X80040000Y-109876000D03*
X76940000Y-109876000D03*
%TD*%
%TO.C,R41*%
X140314000Y-109876000D03*
X137214000Y-109876000D03*
%TD*%
D19*
%TO.C,R33*%
X137214000Y-50910000D03*
X140314000Y-50910000D03*
%TD*%
D18*
%TO.C,R9*%
X80014000Y-74532000D03*
X76914000Y-74532000D03*
%TD*%
D19*
%TO.C,R28*%
X137214000Y-87994000D03*
X140314000Y-87994000D03*
%TD*%
%TO.C,R12*%
X76940000Y-91042000D03*
X80040000Y-91042000D03*
%TD*%
%TO.C,R8*%
X76940000Y-84946000D03*
X80040000Y-84946000D03*
%TD*%
D23*
%TO.C,C4*%
X69900000Y-150544000D03*
X69900000Y-147419000D03*
%TD*%
D22*
%TO.C,C2*%
X76288500Y-148435000D03*
X74563500Y-148435000D03*
%TD*%
D18*
%TO.C,R15*%
X80014000Y-68182000D03*
X76914000Y-68182000D03*
%TD*%
%TO.C,R14*%
X79988000Y-64914000D03*
X76888000Y-64914000D03*
%TD*%
%TO.C,R39*%
X140314000Y-61612000D03*
X137214000Y-61612000D03*
%TD*%
%TO.C,R13*%
X79988000Y-61612000D03*
X76888000Y-61612000D03*
%TD*%
D22*
%TO.C,C14*%
X152250500Y-104968000D03*
X150525500Y-104968000D03*
%TD*%
D23*
%TO.C,C5*%
X66344000Y-150505500D03*
X66344000Y-147380500D03*
%TD*%
D24*
%TO.C,L1*%
X69984000Y-154277000D03*
X67784000Y-154277000D03*
%TD*%
D18*
%TO.C,R22*%
X80040000Y-95652000D03*
X76940000Y-95652000D03*
%TD*%
D25*
%TO.C,C10*%
X64927500Y-104968000D03*
X66652500Y-104968000D03*
%TD*%
D26*
%TO.C,R6*%
X128782000Y-144662000D03*
X128782000Y-141562000D03*
%TD*%
D19*
%TO.C,R36*%
X137214000Y-95652000D03*
X140314000Y-95652000D03*
%TD*%
D11*
%TO.C,IC3*%
X67715000Y-54941000D03*
X67715000Y-52791000D03*
D12*
X70565000Y-55816000D03*
X70565000Y-55166000D03*
X70565000Y-54516000D03*
X70560000Y-53866000D03*
X70565000Y-53216000D03*
X70565000Y-52566000D03*
X70565000Y-51916000D03*
X64865000Y-51916000D03*
D13*
X64865000Y-52566000D03*
D12*
X64865000Y-53216000D03*
X64865000Y-53866000D03*
X64865000Y-54516000D03*
D13*
X64865000Y-55166000D03*
D12*
X64865000Y-55816000D03*
%TD*%
D18*
%TO.C,R26*%
X140314000Y-84946000D03*
X137214000Y-84946000D03*
%TD*%
D27*
%TO.C,R3*%
X82300000Y-136191000D03*
X82300000Y-139291000D03*
%TD*%
D19*
%TO.C,R35*%
X137214000Y-98700000D03*
X140314000Y-98700000D03*
%TD*%
D18*
%TO.C,R10*%
X80040000Y-87994000D03*
X76940000Y-87994000D03*
%TD*%
D11*
%TO.C,IC1*%
X67715000Y-65349000D03*
X67715000Y-63199000D03*
D12*
X70565000Y-66224000D03*
X70565000Y-65574000D03*
X70565000Y-64924000D03*
X70560000Y-64274000D03*
X70565000Y-63624000D03*
X70565000Y-62974000D03*
X70565000Y-62324000D03*
X64865000Y-62324000D03*
D13*
X64865000Y-62974000D03*
D12*
X64865000Y-63624000D03*
X64865000Y-64274000D03*
X64865000Y-64924000D03*
D13*
X64865000Y-65574000D03*
D12*
X64865000Y-66224000D03*
%TD*%
D22*
%TO.C,C3*%
X70208500Y-139302000D03*
X68483500Y-139302000D03*
%TD*%
D17*
%TO.C,R2*%
X63296000Y-149927000D03*
X63296000Y-147927000D03*
%TD*%
M02*
