M48
; DRILL file {KiCad 7.0.6} date Tue Jul 11 15:54:43 2023
; FORMAT={-:-/ absolute / inch / decimal}
; #@! TF.CreationDate,2023-07-11T15:54:43+08:00
; #@! TF.GenerationSoftware,Kicad,Pcbnew,7.0.6
; #@! TF.FileFunction,Plated,1,4,PTH
FMAT,2
INCH
; #@! TA.AperFunction,Plated,PTH,ViaDrill
T1C0.0157
; #@! TA.AperFunction,Plated,PTH,ViaDrill
T2C0.0236
; #@! TA.AperFunction,Plated,PTH,ComponentDrill
T3C0.0335
; #@! TA.AperFunction,Plated,PTH,ComponentDrill
T4C0.0394
; #@! TA.AperFunction,Plated,PTH,ComponentDrill
T5C0.0441
; #@! TA.AperFunction,Plated,PTH,ComponentDrill
T6C0.0512
%
G90
G05
T1
X2.4202Y-2.6143
X2.5502Y-2.7043
X2.6402Y-2.0743
X2.6402Y-2.1531
X2.645Y-2.4856
X2.645Y-2.5643
X2.645Y-3.8856
X2.645Y-3.9643
X2.645Y-4.2956
X2.645Y-4.3743
X2.6953Y-2.0743
X2.6953Y-2.1531
X2.7002Y-2.4856
X2.7002Y-2.5643
X2.7002Y-3.8856
X2.7002Y-3.9643
X2.7002Y-4.2956
X2.7002Y-4.3743
X2.8102Y-2.8643
X2.8202Y-2.8043
X3.1402Y-4.5643
X3.5202Y-3.3543
X3.9702Y-3.1643
X4.2502Y-4.5043
X4.3102Y-3.1043
X4.3902Y-3.5343
X4.8302Y-5.0543
X5.1502Y-3.2943
X5.3402Y-2.5643
X5.3402Y-3.2843
X5.3802Y-4.5343
X5.7145Y-4.1043
X5.74Y-2.28
X5.7402Y-2.8743
X5.855Y-2.0756
X5.855Y-2.1543
X5.855Y-2.4956
X5.855Y-2.5743
X5.855Y-3.8856
X5.855Y-3.9643
X5.855Y-4.2956
X5.855Y-4.3743
X5.9102Y-2.0756
X5.9102Y-2.1543
X5.9102Y-2.4956
X5.9102Y-2.5743
X5.9102Y-3.8856
X5.9102Y-3.9643
X5.9102Y-4.2956
X5.9102Y-4.3743
X6.0402Y-2.8243
X6.1002Y-2.0743
X6.1402Y-3.8843
T2
X2.0602Y-5.7043
X2.0602Y-5.8043
X2.1402Y-2.6943
X2.1402Y-2.7943
X2.1402Y-2.8943
X2.1402Y-4.4743
X2.1402Y-4.5743
X2.1402Y-4.6743
X2.1602Y-5.7043
X2.1602Y-5.8043
X2.2402Y-2.6943
X2.2402Y-2.7943
X2.2402Y-2.8943
X2.2402Y-4.4743
X2.2402Y-4.5743
X2.2402Y-4.6743
X2.2602Y-5.7043
X2.2602Y-5.8043
X2.3402Y-2.6943
X2.3402Y-2.7943
X2.3402Y-2.8943
X2.3402Y-4.4743
X2.3402Y-4.5743
X2.3402Y-4.6743
X2.3502Y-6.0143
X2.3502Y-6.1143
X2.3502Y-6.2143
X2.3602Y-5.7043
X2.3602Y-5.8043
X2.4402Y-2.6943
X2.4402Y-2.7943
X2.4402Y-2.8943
X2.4402Y-4.4743
X2.4402Y-4.5743
X2.4402Y-4.6743
X2.4502Y-6.0143
X2.4502Y-6.1143
X2.4502Y-6.2143
X2.5502Y-6.0143
X2.5502Y-6.1143
X2.5502Y-6.2143
X2.5902Y-5.7043
X2.6902Y-5.5943
X2.7702Y-5.7043
X2.8202Y-3.1443
X2.8202Y-3.2443
X2.8202Y-6.1143
X2.8202Y-6.2143
X2.9202Y-3.1443
X2.9202Y-3.2443
X2.9202Y-6.1143
X2.9202Y-6.2143
X2.9602Y-5.7543
X3.0502Y-5.2943
X3.1302Y-5.2943
X3.2302Y-5.2243
X3.2352Y-3.9293
X3.2702Y-2.1543
X5.3302Y-2.0743
X5.3402Y-2.4943
X5.3802Y-4.1243
X5.4002Y-3.6643
X5.5902Y-3.1443
X5.5902Y-3.2443
X5.6902Y-3.1443
X5.6902Y-3.2443
X6.1402Y-1.7643
X6.1402Y-1.8643
X6.1402Y-1.9643
X6.1402Y-3.5743
X6.1402Y-3.6743
X6.1402Y-3.7743
X6.2402Y-1.7643
X6.2402Y-1.8643
X6.2402Y-1.9643
X6.2402Y-3.5743
X6.2402Y-3.6743
X6.2402Y-3.7743
X6.3402Y-1.7643
X6.3402Y-1.8643
X6.3402Y-1.9643
X6.3402Y-3.5743
X6.3402Y-3.6743
X6.3402Y-3.7743
X6.4402Y-1.7643
X6.4402Y-1.8643
X6.4402Y-1.9643
X6.4402Y-3.5743
X6.4402Y-3.6743
X6.4402Y-3.7743
T3
X3.3251Y-2.2508
X3.3251Y-2.3508
X3.3251Y-2.4508
X3.3251Y-2.5508
X3.3251Y-2.6508
X3.3251Y-2.7508
X3.3251Y-2.8508
X3.3251Y-2.9508
X3.3251Y-3.1508
X3.3251Y-3.2508
X3.3251Y-3.3508
X3.3251Y-3.4508
X3.3251Y-3.5508
X3.3251Y-3.6508
X3.3251Y-3.7508
X3.3251Y-3.8508
X3.3251Y-4.0508
X3.3251Y-4.1508
X3.3251Y-4.2508
X3.3251Y-4.3508
X3.3251Y-4.4508
X3.3251Y-4.5508
X3.3251Y-4.6408
X3.3251Y-4.7408
X3.5251Y-4.8508
X3.5251Y-4.9508
X3.6251Y-4.8508
X3.6251Y-4.9508
X3.7251Y-4.8508
X3.7251Y-4.9508
X3.8251Y-4.8508
X3.8251Y-4.9508
X3.9251Y-4.8508
X3.9251Y-4.9508
X4.0251Y-4.8508
X4.0251Y-4.9508
X4.1251Y-4.8508
X4.1251Y-4.9508
X4.2251Y-4.8508
X4.2251Y-4.9508
X4.3251Y-4.8508
X4.3251Y-4.9508
X4.4251Y-4.8508
X4.4251Y-4.9508
X4.5251Y-4.8508
X4.5251Y-4.9508
X4.6251Y-4.8508
X4.6251Y-4.9508
X4.7251Y-4.8508
X4.7251Y-4.9508
X4.8251Y-4.8508
X4.8251Y-4.9508
X4.9251Y-4.8508
X4.9251Y-4.9508
X5.0251Y-4.8508
X5.0251Y-4.9508
X5.1251Y-4.8508
X5.1251Y-4.9508
X5.2251Y-1.8908
X5.2251Y-1.9908
X5.2251Y-2.0908
X5.2251Y-2.1908
X5.2251Y-2.2908
X5.2251Y-2.3908
X5.2251Y-2.4908
X5.2251Y-2.5908
X5.2251Y-2.6908
X5.2251Y-2.7908
X5.2251Y-2.9508
X5.2251Y-3.0508
X5.2251Y-3.1508
X5.2251Y-3.2508
X5.2251Y-3.3508
X5.2251Y-3.4508
X5.2251Y-3.5508
X5.2251Y-3.6508
X5.2251Y-3.8508
X5.2251Y-3.9508
X5.2251Y-4.0508
X5.2251Y-4.1508
X5.2251Y-4.2508
X5.2251Y-4.3508
X5.2251Y-4.4508
X5.2251Y-4.5508
X5.2251Y-4.8508
X5.2251Y-4.9508
T4
X2.125Y-2.2062
X2.125Y-2.3243
X2.125Y-2.4424
X2.125Y-4.0124
X2.125Y-4.1306
X2.125Y-4.2487
X2.2431Y-2.2062
X2.2431Y-2.3243
X2.2431Y-2.4424
X2.2431Y-4.0124
X2.2431Y-4.1306
X2.2431Y-4.2487
X4.81Y-5.9843
X4.91Y-5.9843
X5.7402Y-5.9843
X5.8402Y-5.9843
X6.3071Y-2.2062
X6.3071Y-2.3243
X6.3071Y-2.4424
X6.3071Y-4.01
X6.3071Y-4.1281
X6.3071Y-4.2462
X6.4252Y-2.2062
X6.4252Y-2.3243
X6.4252Y-2.4424
X6.4252Y-4.01
X6.4252Y-4.1281
X6.4252Y-4.2462
T5
X3.277Y-5.9545
X3.527Y-5.9545
T6
X2.2902Y-3.1143
X2.2902Y-3.3143
X3.8402Y-5.8343
X4.0402Y-5.8343
X6.2601Y-3.1147
X6.2601Y-3.3147
T0
M30
