%TF.GenerationSoftware,KiCad,Pcbnew,7.0.6*%
%TF.CreationDate,2023-07-10T17:04:03+08:00*%
%TF.ProjectId,rbc_circuits,7262635f-6369-4726-9375-6974732e6b69,1.0*%
%TF.SameCoordinates,Original*%
%TF.FileFunction,Legend,Top*%
%TF.FilePolarity,Positive*%
%FSLAX46Y46*%
G04 Gerber Fmt 4.6, Leading zero omitted, Abs format (unit mm)*
G04 Created by KiCad (PCBNEW 7.0.6) date 2023-07-10 17:04:03*
%MOMM*%
%LPD*%
G01*
G04 APERTURE LIST*
%ADD10C,0.220000*%
%ADD11C,0.150000*%
%ADD12C,0.254000*%
%ADD13C,0.120000*%
%ADD14C,0.200000*%
%ADD15C,0.127000*%
G04 APERTURE END LIST*
D10*
X145722355Y-139930274D02*
X145627116Y-139882655D01*
X145627116Y-139882655D02*
X145436640Y-139882655D01*
X145436640Y-139882655D02*
X145341402Y-139930274D01*
X145341402Y-139930274D02*
X145246164Y-140025512D01*
X145246164Y-140025512D02*
X145198545Y-140120750D01*
X145198545Y-140120750D02*
X145198545Y-140311226D01*
X145198545Y-140311226D02*
X145246164Y-140406464D01*
X145246164Y-140406464D02*
X145341402Y-140501702D01*
X145341402Y-140501702D02*
X145436640Y-140549321D01*
X145436640Y-140549321D02*
X145627116Y-140549321D01*
X145627116Y-140549321D02*
X145722355Y-140501702D01*
X145531878Y-139549321D02*
X145293783Y-139596940D01*
X145293783Y-139596940D02*
X145055688Y-139739798D01*
X145055688Y-139739798D02*
X144912831Y-139977893D01*
X144912831Y-139977893D02*
X144865212Y-140215988D01*
X144865212Y-140215988D02*
X144912831Y-140454083D01*
X144912831Y-140454083D02*
X145055688Y-140692179D01*
X145055688Y-140692179D02*
X145293783Y-140835036D01*
X145293783Y-140835036D02*
X145531878Y-140882655D01*
X145531878Y-140882655D02*
X145769974Y-140835036D01*
X145769974Y-140835036D02*
X146008069Y-140692179D01*
X146008069Y-140692179D02*
X146150926Y-140454083D01*
X146150926Y-140454083D02*
X146198545Y-140215988D01*
X146198545Y-140215988D02*
X146150926Y-139977893D01*
X146150926Y-139977893D02*
X146008069Y-139739798D01*
X146008069Y-139739798D02*
X145769974Y-139596940D01*
X145769974Y-139596940D02*
X145531878Y-139549321D01*
X147389022Y-139692179D02*
X147389022Y-140501702D01*
X147389022Y-140501702D02*
X147436641Y-140596940D01*
X147436641Y-140596940D02*
X147484260Y-140644560D01*
X147484260Y-140644560D02*
X147579498Y-140692179D01*
X147579498Y-140692179D02*
X147769974Y-140692179D01*
X147769974Y-140692179D02*
X147865212Y-140644560D01*
X147865212Y-140644560D02*
X147912831Y-140596940D01*
X147912831Y-140596940D02*
X147960450Y-140501702D01*
X147960450Y-140501702D02*
X147960450Y-139692179D01*
X148960450Y-139739798D02*
X148865212Y-139692179D01*
X148865212Y-139692179D02*
X148722355Y-139692179D01*
X148722355Y-139692179D02*
X148579498Y-139739798D01*
X148579498Y-139739798D02*
X148484260Y-139835036D01*
X148484260Y-139835036D02*
X148436641Y-139930274D01*
X148436641Y-139930274D02*
X148389022Y-140120750D01*
X148389022Y-140120750D02*
X148389022Y-140263607D01*
X148389022Y-140263607D02*
X148436641Y-140454083D01*
X148436641Y-140454083D02*
X148484260Y-140549321D01*
X148484260Y-140549321D02*
X148579498Y-140644560D01*
X148579498Y-140644560D02*
X148722355Y-140692179D01*
X148722355Y-140692179D02*
X148817593Y-140692179D01*
X148817593Y-140692179D02*
X148960450Y-140644560D01*
X148960450Y-140644560D02*
X149008069Y-140596940D01*
X149008069Y-140596940D02*
X149008069Y-140263607D01*
X149008069Y-140263607D02*
X148817593Y-140263607D01*
X149389022Y-140644560D02*
X149531879Y-140692179D01*
X149531879Y-140692179D02*
X149769974Y-140692179D01*
X149769974Y-140692179D02*
X149865212Y-140644560D01*
X149865212Y-140644560D02*
X149912831Y-140596940D01*
X149912831Y-140596940D02*
X149960450Y-140501702D01*
X149960450Y-140501702D02*
X149960450Y-140406464D01*
X149960450Y-140406464D02*
X149912831Y-140311226D01*
X149912831Y-140311226D02*
X149865212Y-140263607D01*
X149865212Y-140263607D02*
X149769974Y-140215988D01*
X149769974Y-140215988D02*
X149579498Y-140168369D01*
X149579498Y-140168369D02*
X149484260Y-140120750D01*
X149484260Y-140120750D02*
X149436641Y-140073131D01*
X149436641Y-140073131D02*
X149389022Y-139977893D01*
X149389022Y-139977893D02*
X149389022Y-139882655D01*
X149389022Y-139882655D02*
X149436641Y-139787417D01*
X149436641Y-139787417D02*
X149484260Y-139739798D01*
X149484260Y-139739798D02*
X149579498Y-139692179D01*
X149579498Y-139692179D02*
X149817593Y-139692179D01*
X149817593Y-139692179D02*
X149960450Y-139739798D01*
X151103308Y-139787417D02*
X151150927Y-139739798D01*
X151150927Y-139739798D02*
X151246165Y-139692179D01*
X151246165Y-139692179D02*
X151484260Y-139692179D01*
X151484260Y-139692179D02*
X151579498Y-139739798D01*
X151579498Y-139739798D02*
X151627117Y-139787417D01*
X151627117Y-139787417D02*
X151674736Y-139882655D01*
X151674736Y-139882655D02*
X151674736Y-139977893D01*
X151674736Y-139977893D02*
X151627117Y-140120750D01*
X151627117Y-140120750D02*
X151055689Y-140692179D01*
X151055689Y-140692179D02*
X151674736Y-140692179D01*
X152293784Y-139692179D02*
X152389022Y-139692179D01*
X152389022Y-139692179D02*
X152484260Y-139739798D01*
X152484260Y-139739798D02*
X152531879Y-139787417D01*
X152531879Y-139787417D02*
X152579498Y-139882655D01*
X152579498Y-139882655D02*
X152627117Y-140073131D01*
X152627117Y-140073131D02*
X152627117Y-140311226D01*
X152627117Y-140311226D02*
X152579498Y-140501702D01*
X152579498Y-140501702D02*
X152531879Y-140596940D01*
X152531879Y-140596940D02*
X152484260Y-140644560D01*
X152484260Y-140644560D02*
X152389022Y-140692179D01*
X152389022Y-140692179D02*
X152293784Y-140692179D01*
X152293784Y-140692179D02*
X152198546Y-140644560D01*
X152198546Y-140644560D02*
X152150927Y-140596940D01*
X152150927Y-140596940D02*
X152103308Y-140501702D01*
X152103308Y-140501702D02*
X152055689Y-140311226D01*
X152055689Y-140311226D02*
X152055689Y-140073131D01*
X152055689Y-140073131D02*
X152103308Y-139882655D01*
X152103308Y-139882655D02*
X152150927Y-139787417D01*
X152150927Y-139787417D02*
X152198546Y-139739798D01*
X152198546Y-139739798D02*
X152293784Y-139692179D01*
X153008070Y-139787417D02*
X153055689Y-139739798D01*
X153055689Y-139739798D02*
X153150927Y-139692179D01*
X153150927Y-139692179D02*
X153389022Y-139692179D01*
X153389022Y-139692179D02*
X153484260Y-139739798D01*
X153484260Y-139739798D02*
X153531879Y-139787417D01*
X153531879Y-139787417D02*
X153579498Y-139882655D01*
X153579498Y-139882655D02*
X153579498Y-139977893D01*
X153579498Y-139977893D02*
X153531879Y-140120750D01*
X153531879Y-140120750D02*
X152960451Y-140692179D01*
X152960451Y-140692179D02*
X153579498Y-140692179D01*
X153912832Y-139692179D02*
X154531879Y-139692179D01*
X154531879Y-139692179D02*
X154198546Y-140073131D01*
X154198546Y-140073131D02*
X154341403Y-140073131D01*
X154341403Y-140073131D02*
X154436641Y-140120750D01*
X154436641Y-140120750D02*
X154484260Y-140168369D01*
X154484260Y-140168369D02*
X154531879Y-140263607D01*
X154531879Y-140263607D02*
X154531879Y-140501702D01*
X154531879Y-140501702D02*
X154484260Y-140596940D01*
X154484260Y-140596940D02*
X154436641Y-140644560D01*
X154436641Y-140644560D02*
X154341403Y-140692179D01*
X154341403Y-140692179D02*
X154055689Y-140692179D01*
X154055689Y-140692179D02*
X153960451Y-140644560D01*
X153960451Y-140644560D02*
X153912832Y-140596940D01*
X136784831Y-138660179D02*
X136784831Y-137660179D01*
X136784831Y-137660179D02*
X137118164Y-138374464D01*
X137118164Y-138374464D02*
X137451497Y-137660179D01*
X137451497Y-137660179D02*
X137451497Y-138660179D01*
X138118164Y-137660179D02*
X138308640Y-137660179D01*
X138308640Y-137660179D02*
X138403878Y-137707798D01*
X138403878Y-137707798D02*
X138499116Y-137803036D01*
X138499116Y-137803036D02*
X138546735Y-137993512D01*
X138546735Y-137993512D02*
X138546735Y-138326845D01*
X138546735Y-138326845D02*
X138499116Y-138517321D01*
X138499116Y-138517321D02*
X138403878Y-138612560D01*
X138403878Y-138612560D02*
X138308640Y-138660179D01*
X138308640Y-138660179D02*
X138118164Y-138660179D01*
X138118164Y-138660179D02*
X138022926Y-138612560D01*
X138022926Y-138612560D02*
X137927688Y-138517321D01*
X137927688Y-138517321D02*
X137880069Y-138326845D01*
X137880069Y-138326845D02*
X137880069Y-137993512D01*
X137880069Y-137993512D02*
X137927688Y-137803036D01*
X137927688Y-137803036D02*
X138022926Y-137707798D01*
X138022926Y-137707798D02*
X138118164Y-137660179D01*
X138832450Y-137660179D02*
X139403878Y-137660179D01*
X139118164Y-138660179D02*
X139118164Y-137660179D01*
X139927688Y-137660179D02*
X140118164Y-137660179D01*
X140118164Y-137660179D02*
X140213402Y-137707798D01*
X140213402Y-137707798D02*
X140308640Y-137803036D01*
X140308640Y-137803036D02*
X140356259Y-137993512D01*
X140356259Y-137993512D02*
X140356259Y-138326845D01*
X140356259Y-138326845D02*
X140308640Y-138517321D01*
X140308640Y-138517321D02*
X140213402Y-138612560D01*
X140213402Y-138612560D02*
X140118164Y-138660179D01*
X140118164Y-138660179D02*
X139927688Y-138660179D01*
X139927688Y-138660179D02*
X139832450Y-138612560D01*
X139832450Y-138612560D02*
X139737212Y-138517321D01*
X139737212Y-138517321D02*
X139689593Y-138326845D01*
X139689593Y-138326845D02*
X139689593Y-137993512D01*
X139689593Y-137993512D02*
X139737212Y-137803036D01*
X139737212Y-137803036D02*
X139832450Y-137707798D01*
X139832450Y-137707798D02*
X139927688Y-137660179D01*
X141356259Y-138660179D02*
X141022926Y-138183988D01*
X140784831Y-138660179D02*
X140784831Y-137660179D01*
X140784831Y-137660179D02*
X141165783Y-137660179D01*
X141165783Y-137660179D02*
X141261021Y-137707798D01*
X141261021Y-137707798D02*
X141308640Y-137755417D01*
X141308640Y-137755417D02*
X141356259Y-137850655D01*
X141356259Y-137850655D02*
X141356259Y-137993512D01*
X141356259Y-137993512D02*
X141308640Y-138088750D01*
X141308640Y-138088750D02*
X141261021Y-138136369D01*
X141261021Y-138136369D02*
X141165783Y-138183988D01*
X141165783Y-138183988D02*
X140784831Y-138183988D01*
X143118164Y-138564940D02*
X143070545Y-138612560D01*
X143070545Y-138612560D02*
X142927688Y-138660179D01*
X142927688Y-138660179D02*
X142832450Y-138660179D01*
X142832450Y-138660179D02*
X142689593Y-138612560D01*
X142689593Y-138612560D02*
X142594355Y-138517321D01*
X142594355Y-138517321D02*
X142546736Y-138422083D01*
X142546736Y-138422083D02*
X142499117Y-138231607D01*
X142499117Y-138231607D02*
X142499117Y-138088750D01*
X142499117Y-138088750D02*
X142546736Y-137898274D01*
X142546736Y-137898274D02*
X142594355Y-137803036D01*
X142594355Y-137803036D02*
X142689593Y-137707798D01*
X142689593Y-137707798D02*
X142832450Y-137660179D01*
X142832450Y-137660179D02*
X142927688Y-137660179D01*
X142927688Y-137660179D02*
X143070545Y-137707798D01*
X143070545Y-137707798D02*
X143118164Y-137755417D01*
X143737212Y-137660179D02*
X143927688Y-137660179D01*
X143927688Y-137660179D02*
X144022926Y-137707798D01*
X144022926Y-137707798D02*
X144118164Y-137803036D01*
X144118164Y-137803036D02*
X144165783Y-137993512D01*
X144165783Y-137993512D02*
X144165783Y-138326845D01*
X144165783Y-138326845D02*
X144118164Y-138517321D01*
X144118164Y-138517321D02*
X144022926Y-138612560D01*
X144022926Y-138612560D02*
X143927688Y-138660179D01*
X143927688Y-138660179D02*
X143737212Y-138660179D01*
X143737212Y-138660179D02*
X143641974Y-138612560D01*
X143641974Y-138612560D02*
X143546736Y-138517321D01*
X143546736Y-138517321D02*
X143499117Y-138326845D01*
X143499117Y-138326845D02*
X143499117Y-137993512D01*
X143499117Y-137993512D02*
X143546736Y-137803036D01*
X143546736Y-137803036D02*
X143641974Y-137707798D01*
X143641974Y-137707798D02*
X143737212Y-137660179D01*
X144594355Y-138660179D02*
X144594355Y-137660179D01*
X144594355Y-137660179D02*
X145165783Y-138660179D01*
X145165783Y-138660179D02*
X145165783Y-137660179D01*
X145499117Y-137660179D02*
X146070545Y-137660179D01*
X145784831Y-138660179D02*
X145784831Y-137660179D01*
X146975307Y-138660179D02*
X146641974Y-138183988D01*
X146403879Y-138660179D02*
X146403879Y-137660179D01*
X146403879Y-137660179D02*
X146784831Y-137660179D01*
X146784831Y-137660179D02*
X146880069Y-137707798D01*
X146880069Y-137707798D02*
X146927688Y-137755417D01*
X146927688Y-137755417D02*
X146975307Y-137850655D01*
X146975307Y-137850655D02*
X146975307Y-137993512D01*
X146975307Y-137993512D02*
X146927688Y-138088750D01*
X146927688Y-138088750D02*
X146880069Y-138136369D01*
X146880069Y-138136369D02*
X146784831Y-138183988D01*
X146784831Y-138183988D02*
X146403879Y-138183988D01*
X147594355Y-137660179D02*
X147784831Y-137660179D01*
X147784831Y-137660179D02*
X147880069Y-137707798D01*
X147880069Y-137707798D02*
X147975307Y-137803036D01*
X147975307Y-137803036D02*
X148022926Y-137993512D01*
X148022926Y-137993512D02*
X148022926Y-138326845D01*
X148022926Y-138326845D02*
X147975307Y-138517321D01*
X147975307Y-138517321D02*
X147880069Y-138612560D01*
X147880069Y-138612560D02*
X147784831Y-138660179D01*
X147784831Y-138660179D02*
X147594355Y-138660179D01*
X147594355Y-138660179D02*
X147499117Y-138612560D01*
X147499117Y-138612560D02*
X147403879Y-138517321D01*
X147403879Y-138517321D02*
X147356260Y-138326845D01*
X147356260Y-138326845D02*
X147356260Y-137993512D01*
X147356260Y-137993512D02*
X147403879Y-137803036D01*
X147403879Y-137803036D02*
X147499117Y-137707798D01*
X147499117Y-137707798D02*
X147594355Y-137660179D01*
X148927688Y-138660179D02*
X148451498Y-138660179D01*
X148451498Y-138660179D02*
X148451498Y-137660179D01*
X149737212Y-138660179D02*
X149261022Y-138660179D01*
X149261022Y-138660179D02*
X149261022Y-137660179D01*
X150070546Y-138136369D02*
X150403879Y-138136369D01*
X150546736Y-138660179D02*
X150070546Y-138660179D01*
X150070546Y-138660179D02*
X150070546Y-137660179D01*
X150070546Y-137660179D02*
X150546736Y-137660179D01*
X151546736Y-138660179D02*
X151213403Y-138183988D01*
X150975308Y-138660179D02*
X150975308Y-137660179D01*
X150975308Y-137660179D02*
X151356260Y-137660179D01*
X151356260Y-137660179D02*
X151451498Y-137707798D01*
X151451498Y-137707798D02*
X151499117Y-137755417D01*
X151499117Y-137755417D02*
X151546736Y-137850655D01*
X151546736Y-137850655D02*
X151546736Y-137993512D01*
X151546736Y-137993512D02*
X151499117Y-138088750D01*
X151499117Y-138088750D02*
X151451498Y-138136369D01*
X151451498Y-138136369D02*
X151356260Y-138183988D01*
X151356260Y-138183988D02*
X150975308Y-138183988D01*
X152737213Y-138660179D02*
X152737213Y-137660179D01*
X152737213Y-137660179D02*
X153118165Y-137660179D01*
X153118165Y-137660179D02*
X153213403Y-137707798D01*
X153213403Y-137707798D02*
X153261022Y-137755417D01*
X153261022Y-137755417D02*
X153308641Y-137850655D01*
X153308641Y-137850655D02*
X153308641Y-137993512D01*
X153308641Y-137993512D02*
X153261022Y-138088750D01*
X153261022Y-138088750D02*
X153213403Y-138136369D01*
X153213403Y-138136369D02*
X153118165Y-138183988D01*
X153118165Y-138183988D02*
X152737213Y-138183988D01*
X154308641Y-138564940D02*
X154261022Y-138612560D01*
X154261022Y-138612560D02*
X154118165Y-138660179D01*
X154118165Y-138660179D02*
X154022927Y-138660179D01*
X154022927Y-138660179D02*
X153880070Y-138612560D01*
X153880070Y-138612560D02*
X153784832Y-138517321D01*
X153784832Y-138517321D02*
X153737213Y-138422083D01*
X153737213Y-138422083D02*
X153689594Y-138231607D01*
X153689594Y-138231607D02*
X153689594Y-138088750D01*
X153689594Y-138088750D02*
X153737213Y-137898274D01*
X153737213Y-137898274D02*
X153784832Y-137803036D01*
X153784832Y-137803036D02*
X153880070Y-137707798D01*
X153880070Y-137707798D02*
X154022927Y-137660179D01*
X154022927Y-137660179D02*
X154118165Y-137660179D01*
X154118165Y-137660179D02*
X154261022Y-137707798D01*
X154261022Y-137707798D02*
X154308641Y-137755417D01*
X155070546Y-138136369D02*
X155213403Y-138183988D01*
X155213403Y-138183988D02*
X155261022Y-138231607D01*
X155261022Y-138231607D02*
X155308641Y-138326845D01*
X155308641Y-138326845D02*
X155308641Y-138469702D01*
X155308641Y-138469702D02*
X155261022Y-138564940D01*
X155261022Y-138564940D02*
X155213403Y-138612560D01*
X155213403Y-138612560D02*
X155118165Y-138660179D01*
X155118165Y-138660179D02*
X154737213Y-138660179D01*
X154737213Y-138660179D02*
X154737213Y-137660179D01*
X154737213Y-137660179D02*
X155070546Y-137660179D01*
X155070546Y-137660179D02*
X155165784Y-137707798D01*
X155165784Y-137707798D02*
X155213403Y-137755417D01*
X155213403Y-137755417D02*
X155261022Y-137850655D01*
X155261022Y-137850655D02*
X155261022Y-137945893D01*
X155261022Y-137945893D02*
X155213403Y-138041131D01*
X155213403Y-138041131D02*
X155165784Y-138088750D01*
X155165784Y-138088750D02*
X155070546Y-138136369D01*
X155070546Y-138136369D02*
X154737213Y-138136369D01*
X157070546Y-138660179D02*
X156737213Y-138183988D01*
X156499118Y-138660179D02*
X156499118Y-137660179D01*
X156499118Y-137660179D02*
X156880070Y-137660179D01*
X156880070Y-137660179D02*
X156975308Y-137707798D01*
X156975308Y-137707798D02*
X157022927Y-137755417D01*
X157022927Y-137755417D02*
X157070546Y-137850655D01*
X157070546Y-137850655D02*
X157070546Y-137993512D01*
X157070546Y-137993512D02*
X157022927Y-138088750D01*
X157022927Y-138088750D02*
X156975308Y-138136369D01*
X156975308Y-138136369D02*
X156880070Y-138183988D01*
X156880070Y-138183988D02*
X156499118Y-138183988D01*
X157880070Y-138612560D02*
X157784832Y-138660179D01*
X157784832Y-138660179D02*
X157594356Y-138660179D01*
X157594356Y-138660179D02*
X157499118Y-138612560D01*
X157499118Y-138612560D02*
X157451499Y-138517321D01*
X157451499Y-138517321D02*
X157451499Y-138136369D01*
X157451499Y-138136369D02*
X157499118Y-138041131D01*
X157499118Y-138041131D02*
X157594356Y-137993512D01*
X157594356Y-137993512D02*
X157784832Y-137993512D01*
X157784832Y-137993512D02*
X157880070Y-138041131D01*
X157880070Y-138041131D02*
X157927689Y-138136369D01*
X157927689Y-138136369D02*
X157927689Y-138231607D01*
X157927689Y-138231607D02*
X157451499Y-138326845D01*
X158261023Y-137993512D02*
X158499118Y-138660179D01*
X158499118Y-138660179D02*
X158737213Y-137993512D01*
X160403880Y-138660179D02*
X159832452Y-138660179D01*
X160118166Y-138660179D02*
X160118166Y-137660179D01*
X160118166Y-137660179D02*
X160022928Y-137803036D01*
X160022928Y-137803036D02*
X159927690Y-137898274D01*
X159927690Y-137898274D02*
X159832452Y-137945893D01*
X160832452Y-138564940D02*
X160880071Y-138612560D01*
X160880071Y-138612560D02*
X160832452Y-138660179D01*
X160832452Y-138660179D02*
X160784833Y-138612560D01*
X160784833Y-138612560D02*
X160832452Y-138564940D01*
X160832452Y-138564940D02*
X160832452Y-138660179D01*
X161499118Y-137660179D02*
X161594356Y-137660179D01*
X161594356Y-137660179D02*
X161689594Y-137707798D01*
X161689594Y-137707798D02*
X161737213Y-137755417D01*
X161737213Y-137755417D02*
X161784832Y-137850655D01*
X161784832Y-137850655D02*
X161832451Y-138041131D01*
X161832451Y-138041131D02*
X161832451Y-138279226D01*
X161832451Y-138279226D02*
X161784832Y-138469702D01*
X161784832Y-138469702D02*
X161737213Y-138564940D01*
X161737213Y-138564940D02*
X161689594Y-138612560D01*
X161689594Y-138612560D02*
X161594356Y-138660179D01*
X161594356Y-138660179D02*
X161499118Y-138660179D01*
X161499118Y-138660179D02*
X161403880Y-138612560D01*
X161403880Y-138612560D02*
X161356261Y-138564940D01*
X161356261Y-138564940D02*
X161308642Y-138469702D01*
X161308642Y-138469702D02*
X161261023Y-138279226D01*
X161261023Y-138279226D02*
X161261023Y-138041131D01*
X161261023Y-138041131D02*
X161308642Y-137850655D01*
X161308642Y-137850655D02*
X161356261Y-137755417D01*
X161356261Y-137755417D02*
X161403880Y-137707798D01*
X161403880Y-137707798D02*
X161499118Y-137660179D01*
X144912831Y-136628179D02*
X144912831Y-135628179D01*
X144912831Y-135628179D02*
X145293783Y-135628179D01*
X145293783Y-135628179D02*
X145389021Y-135675798D01*
X145389021Y-135675798D02*
X145436640Y-135723417D01*
X145436640Y-135723417D02*
X145484259Y-135818655D01*
X145484259Y-135818655D02*
X145484259Y-135961512D01*
X145484259Y-135961512D02*
X145436640Y-136056750D01*
X145436640Y-136056750D02*
X145389021Y-136104369D01*
X145389021Y-136104369D02*
X145293783Y-136151988D01*
X145293783Y-136151988D02*
X144912831Y-136151988D01*
X146484259Y-136628179D02*
X146150926Y-136151988D01*
X145912831Y-136628179D02*
X145912831Y-135628179D01*
X145912831Y-135628179D02*
X146293783Y-135628179D01*
X146293783Y-135628179D02*
X146389021Y-135675798D01*
X146389021Y-135675798D02*
X146436640Y-135723417D01*
X146436640Y-135723417D02*
X146484259Y-135818655D01*
X146484259Y-135818655D02*
X146484259Y-135961512D01*
X146484259Y-135961512D02*
X146436640Y-136056750D01*
X146436640Y-136056750D02*
X146389021Y-136104369D01*
X146389021Y-136104369D02*
X146293783Y-136151988D01*
X146293783Y-136151988D02*
X145912831Y-136151988D01*
X147103307Y-135628179D02*
X147293783Y-135628179D01*
X147293783Y-135628179D02*
X147389021Y-135675798D01*
X147389021Y-135675798D02*
X147484259Y-135771036D01*
X147484259Y-135771036D02*
X147531878Y-135961512D01*
X147531878Y-135961512D02*
X147531878Y-136294845D01*
X147531878Y-136294845D02*
X147484259Y-136485321D01*
X147484259Y-136485321D02*
X147389021Y-136580560D01*
X147389021Y-136580560D02*
X147293783Y-136628179D01*
X147293783Y-136628179D02*
X147103307Y-136628179D01*
X147103307Y-136628179D02*
X147008069Y-136580560D01*
X147008069Y-136580560D02*
X146912831Y-136485321D01*
X146912831Y-136485321D02*
X146865212Y-136294845D01*
X146865212Y-136294845D02*
X146865212Y-135961512D01*
X146865212Y-135961512D02*
X146912831Y-135771036D01*
X146912831Y-135771036D02*
X147008069Y-135675798D01*
X147008069Y-135675798D02*
X147103307Y-135628179D01*
X148246164Y-135628179D02*
X148246164Y-136342464D01*
X148246164Y-136342464D02*
X148198545Y-136485321D01*
X148198545Y-136485321D02*
X148103307Y-136580560D01*
X148103307Y-136580560D02*
X147960450Y-136628179D01*
X147960450Y-136628179D02*
X147865212Y-136628179D01*
X148722355Y-136104369D02*
X149055688Y-136104369D01*
X149198545Y-136628179D02*
X148722355Y-136628179D01*
X148722355Y-136628179D02*
X148722355Y-135628179D01*
X148722355Y-135628179D02*
X149198545Y-135628179D01*
X150198545Y-136532940D02*
X150150926Y-136580560D01*
X150150926Y-136580560D02*
X150008069Y-136628179D01*
X150008069Y-136628179D02*
X149912831Y-136628179D01*
X149912831Y-136628179D02*
X149769974Y-136580560D01*
X149769974Y-136580560D02*
X149674736Y-136485321D01*
X149674736Y-136485321D02*
X149627117Y-136390083D01*
X149627117Y-136390083D02*
X149579498Y-136199607D01*
X149579498Y-136199607D02*
X149579498Y-136056750D01*
X149579498Y-136056750D02*
X149627117Y-135866274D01*
X149627117Y-135866274D02*
X149674736Y-135771036D01*
X149674736Y-135771036D02*
X149769974Y-135675798D01*
X149769974Y-135675798D02*
X149912831Y-135628179D01*
X149912831Y-135628179D02*
X150008069Y-135628179D01*
X150008069Y-135628179D02*
X150150926Y-135675798D01*
X150150926Y-135675798D02*
X150198545Y-135723417D01*
X150484260Y-135628179D02*
X151055688Y-135628179D01*
X150769974Y-136628179D02*
X150769974Y-135628179D01*
X152722355Y-136628179D02*
X152389022Y-136151988D01*
X152150927Y-136628179D02*
X152150927Y-135628179D01*
X152150927Y-135628179D02*
X152531879Y-135628179D01*
X152531879Y-135628179D02*
X152627117Y-135675798D01*
X152627117Y-135675798D02*
X152674736Y-135723417D01*
X152674736Y-135723417D02*
X152722355Y-135818655D01*
X152722355Y-135818655D02*
X152722355Y-135961512D01*
X152722355Y-135961512D02*
X152674736Y-136056750D01*
X152674736Y-136056750D02*
X152627117Y-136104369D01*
X152627117Y-136104369D02*
X152531879Y-136151988D01*
X152531879Y-136151988D02*
X152150927Y-136151988D01*
X153484260Y-136104369D02*
X153627117Y-136151988D01*
X153627117Y-136151988D02*
X153674736Y-136199607D01*
X153674736Y-136199607D02*
X153722355Y-136294845D01*
X153722355Y-136294845D02*
X153722355Y-136437702D01*
X153722355Y-136437702D02*
X153674736Y-136532940D01*
X153674736Y-136532940D02*
X153627117Y-136580560D01*
X153627117Y-136580560D02*
X153531879Y-136628179D01*
X153531879Y-136628179D02*
X153150927Y-136628179D01*
X153150927Y-136628179D02*
X153150927Y-135628179D01*
X153150927Y-135628179D02*
X153484260Y-135628179D01*
X153484260Y-135628179D02*
X153579498Y-135675798D01*
X153579498Y-135675798D02*
X153627117Y-135723417D01*
X153627117Y-135723417D02*
X153674736Y-135818655D01*
X153674736Y-135818655D02*
X153674736Y-135913893D01*
X153674736Y-135913893D02*
X153627117Y-136009131D01*
X153627117Y-136009131D02*
X153579498Y-136056750D01*
X153579498Y-136056750D02*
X153484260Y-136104369D01*
X153484260Y-136104369D02*
X153150927Y-136104369D01*
X154722355Y-136532940D02*
X154674736Y-136580560D01*
X154674736Y-136580560D02*
X154531879Y-136628179D01*
X154531879Y-136628179D02*
X154436641Y-136628179D01*
X154436641Y-136628179D02*
X154293784Y-136580560D01*
X154293784Y-136580560D02*
X154198546Y-136485321D01*
X154198546Y-136485321D02*
X154150927Y-136390083D01*
X154150927Y-136390083D02*
X154103308Y-136199607D01*
X154103308Y-136199607D02*
X154103308Y-136056750D01*
X154103308Y-136056750D02*
X154150927Y-135866274D01*
X154150927Y-135866274D02*
X154198546Y-135771036D01*
X154198546Y-135771036D02*
X154293784Y-135675798D01*
X154293784Y-135675798D02*
X154436641Y-135628179D01*
X154436641Y-135628179D02*
X154531879Y-135628179D01*
X154531879Y-135628179D02*
X154674736Y-135675798D01*
X154674736Y-135675798D02*
X154722355Y-135723417D01*
D11*
X166324819Y-59371333D02*
X167039104Y-59371333D01*
X167039104Y-59371333D02*
X167181961Y-59418952D01*
X167181961Y-59418952D02*
X167277200Y-59514190D01*
X167277200Y-59514190D02*
X167324819Y-59657047D01*
X167324819Y-59657047D02*
X167324819Y-59752285D01*
X166324819Y-58990380D02*
X166324819Y-58323714D01*
X166324819Y-58323714D02*
X167324819Y-58752285D01*
X75021333Y-131882819D02*
X74688000Y-131406628D01*
X74449905Y-131882819D02*
X74449905Y-130882819D01*
X74449905Y-130882819D02*
X74830857Y-130882819D01*
X74830857Y-130882819D02*
X74926095Y-130930438D01*
X74926095Y-130930438D02*
X74973714Y-130978057D01*
X74973714Y-130978057D02*
X75021333Y-131073295D01*
X75021333Y-131073295D02*
X75021333Y-131216152D01*
X75021333Y-131216152D02*
X74973714Y-131311390D01*
X74973714Y-131311390D02*
X74926095Y-131359009D01*
X74926095Y-131359009D02*
X74830857Y-131406628D01*
X74830857Y-131406628D02*
X74449905Y-131406628D01*
X75973714Y-131882819D02*
X75402286Y-131882819D01*
X75688000Y-131882819D02*
X75688000Y-130882819D01*
X75688000Y-130882819D02*
X75592762Y-131025676D01*
X75592762Y-131025676D02*
X75497524Y-131120914D01*
X75497524Y-131120914D02*
X75402286Y-131168533D01*
X148484810Y-68890819D02*
X148484810Y-67890819D01*
X149532428Y-68795580D02*
X149484809Y-68843200D01*
X149484809Y-68843200D02*
X149341952Y-68890819D01*
X149341952Y-68890819D02*
X149246714Y-68890819D01*
X149246714Y-68890819D02*
X149103857Y-68843200D01*
X149103857Y-68843200D02*
X149008619Y-68747961D01*
X149008619Y-68747961D02*
X148961000Y-68652723D01*
X148961000Y-68652723D02*
X148913381Y-68462247D01*
X148913381Y-68462247D02*
X148913381Y-68319390D01*
X148913381Y-68319390D02*
X148961000Y-68128914D01*
X148961000Y-68128914D02*
X149008619Y-68033676D01*
X149008619Y-68033676D02*
X149103857Y-67938438D01*
X149103857Y-67938438D02*
X149246714Y-67890819D01*
X149246714Y-67890819D02*
X149341952Y-67890819D01*
X149341952Y-67890819D02*
X149484809Y-67938438D01*
X149484809Y-67938438D02*
X149532428Y-67986057D01*
X149865762Y-67890819D02*
X150532428Y-67890819D01*
X150532428Y-67890819D02*
X150103857Y-68890819D01*
X139823142Y-80479580D02*
X139775523Y-80527200D01*
X139775523Y-80527200D02*
X139632666Y-80574819D01*
X139632666Y-80574819D02*
X139537428Y-80574819D01*
X139537428Y-80574819D02*
X139394571Y-80527200D01*
X139394571Y-80527200D02*
X139299333Y-80431961D01*
X139299333Y-80431961D02*
X139251714Y-80336723D01*
X139251714Y-80336723D02*
X139204095Y-80146247D01*
X139204095Y-80146247D02*
X139204095Y-80003390D01*
X139204095Y-80003390D02*
X139251714Y-79812914D01*
X139251714Y-79812914D02*
X139299333Y-79717676D01*
X139299333Y-79717676D02*
X139394571Y-79622438D01*
X139394571Y-79622438D02*
X139537428Y-79574819D01*
X139537428Y-79574819D02*
X139632666Y-79574819D01*
X139632666Y-79574819D02*
X139775523Y-79622438D01*
X139775523Y-79622438D02*
X139823142Y-79670057D01*
X140775523Y-80574819D02*
X140204095Y-80574819D01*
X140489809Y-80574819D02*
X140489809Y-79574819D01*
X140489809Y-79574819D02*
X140394571Y-79717676D01*
X140394571Y-79717676D02*
X140299333Y-79812914D01*
X140299333Y-79812914D02*
X140204095Y-79860533D01*
X141727904Y-80574819D02*
X141156476Y-80574819D01*
X141442190Y-80574819D02*
X141442190Y-79574819D01*
X141442190Y-79574819D02*
X141346952Y-79717676D01*
X141346952Y-79717676D02*
X141251714Y-79812914D01*
X141251714Y-79812914D02*
X141156476Y-79860533D01*
X75575333Y-153438580D02*
X75527714Y-153486200D01*
X75527714Y-153486200D02*
X75384857Y-153533819D01*
X75384857Y-153533819D02*
X75289619Y-153533819D01*
X75289619Y-153533819D02*
X75146762Y-153486200D01*
X75146762Y-153486200D02*
X75051524Y-153390961D01*
X75051524Y-153390961D02*
X75003905Y-153295723D01*
X75003905Y-153295723D02*
X74956286Y-153105247D01*
X74956286Y-153105247D02*
X74956286Y-152962390D01*
X74956286Y-152962390D02*
X75003905Y-152771914D01*
X75003905Y-152771914D02*
X75051524Y-152676676D01*
X75051524Y-152676676D02*
X75146762Y-152581438D01*
X75146762Y-152581438D02*
X75289619Y-152533819D01*
X75289619Y-152533819D02*
X75384857Y-152533819D01*
X75384857Y-152533819D02*
X75527714Y-152581438D01*
X75527714Y-152581438D02*
X75575333Y-152629057D01*
X76527714Y-153533819D02*
X75956286Y-153533819D01*
X76242000Y-153533819D02*
X76242000Y-152533819D01*
X76242000Y-152533819D02*
X76146762Y-152676676D01*
X76146762Y-152676676D02*
X76051524Y-152771914D01*
X76051524Y-152771914D02*
X75956286Y-152819533D01*
X148633810Y-114610819D02*
X148633810Y-113610819D01*
X149681428Y-114515580D02*
X149633809Y-114563200D01*
X149633809Y-114563200D02*
X149490952Y-114610819D01*
X149490952Y-114610819D02*
X149395714Y-114610819D01*
X149395714Y-114610819D02*
X149252857Y-114563200D01*
X149252857Y-114563200D02*
X149157619Y-114467961D01*
X149157619Y-114467961D02*
X149110000Y-114372723D01*
X149110000Y-114372723D02*
X149062381Y-114182247D01*
X149062381Y-114182247D02*
X149062381Y-114039390D01*
X149062381Y-114039390D02*
X149110000Y-113848914D01*
X149110000Y-113848914D02*
X149157619Y-113753676D01*
X149157619Y-113753676D02*
X149252857Y-113658438D01*
X149252857Y-113658438D02*
X149395714Y-113610819D01*
X149395714Y-113610819D02*
X149490952Y-113610819D01*
X149490952Y-113610819D02*
X149633809Y-113658438D01*
X149633809Y-113658438D02*
X149681428Y-113706057D01*
X150252857Y-114039390D02*
X150157619Y-113991771D01*
X150157619Y-113991771D02*
X150110000Y-113944152D01*
X150110000Y-113944152D02*
X150062381Y-113848914D01*
X150062381Y-113848914D02*
X150062381Y-113801295D01*
X150062381Y-113801295D02*
X150110000Y-113706057D01*
X150110000Y-113706057D02*
X150157619Y-113658438D01*
X150157619Y-113658438D02*
X150252857Y-113610819D01*
X150252857Y-113610819D02*
X150443333Y-113610819D01*
X150443333Y-113610819D02*
X150538571Y-113658438D01*
X150538571Y-113658438D02*
X150586190Y-113706057D01*
X150586190Y-113706057D02*
X150633809Y-113801295D01*
X150633809Y-113801295D02*
X150633809Y-113848914D01*
X150633809Y-113848914D02*
X150586190Y-113944152D01*
X150586190Y-113944152D02*
X150538571Y-113991771D01*
X150538571Y-113991771D02*
X150443333Y-114039390D01*
X150443333Y-114039390D02*
X150252857Y-114039390D01*
X150252857Y-114039390D02*
X150157619Y-114087009D01*
X150157619Y-114087009D02*
X150110000Y-114134628D01*
X150110000Y-114134628D02*
X150062381Y-114229866D01*
X150062381Y-114229866D02*
X150062381Y-114420342D01*
X150062381Y-114420342D02*
X150110000Y-114515580D01*
X150110000Y-114515580D02*
X150157619Y-114563200D01*
X150157619Y-114563200D02*
X150252857Y-114610819D01*
X150252857Y-114610819D02*
X150443333Y-114610819D01*
X150443333Y-114610819D02*
X150538571Y-114563200D01*
X150538571Y-114563200D02*
X150586190Y-114515580D01*
X150586190Y-114515580D02*
X150633809Y-114420342D01*
X150633809Y-114420342D02*
X150633809Y-114229866D01*
X150633809Y-114229866D02*
X150586190Y-114134628D01*
X150586190Y-114134628D02*
X150538571Y-114087009D01*
X150538571Y-114087009D02*
X150443333Y-114039390D01*
X77053333Y-80479580D02*
X77005714Y-80527200D01*
X77005714Y-80527200D02*
X76862857Y-80574819D01*
X76862857Y-80574819D02*
X76767619Y-80574819D01*
X76767619Y-80574819D02*
X76624762Y-80527200D01*
X76624762Y-80527200D02*
X76529524Y-80431961D01*
X76529524Y-80431961D02*
X76481905Y-80336723D01*
X76481905Y-80336723D02*
X76434286Y-80146247D01*
X76434286Y-80146247D02*
X76434286Y-80003390D01*
X76434286Y-80003390D02*
X76481905Y-79812914D01*
X76481905Y-79812914D02*
X76529524Y-79717676D01*
X76529524Y-79717676D02*
X76624762Y-79622438D01*
X76624762Y-79622438D02*
X76767619Y-79574819D01*
X76767619Y-79574819D02*
X76862857Y-79574819D01*
X76862857Y-79574819D02*
X77005714Y-79622438D01*
X77005714Y-79622438D02*
X77053333Y-79670057D01*
X77386667Y-79574819D02*
X78053333Y-79574819D01*
X78053333Y-79574819D02*
X77624762Y-80574819D01*
X79339333Y-141788819D02*
X79006000Y-141312628D01*
X78767905Y-141788819D02*
X78767905Y-140788819D01*
X78767905Y-140788819D02*
X79148857Y-140788819D01*
X79148857Y-140788819D02*
X79244095Y-140836438D01*
X79244095Y-140836438D02*
X79291714Y-140884057D01*
X79291714Y-140884057D02*
X79339333Y-140979295D01*
X79339333Y-140979295D02*
X79339333Y-141122152D01*
X79339333Y-141122152D02*
X79291714Y-141217390D01*
X79291714Y-141217390D02*
X79244095Y-141265009D01*
X79244095Y-141265009D02*
X79148857Y-141312628D01*
X79148857Y-141312628D02*
X78767905Y-141312628D01*
X80196476Y-141122152D02*
X80196476Y-141788819D01*
X79958381Y-140741200D02*
X79720286Y-141455485D01*
X79720286Y-141455485D02*
X80339333Y-141455485D01*
X142363142Y-71938819D02*
X142029809Y-71462628D01*
X141791714Y-71938819D02*
X141791714Y-70938819D01*
X141791714Y-70938819D02*
X142172666Y-70938819D01*
X142172666Y-70938819D02*
X142267904Y-70986438D01*
X142267904Y-70986438D02*
X142315523Y-71034057D01*
X142315523Y-71034057D02*
X142363142Y-71129295D01*
X142363142Y-71129295D02*
X142363142Y-71272152D01*
X142363142Y-71272152D02*
X142315523Y-71367390D01*
X142315523Y-71367390D02*
X142267904Y-71415009D01*
X142267904Y-71415009D02*
X142172666Y-71462628D01*
X142172666Y-71462628D02*
X141791714Y-71462628D01*
X142744095Y-71034057D02*
X142791714Y-70986438D01*
X142791714Y-70986438D02*
X142886952Y-70938819D01*
X142886952Y-70938819D02*
X143125047Y-70938819D01*
X143125047Y-70938819D02*
X143220285Y-70986438D01*
X143220285Y-70986438D02*
X143267904Y-71034057D01*
X143267904Y-71034057D02*
X143315523Y-71129295D01*
X143315523Y-71129295D02*
X143315523Y-71224533D01*
X143315523Y-71224533D02*
X143267904Y-71367390D01*
X143267904Y-71367390D02*
X142696476Y-71938819D01*
X142696476Y-71938819D02*
X143315523Y-71938819D01*
X143791714Y-71938819D02*
X143982190Y-71938819D01*
X143982190Y-71938819D02*
X144077428Y-71891200D01*
X144077428Y-71891200D02*
X144125047Y-71843580D01*
X144125047Y-71843580D02*
X144220285Y-71700723D01*
X144220285Y-71700723D02*
X144267904Y-71510247D01*
X144267904Y-71510247D02*
X144267904Y-71129295D01*
X144267904Y-71129295D02*
X144220285Y-71034057D01*
X144220285Y-71034057D02*
X144172666Y-70986438D01*
X144172666Y-70986438D02*
X144077428Y-70938819D01*
X144077428Y-70938819D02*
X143886952Y-70938819D01*
X143886952Y-70938819D02*
X143791714Y-70986438D01*
X143791714Y-70986438D02*
X143744095Y-71034057D01*
X143744095Y-71034057D02*
X143696476Y-71129295D01*
X143696476Y-71129295D02*
X143696476Y-71367390D01*
X143696476Y-71367390D02*
X143744095Y-71462628D01*
X143744095Y-71462628D02*
X143791714Y-71510247D01*
X143791714Y-71510247D02*
X143886952Y-71557866D01*
X143886952Y-71557866D02*
X144077428Y-71557866D01*
X144077428Y-71557866D02*
X144172666Y-71510247D01*
X144172666Y-71510247D02*
X144220285Y-71462628D01*
X144220285Y-71462628D02*
X144267904Y-71367390D01*
X77053333Y-82511580D02*
X77005714Y-82559200D01*
X77005714Y-82559200D02*
X76862857Y-82606819D01*
X76862857Y-82606819D02*
X76767619Y-82606819D01*
X76767619Y-82606819D02*
X76624762Y-82559200D01*
X76624762Y-82559200D02*
X76529524Y-82463961D01*
X76529524Y-82463961D02*
X76481905Y-82368723D01*
X76481905Y-82368723D02*
X76434286Y-82178247D01*
X76434286Y-82178247D02*
X76434286Y-82035390D01*
X76434286Y-82035390D02*
X76481905Y-81844914D01*
X76481905Y-81844914D02*
X76529524Y-81749676D01*
X76529524Y-81749676D02*
X76624762Y-81654438D01*
X76624762Y-81654438D02*
X76767619Y-81606819D01*
X76767619Y-81606819D02*
X76862857Y-81606819D01*
X76862857Y-81606819D02*
X77005714Y-81654438D01*
X77005714Y-81654438D02*
X77053333Y-81702057D01*
X77624762Y-82035390D02*
X77529524Y-81987771D01*
X77529524Y-81987771D02*
X77481905Y-81940152D01*
X77481905Y-81940152D02*
X77434286Y-81844914D01*
X77434286Y-81844914D02*
X77434286Y-81797295D01*
X77434286Y-81797295D02*
X77481905Y-81702057D01*
X77481905Y-81702057D02*
X77529524Y-81654438D01*
X77529524Y-81654438D02*
X77624762Y-81606819D01*
X77624762Y-81606819D02*
X77815238Y-81606819D01*
X77815238Y-81606819D02*
X77910476Y-81654438D01*
X77910476Y-81654438D02*
X77958095Y-81702057D01*
X77958095Y-81702057D02*
X78005714Y-81797295D01*
X78005714Y-81797295D02*
X78005714Y-81844914D01*
X78005714Y-81844914D02*
X77958095Y-81940152D01*
X77958095Y-81940152D02*
X77910476Y-81987771D01*
X77910476Y-81987771D02*
X77815238Y-82035390D01*
X77815238Y-82035390D02*
X77624762Y-82035390D01*
X77624762Y-82035390D02*
X77529524Y-82083009D01*
X77529524Y-82083009D02*
X77481905Y-82130628D01*
X77481905Y-82130628D02*
X77434286Y-82225866D01*
X77434286Y-82225866D02*
X77434286Y-82416342D01*
X77434286Y-82416342D02*
X77481905Y-82511580D01*
X77481905Y-82511580D02*
X77529524Y-82559200D01*
X77529524Y-82559200D02*
X77624762Y-82606819D01*
X77624762Y-82606819D02*
X77815238Y-82606819D01*
X77815238Y-82606819D02*
X77910476Y-82559200D01*
X77910476Y-82559200D02*
X77958095Y-82511580D01*
X77958095Y-82511580D02*
X78005714Y-82416342D01*
X78005714Y-82416342D02*
X78005714Y-82225866D01*
X78005714Y-82225866D02*
X77958095Y-82130628D01*
X77958095Y-82130628D02*
X77910476Y-82083009D01*
X77910476Y-82083009D02*
X77815238Y-82035390D01*
X64584819Y-81977333D02*
X65299104Y-81977333D01*
X65299104Y-81977333D02*
X65441961Y-82024952D01*
X65441961Y-82024952D02*
X65537200Y-82120190D01*
X65537200Y-82120190D02*
X65584819Y-82263047D01*
X65584819Y-82263047D02*
X65584819Y-82358285D01*
X64584819Y-81072571D02*
X64584819Y-81263047D01*
X64584819Y-81263047D02*
X64632438Y-81358285D01*
X64632438Y-81358285D02*
X64680057Y-81405904D01*
X64680057Y-81405904D02*
X64822914Y-81501142D01*
X64822914Y-81501142D02*
X65013390Y-81548761D01*
X65013390Y-81548761D02*
X65394342Y-81548761D01*
X65394342Y-81548761D02*
X65489580Y-81501142D01*
X65489580Y-81501142D02*
X65537200Y-81453523D01*
X65537200Y-81453523D02*
X65584819Y-81358285D01*
X65584819Y-81358285D02*
X65584819Y-81167809D01*
X65584819Y-81167809D02*
X65537200Y-81072571D01*
X65537200Y-81072571D02*
X65489580Y-81024952D01*
X65489580Y-81024952D02*
X65394342Y-80977333D01*
X65394342Y-80977333D02*
X65156247Y-80977333D01*
X65156247Y-80977333D02*
X65061009Y-81024952D01*
X65061009Y-81024952D02*
X65013390Y-81072571D01*
X65013390Y-81072571D02*
X64965771Y-81167809D01*
X64965771Y-81167809D02*
X64965771Y-81358285D01*
X64965771Y-81358285D02*
X65013390Y-81453523D01*
X65013390Y-81453523D02*
X65061009Y-81501142D01*
X65061009Y-81501142D02*
X65156247Y-81548761D01*
X142363142Y-54666819D02*
X142029809Y-54190628D01*
X141791714Y-54666819D02*
X141791714Y-53666819D01*
X141791714Y-53666819D02*
X142172666Y-53666819D01*
X142172666Y-53666819D02*
X142267904Y-53714438D01*
X142267904Y-53714438D02*
X142315523Y-53762057D01*
X142315523Y-53762057D02*
X142363142Y-53857295D01*
X142363142Y-53857295D02*
X142363142Y-54000152D01*
X142363142Y-54000152D02*
X142315523Y-54095390D01*
X142315523Y-54095390D02*
X142267904Y-54143009D01*
X142267904Y-54143009D02*
X142172666Y-54190628D01*
X142172666Y-54190628D02*
X141791714Y-54190628D01*
X142696476Y-53666819D02*
X143315523Y-53666819D01*
X143315523Y-53666819D02*
X142982190Y-54047771D01*
X142982190Y-54047771D02*
X143125047Y-54047771D01*
X143125047Y-54047771D02*
X143220285Y-54095390D01*
X143220285Y-54095390D02*
X143267904Y-54143009D01*
X143267904Y-54143009D02*
X143315523Y-54238247D01*
X143315523Y-54238247D02*
X143315523Y-54476342D01*
X143315523Y-54476342D02*
X143267904Y-54571580D01*
X143267904Y-54571580D02*
X143220285Y-54619200D01*
X143220285Y-54619200D02*
X143125047Y-54666819D01*
X143125047Y-54666819D02*
X142839333Y-54666819D01*
X142839333Y-54666819D02*
X142744095Y-54619200D01*
X142744095Y-54619200D02*
X142696476Y-54571580D01*
X143696476Y-53762057D02*
X143744095Y-53714438D01*
X143744095Y-53714438D02*
X143839333Y-53666819D01*
X143839333Y-53666819D02*
X144077428Y-53666819D01*
X144077428Y-53666819D02*
X144172666Y-53714438D01*
X144172666Y-53714438D02*
X144220285Y-53762057D01*
X144220285Y-53762057D02*
X144267904Y-53857295D01*
X144267904Y-53857295D02*
X144267904Y-53952533D01*
X144267904Y-53952533D02*
X144220285Y-54095390D01*
X144220285Y-54095390D02*
X143648857Y-54666819D01*
X143648857Y-54666819D02*
X144267904Y-54666819D01*
X142363142Y-91496819D02*
X142029809Y-91020628D01*
X141791714Y-91496819D02*
X141791714Y-90496819D01*
X141791714Y-90496819D02*
X142172666Y-90496819D01*
X142172666Y-90496819D02*
X142267904Y-90544438D01*
X142267904Y-90544438D02*
X142315523Y-90592057D01*
X142315523Y-90592057D02*
X142363142Y-90687295D01*
X142363142Y-90687295D02*
X142363142Y-90830152D01*
X142363142Y-90830152D02*
X142315523Y-90925390D01*
X142315523Y-90925390D02*
X142267904Y-90973009D01*
X142267904Y-90973009D02*
X142172666Y-91020628D01*
X142172666Y-91020628D02*
X141791714Y-91020628D01*
X142696476Y-90496819D02*
X143315523Y-90496819D01*
X143315523Y-90496819D02*
X142982190Y-90877771D01*
X142982190Y-90877771D02*
X143125047Y-90877771D01*
X143125047Y-90877771D02*
X143220285Y-90925390D01*
X143220285Y-90925390D02*
X143267904Y-90973009D01*
X143267904Y-90973009D02*
X143315523Y-91068247D01*
X143315523Y-91068247D02*
X143315523Y-91306342D01*
X143315523Y-91306342D02*
X143267904Y-91401580D01*
X143267904Y-91401580D02*
X143220285Y-91449200D01*
X143220285Y-91449200D02*
X143125047Y-91496819D01*
X143125047Y-91496819D02*
X142839333Y-91496819D01*
X142839333Y-91496819D02*
X142744095Y-91449200D01*
X142744095Y-91449200D02*
X142696476Y-91401580D01*
X143934571Y-90496819D02*
X144029809Y-90496819D01*
X144029809Y-90496819D02*
X144125047Y-90544438D01*
X144125047Y-90544438D02*
X144172666Y-90592057D01*
X144172666Y-90592057D02*
X144220285Y-90687295D01*
X144220285Y-90687295D02*
X144267904Y-90877771D01*
X144267904Y-90877771D02*
X144267904Y-91115866D01*
X144267904Y-91115866D02*
X144220285Y-91306342D01*
X144220285Y-91306342D02*
X144172666Y-91401580D01*
X144172666Y-91401580D02*
X144125047Y-91449200D01*
X144125047Y-91449200D02*
X144029809Y-91496819D01*
X144029809Y-91496819D02*
X143934571Y-91496819D01*
X143934571Y-91496819D02*
X143839333Y-91449200D01*
X143839333Y-91449200D02*
X143791714Y-91401580D01*
X143791714Y-91401580D02*
X143744095Y-91306342D01*
X143744095Y-91306342D02*
X143696476Y-91115866D01*
X143696476Y-91115866D02*
X143696476Y-90877771D01*
X143696476Y-90877771D02*
X143744095Y-90687295D01*
X143744095Y-90687295D02*
X143791714Y-90592057D01*
X143791714Y-90592057D02*
X143839333Y-90544438D01*
X143839333Y-90544438D02*
X143934571Y-90496819D01*
X77728095Y-143836819D02*
X77728095Y-144646342D01*
X77728095Y-144646342D02*
X77775714Y-144741580D01*
X77775714Y-144741580D02*
X77823333Y-144789200D01*
X77823333Y-144789200D02*
X77918571Y-144836819D01*
X77918571Y-144836819D02*
X78109047Y-144836819D01*
X78109047Y-144836819D02*
X78204285Y-144789200D01*
X78204285Y-144789200D02*
X78251904Y-144741580D01*
X78251904Y-144741580D02*
X78299523Y-144646342D01*
X78299523Y-144646342D02*
X78299523Y-143836819D01*
X79299523Y-144836819D02*
X78728095Y-144836819D01*
X79013809Y-144836819D02*
X79013809Y-143836819D01*
X79013809Y-143836819D02*
X78918571Y-143979676D01*
X78918571Y-143979676D02*
X78823333Y-144074914D01*
X78823333Y-144074914D02*
X78728095Y-144122533D01*
X99746666Y-140686819D02*
X99746666Y-141401104D01*
X99746666Y-141401104D02*
X99699047Y-141543961D01*
X99699047Y-141543961D02*
X99603809Y-141639200D01*
X99603809Y-141639200D02*
X99460952Y-141686819D01*
X99460952Y-141686819D02*
X99365714Y-141686819D01*
X100746666Y-141686819D02*
X100175238Y-141686819D01*
X100460952Y-141686819D02*
X100460952Y-140686819D01*
X100460952Y-140686819D02*
X100365714Y-140829676D01*
X100365714Y-140829676D02*
X100270476Y-140924914D01*
X100270476Y-140924914D02*
X100175238Y-140972533D01*
X142363142Y-68636819D02*
X142029809Y-68160628D01*
X141791714Y-68636819D02*
X141791714Y-67636819D01*
X141791714Y-67636819D02*
X142172666Y-67636819D01*
X142172666Y-67636819D02*
X142267904Y-67684438D01*
X142267904Y-67684438D02*
X142315523Y-67732057D01*
X142315523Y-67732057D02*
X142363142Y-67827295D01*
X142363142Y-67827295D02*
X142363142Y-67970152D01*
X142363142Y-67970152D02*
X142315523Y-68065390D01*
X142315523Y-68065390D02*
X142267904Y-68113009D01*
X142267904Y-68113009D02*
X142172666Y-68160628D01*
X142172666Y-68160628D02*
X141791714Y-68160628D01*
X142696476Y-67636819D02*
X143315523Y-67636819D01*
X143315523Y-67636819D02*
X142982190Y-68017771D01*
X142982190Y-68017771D02*
X143125047Y-68017771D01*
X143125047Y-68017771D02*
X143220285Y-68065390D01*
X143220285Y-68065390D02*
X143267904Y-68113009D01*
X143267904Y-68113009D02*
X143315523Y-68208247D01*
X143315523Y-68208247D02*
X143315523Y-68446342D01*
X143315523Y-68446342D02*
X143267904Y-68541580D01*
X143267904Y-68541580D02*
X143220285Y-68589200D01*
X143220285Y-68589200D02*
X143125047Y-68636819D01*
X143125047Y-68636819D02*
X142839333Y-68636819D01*
X142839333Y-68636819D02*
X142744095Y-68589200D01*
X142744095Y-68589200D02*
X142696476Y-68541580D01*
X143648857Y-67636819D02*
X144315523Y-67636819D01*
X144315523Y-67636819D02*
X143886952Y-68636819D01*
X85181333Y-141693580D02*
X85133714Y-141741200D01*
X85133714Y-141741200D02*
X84990857Y-141788819D01*
X84990857Y-141788819D02*
X84895619Y-141788819D01*
X84895619Y-141788819D02*
X84752762Y-141741200D01*
X84752762Y-141741200D02*
X84657524Y-141645961D01*
X84657524Y-141645961D02*
X84609905Y-141550723D01*
X84609905Y-141550723D02*
X84562286Y-141360247D01*
X84562286Y-141360247D02*
X84562286Y-141217390D01*
X84562286Y-141217390D02*
X84609905Y-141026914D01*
X84609905Y-141026914D02*
X84657524Y-140931676D01*
X84657524Y-140931676D02*
X84752762Y-140836438D01*
X84752762Y-140836438D02*
X84895619Y-140788819D01*
X84895619Y-140788819D02*
X84990857Y-140788819D01*
X84990857Y-140788819D02*
X85133714Y-140836438D01*
X85133714Y-140836438D02*
X85181333Y-140884057D01*
X86038476Y-140788819D02*
X85848000Y-140788819D01*
X85848000Y-140788819D02*
X85752762Y-140836438D01*
X85752762Y-140836438D02*
X85705143Y-140884057D01*
X85705143Y-140884057D02*
X85609905Y-141026914D01*
X85609905Y-141026914D02*
X85562286Y-141217390D01*
X85562286Y-141217390D02*
X85562286Y-141598342D01*
X85562286Y-141598342D02*
X85609905Y-141693580D01*
X85609905Y-141693580D02*
X85657524Y-141741200D01*
X85657524Y-141741200D02*
X85752762Y-141788819D01*
X85752762Y-141788819D02*
X85943238Y-141788819D01*
X85943238Y-141788819D02*
X86038476Y-141741200D01*
X86038476Y-141741200D02*
X86086095Y-141693580D01*
X86086095Y-141693580D02*
X86133714Y-141598342D01*
X86133714Y-141598342D02*
X86133714Y-141360247D01*
X86133714Y-141360247D02*
X86086095Y-141265009D01*
X86086095Y-141265009D02*
X86038476Y-141217390D01*
X86038476Y-141217390D02*
X85943238Y-141169771D01*
X85943238Y-141169771D02*
X85752762Y-141169771D01*
X85752762Y-141169771D02*
X85657524Y-141217390D01*
X85657524Y-141217390D02*
X85609905Y-141265009D01*
X85609905Y-141265009D02*
X85562286Y-141360247D01*
X73529142Y-71938819D02*
X73195809Y-71462628D01*
X72957714Y-71938819D02*
X72957714Y-70938819D01*
X72957714Y-70938819D02*
X73338666Y-70938819D01*
X73338666Y-70938819D02*
X73433904Y-70986438D01*
X73433904Y-70986438D02*
X73481523Y-71034057D01*
X73481523Y-71034057D02*
X73529142Y-71129295D01*
X73529142Y-71129295D02*
X73529142Y-71272152D01*
X73529142Y-71272152D02*
X73481523Y-71367390D01*
X73481523Y-71367390D02*
X73433904Y-71415009D01*
X73433904Y-71415009D02*
X73338666Y-71462628D01*
X73338666Y-71462628D02*
X72957714Y-71462628D01*
X74481523Y-71938819D02*
X73910095Y-71938819D01*
X74195809Y-71938819D02*
X74195809Y-70938819D01*
X74195809Y-70938819D02*
X74100571Y-71081676D01*
X74100571Y-71081676D02*
X74005333Y-71176914D01*
X74005333Y-71176914D02*
X73910095Y-71224533D01*
X75433904Y-71938819D02*
X74862476Y-71938819D01*
X75148190Y-71938819D02*
X75148190Y-70938819D01*
X75148190Y-70938819D02*
X75052952Y-71081676D01*
X75052952Y-71081676D02*
X74957714Y-71176914D01*
X74957714Y-71176914D02*
X74862476Y-71224533D01*
X73529142Y-57968819D02*
X73195809Y-57492628D01*
X72957714Y-57968819D02*
X72957714Y-56968819D01*
X72957714Y-56968819D02*
X73338666Y-56968819D01*
X73338666Y-56968819D02*
X73433904Y-57016438D01*
X73433904Y-57016438D02*
X73481523Y-57064057D01*
X73481523Y-57064057D02*
X73529142Y-57159295D01*
X73529142Y-57159295D02*
X73529142Y-57302152D01*
X73529142Y-57302152D02*
X73481523Y-57397390D01*
X73481523Y-57397390D02*
X73433904Y-57445009D01*
X73433904Y-57445009D02*
X73338666Y-57492628D01*
X73338666Y-57492628D02*
X72957714Y-57492628D01*
X73910095Y-57064057D02*
X73957714Y-57016438D01*
X73957714Y-57016438D02*
X74052952Y-56968819D01*
X74052952Y-56968819D02*
X74291047Y-56968819D01*
X74291047Y-56968819D02*
X74386285Y-57016438D01*
X74386285Y-57016438D02*
X74433904Y-57064057D01*
X74433904Y-57064057D02*
X74481523Y-57159295D01*
X74481523Y-57159295D02*
X74481523Y-57254533D01*
X74481523Y-57254533D02*
X74433904Y-57397390D01*
X74433904Y-57397390D02*
X73862476Y-57968819D01*
X73862476Y-57968819D02*
X74481523Y-57968819D01*
X75433904Y-57968819D02*
X74862476Y-57968819D01*
X75148190Y-57968819D02*
X75148190Y-56968819D01*
X75148190Y-56968819D02*
X75052952Y-57111676D01*
X75052952Y-57111676D02*
X74957714Y-57206914D01*
X74957714Y-57206914D02*
X74862476Y-57254533D01*
X73529142Y-99370819D02*
X73195809Y-98894628D01*
X72957714Y-99370819D02*
X72957714Y-98370819D01*
X72957714Y-98370819D02*
X73338666Y-98370819D01*
X73338666Y-98370819D02*
X73433904Y-98418438D01*
X73433904Y-98418438D02*
X73481523Y-98466057D01*
X73481523Y-98466057D02*
X73529142Y-98561295D01*
X73529142Y-98561295D02*
X73529142Y-98704152D01*
X73529142Y-98704152D02*
X73481523Y-98799390D01*
X73481523Y-98799390D02*
X73433904Y-98847009D01*
X73433904Y-98847009D02*
X73338666Y-98894628D01*
X73338666Y-98894628D02*
X72957714Y-98894628D01*
X73910095Y-98466057D02*
X73957714Y-98418438D01*
X73957714Y-98418438D02*
X74052952Y-98370819D01*
X74052952Y-98370819D02*
X74291047Y-98370819D01*
X74291047Y-98370819D02*
X74386285Y-98418438D01*
X74386285Y-98418438D02*
X74433904Y-98466057D01*
X74433904Y-98466057D02*
X74481523Y-98561295D01*
X74481523Y-98561295D02*
X74481523Y-98656533D01*
X74481523Y-98656533D02*
X74433904Y-98799390D01*
X74433904Y-98799390D02*
X73862476Y-99370819D01*
X73862476Y-99370819D02*
X74481523Y-99370819D01*
X74814857Y-98370819D02*
X75433904Y-98370819D01*
X75433904Y-98370819D02*
X75100571Y-98751771D01*
X75100571Y-98751771D02*
X75243428Y-98751771D01*
X75243428Y-98751771D02*
X75338666Y-98799390D01*
X75338666Y-98799390D02*
X75386285Y-98847009D01*
X75386285Y-98847009D02*
X75433904Y-98942247D01*
X75433904Y-98942247D02*
X75433904Y-99180342D01*
X75433904Y-99180342D02*
X75386285Y-99275580D01*
X75386285Y-99275580D02*
X75338666Y-99323200D01*
X75338666Y-99323200D02*
X75243428Y-99370819D01*
X75243428Y-99370819D02*
X74957714Y-99370819D01*
X74957714Y-99370819D02*
X74862476Y-99323200D01*
X74862476Y-99323200D02*
X74814857Y-99275580D01*
X73529142Y-107244819D02*
X73195809Y-106768628D01*
X72957714Y-107244819D02*
X72957714Y-106244819D01*
X72957714Y-106244819D02*
X73338666Y-106244819D01*
X73338666Y-106244819D02*
X73433904Y-106292438D01*
X73433904Y-106292438D02*
X73481523Y-106340057D01*
X73481523Y-106340057D02*
X73529142Y-106435295D01*
X73529142Y-106435295D02*
X73529142Y-106578152D01*
X73529142Y-106578152D02*
X73481523Y-106673390D01*
X73481523Y-106673390D02*
X73433904Y-106721009D01*
X73433904Y-106721009D02*
X73338666Y-106768628D01*
X73338666Y-106768628D02*
X72957714Y-106768628D01*
X74481523Y-107244819D02*
X73910095Y-107244819D01*
X74195809Y-107244819D02*
X74195809Y-106244819D01*
X74195809Y-106244819D02*
X74100571Y-106387676D01*
X74100571Y-106387676D02*
X74005333Y-106482914D01*
X74005333Y-106482914D02*
X73910095Y-106530533D01*
X75338666Y-106244819D02*
X75148190Y-106244819D01*
X75148190Y-106244819D02*
X75052952Y-106292438D01*
X75052952Y-106292438D02*
X75005333Y-106340057D01*
X75005333Y-106340057D02*
X74910095Y-106482914D01*
X74910095Y-106482914D02*
X74862476Y-106673390D01*
X74862476Y-106673390D02*
X74862476Y-107054342D01*
X74862476Y-107054342D02*
X74910095Y-107149580D01*
X74910095Y-107149580D02*
X74957714Y-107197200D01*
X74957714Y-107197200D02*
X75052952Y-107244819D01*
X75052952Y-107244819D02*
X75243428Y-107244819D01*
X75243428Y-107244819D02*
X75338666Y-107197200D01*
X75338666Y-107197200D02*
X75386285Y-107149580D01*
X75386285Y-107149580D02*
X75433904Y-107054342D01*
X75433904Y-107054342D02*
X75433904Y-106816247D01*
X75433904Y-106816247D02*
X75386285Y-106721009D01*
X75386285Y-106721009D02*
X75338666Y-106673390D01*
X75338666Y-106673390D02*
X75243428Y-106625771D01*
X75243428Y-106625771D02*
X75052952Y-106625771D01*
X75052952Y-106625771D02*
X74957714Y-106673390D01*
X74957714Y-106673390D02*
X74910095Y-106721009D01*
X74910095Y-106721009D02*
X74862476Y-106816247D01*
X125313333Y-141280819D02*
X124980000Y-140804628D01*
X124741905Y-141280819D02*
X124741905Y-140280819D01*
X124741905Y-140280819D02*
X125122857Y-140280819D01*
X125122857Y-140280819D02*
X125218095Y-140328438D01*
X125218095Y-140328438D02*
X125265714Y-140376057D01*
X125265714Y-140376057D02*
X125313333Y-140471295D01*
X125313333Y-140471295D02*
X125313333Y-140614152D01*
X125313333Y-140614152D02*
X125265714Y-140709390D01*
X125265714Y-140709390D02*
X125218095Y-140757009D01*
X125218095Y-140757009D02*
X125122857Y-140804628D01*
X125122857Y-140804628D02*
X124741905Y-140804628D01*
X126218095Y-140280819D02*
X125741905Y-140280819D01*
X125741905Y-140280819D02*
X125694286Y-140757009D01*
X125694286Y-140757009D02*
X125741905Y-140709390D01*
X125741905Y-140709390D02*
X125837143Y-140661771D01*
X125837143Y-140661771D02*
X126075238Y-140661771D01*
X126075238Y-140661771D02*
X126170476Y-140709390D01*
X126170476Y-140709390D02*
X126218095Y-140757009D01*
X126218095Y-140757009D02*
X126265714Y-140852247D01*
X126265714Y-140852247D02*
X126265714Y-141090342D01*
X126265714Y-141090342D02*
X126218095Y-141185580D01*
X126218095Y-141185580D02*
X126170476Y-141233200D01*
X126170476Y-141233200D02*
X126075238Y-141280819D01*
X126075238Y-141280819D02*
X125837143Y-141280819D01*
X125837143Y-141280819D02*
X125741905Y-141233200D01*
X125741905Y-141233200D02*
X125694286Y-141185580D01*
X66738810Y-114134819D02*
X66738810Y-113134819D01*
X67786428Y-114039580D02*
X67738809Y-114087200D01*
X67738809Y-114087200D02*
X67595952Y-114134819D01*
X67595952Y-114134819D02*
X67500714Y-114134819D01*
X67500714Y-114134819D02*
X67357857Y-114087200D01*
X67357857Y-114087200D02*
X67262619Y-113991961D01*
X67262619Y-113991961D02*
X67215000Y-113896723D01*
X67215000Y-113896723D02*
X67167381Y-113706247D01*
X67167381Y-113706247D02*
X67167381Y-113563390D01*
X67167381Y-113563390D02*
X67215000Y-113372914D01*
X67215000Y-113372914D02*
X67262619Y-113277676D01*
X67262619Y-113277676D02*
X67357857Y-113182438D01*
X67357857Y-113182438D02*
X67500714Y-113134819D01*
X67500714Y-113134819D02*
X67595952Y-113134819D01*
X67595952Y-113134819D02*
X67738809Y-113182438D01*
X67738809Y-113182438D02*
X67786428Y-113230057D01*
X68167381Y-113230057D02*
X68215000Y-113182438D01*
X68215000Y-113182438D02*
X68310238Y-113134819D01*
X68310238Y-113134819D02*
X68548333Y-113134819D01*
X68548333Y-113134819D02*
X68643571Y-113182438D01*
X68643571Y-113182438D02*
X68691190Y-113230057D01*
X68691190Y-113230057D02*
X68738809Y-113325295D01*
X68738809Y-113325295D02*
X68738809Y-113420533D01*
X68738809Y-113420533D02*
X68691190Y-113563390D01*
X68691190Y-113563390D02*
X68119762Y-114134819D01*
X68119762Y-114134819D02*
X68738809Y-114134819D01*
X142363142Y-57968819D02*
X142029809Y-57492628D01*
X141791714Y-57968819D02*
X141791714Y-56968819D01*
X141791714Y-56968819D02*
X142172666Y-56968819D01*
X142172666Y-56968819D02*
X142267904Y-57016438D01*
X142267904Y-57016438D02*
X142315523Y-57064057D01*
X142315523Y-57064057D02*
X142363142Y-57159295D01*
X142363142Y-57159295D02*
X142363142Y-57302152D01*
X142363142Y-57302152D02*
X142315523Y-57397390D01*
X142315523Y-57397390D02*
X142267904Y-57445009D01*
X142267904Y-57445009D02*
X142172666Y-57492628D01*
X142172666Y-57492628D02*
X141791714Y-57492628D01*
X142696476Y-56968819D02*
X143315523Y-56968819D01*
X143315523Y-56968819D02*
X142982190Y-57349771D01*
X142982190Y-57349771D02*
X143125047Y-57349771D01*
X143125047Y-57349771D02*
X143220285Y-57397390D01*
X143220285Y-57397390D02*
X143267904Y-57445009D01*
X143267904Y-57445009D02*
X143315523Y-57540247D01*
X143315523Y-57540247D02*
X143315523Y-57778342D01*
X143315523Y-57778342D02*
X143267904Y-57873580D01*
X143267904Y-57873580D02*
X143220285Y-57921200D01*
X143220285Y-57921200D02*
X143125047Y-57968819D01*
X143125047Y-57968819D02*
X142839333Y-57968819D01*
X142839333Y-57968819D02*
X142744095Y-57921200D01*
X142744095Y-57921200D02*
X142696476Y-57873580D01*
X144267904Y-57968819D02*
X143696476Y-57968819D01*
X143982190Y-57968819D02*
X143982190Y-56968819D01*
X143982190Y-56968819D02*
X143886952Y-57111676D01*
X143886952Y-57111676D02*
X143791714Y-57206914D01*
X143791714Y-57206914D02*
X143696476Y-57254533D01*
X139823142Y-82511580D02*
X139775523Y-82559200D01*
X139775523Y-82559200D02*
X139632666Y-82606819D01*
X139632666Y-82606819D02*
X139537428Y-82606819D01*
X139537428Y-82606819D02*
X139394571Y-82559200D01*
X139394571Y-82559200D02*
X139299333Y-82463961D01*
X139299333Y-82463961D02*
X139251714Y-82368723D01*
X139251714Y-82368723D02*
X139204095Y-82178247D01*
X139204095Y-82178247D02*
X139204095Y-82035390D01*
X139204095Y-82035390D02*
X139251714Y-81844914D01*
X139251714Y-81844914D02*
X139299333Y-81749676D01*
X139299333Y-81749676D02*
X139394571Y-81654438D01*
X139394571Y-81654438D02*
X139537428Y-81606819D01*
X139537428Y-81606819D02*
X139632666Y-81606819D01*
X139632666Y-81606819D02*
X139775523Y-81654438D01*
X139775523Y-81654438D02*
X139823142Y-81702057D01*
X140775523Y-82606819D02*
X140204095Y-82606819D01*
X140489809Y-82606819D02*
X140489809Y-81606819D01*
X140489809Y-81606819D02*
X140394571Y-81749676D01*
X140394571Y-81749676D02*
X140299333Y-81844914D01*
X140299333Y-81844914D02*
X140204095Y-81892533D01*
X141156476Y-81702057D02*
X141204095Y-81654438D01*
X141204095Y-81654438D02*
X141299333Y-81606819D01*
X141299333Y-81606819D02*
X141537428Y-81606819D01*
X141537428Y-81606819D02*
X141632666Y-81654438D01*
X141632666Y-81654438D02*
X141680285Y-81702057D01*
X141680285Y-81702057D02*
X141727904Y-81797295D01*
X141727904Y-81797295D02*
X141727904Y-81892533D01*
X141727904Y-81892533D02*
X141680285Y-82035390D01*
X141680285Y-82035390D02*
X141108857Y-82606819D01*
X141108857Y-82606819D02*
X141727904Y-82606819D01*
X74513333Y-78034819D02*
X74180000Y-77558628D01*
X73941905Y-78034819D02*
X73941905Y-77034819D01*
X73941905Y-77034819D02*
X74322857Y-77034819D01*
X74322857Y-77034819D02*
X74418095Y-77082438D01*
X74418095Y-77082438D02*
X74465714Y-77130057D01*
X74465714Y-77130057D02*
X74513333Y-77225295D01*
X74513333Y-77225295D02*
X74513333Y-77368152D01*
X74513333Y-77368152D02*
X74465714Y-77463390D01*
X74465714Y-77463390D02*
X74418095Y-77511009D01*
X74418095Y-77511009D02*
X74322857Y-77558628D01*
X74322857Y-77558628D02*
X73941905Y-77558628D01*
X74846667Y-77034819D02*
X75513333Y-77034819D01*
X75513333Y-77034819D02*
X75084762Y-78034819D01*
X148484810Y-96614819D02*
X148484810Y-95614819D01*
X149532428Y-96519580D02*
X149484809Y-96567200D01*
X149484809Y-96567200D02*
X149341952Y-96614819D01*
X149341952Y-96614819D02*
X149246714Y-96614819D01*
X149246714Y-96614819D02*
X149103857Y-96567200D01*
X149103857Y-96567200D02*
X149008619Y-96471961D01*
X149008619Y-96471961D02*
X148961000Y-96376723D01*
X148961000Y-96376723D02*
X148913381Y-96186247D01*
X148913381Y-96186247D02*
X148913381Y-96043390D01*
X148913381Y-96043390D02*
X148961000Y-95852914D01*
X148961000Y-95852914D02*
X149008619Y-95757676D01*
X149008619Y-95757676D02*
X149103857Y-95662438D01*
X149103857Y-95662438D02*
X149246714Y-95614819D01*
X149246714Y-95614819D02*
X149341952Y-95614819D01*
X149341952Y-95614819D02*
X149484809Y-95662438D01*
X149484809Y-95662438D02*
X149532428Y-95710057D01*
X150389571Y-95614819D02*
X150199095Y-95614819D01*
X150199095Y-95614819D02*
X150103857Y-95662438D01*
X150103857Y-95662438D02*
X150056238Y-95710057D01*
X150056238Y-95710057D02*
X149961000Y-95852914D01*
X149961000Y-95852914D02*
X149913381Y-96043390D01*
X149913381Y-96043390D02*
X149913381Y-96424342D01*
X149913381Y-96424342D02*
X149961000Y-96519580D01*
X149961000Y-96519580D02*
X150008619Y-96567200D01*
X150008619Y-96567200D02*
X150103857Y-96614819D01*
X150103857Y-96614819D02*
X150294333Y-96614819D01*
X150294333Y-96614819D02*
X150389571Y-96567200D01*
X150389571Y-96567200D02*
X150437190Y-96519580D01*
X150437190Y-96519580D02*
X150484809Y-96424342D01*
X150484809Y-96424342D02*
X150484809Y-96186247D01*
X150484809Y-96186247D02*
X150437190Y-96091009D01*
X150437190Y-96091009D02*
X150389571Y-96043390D01*
X150389571Y-96043390D02*
X150294333Y-95995771D01*
X150294333Y-95995771D02*
X150103857Y-95995771D01*
X150103857Y-95995771D02*
X150008619Y-96043390D01*
X150008619Y-96043390D02*
X149961000Y-96091009D01*
X149961000Y-96091009D02*
X149913381Y-96186247D01*
X73529142Y-113340819D02*
X73195809Y-112864628D01*
X72957714Y-113340819D02*
X72957714Y-112340819D01*
X72957714Y-112340819D02*
X73338666Y-112340819D01*
X73338666Y-112340819D02*
X73433904Y-112388438D01*
X73433904Y-112388438D02*
X73481523Y-112436057D01*
X73481523Y-112436057D02*
X73529142Y-112531295D01*
X73529142Y-112531295D02*
X73529142Y-112674152D01*
X73529142Y-112674152D02*
X73481523Y-112769390D01*
X73481523Y-112769390D02*
X73433904Y-112817009D01*
X73433904Y-112817009D02*
X73338666Y-112864628D01*
X73338666Y-112864628D02*
X72957714Y-112864628D01*
X74481523Y-113340819D02*
X73910095Y-113340819D01*
X74195809Y-113340819D02*
X74195809Y-112340819D01*
X74195809Y-112340819D02*
X74100571Y-112483676D01*
X74100571Y-112483676D02*
X74005333Y-112578914D01*
X74005333Y-112578914D02*
X73910095Y-112626533D01*
X75052952Y-112769390D02*
X74957714Y-112721771D01*
X74957714Y-112721771D02*
X74910095Y-112674152D01*
X74910095Y-112674152D02*
X74862476Y-112578914D01*
X74862476Y-112578914D02*
X74862476Y-112531295D01*
X74862476Y-112531295D02*
X74910095Y-112436057D01*
X74910095Y-112436057D02*
X74957714Y-112388438D01*
X74957714Y-112388438D02*
X75052952Y-112340819D01*
X75052952Y-112340819D02*
X75243428Y-112340819D01*
X75243428Y-112340819D02*
X75338666Y-112388438D01*
X75338666Y-112388438D02*
X75386285Y-112436057D01*
X75386285Y-112436057D02*
X75433904Y-112531295D01*
X75433904Y-112531295D02*
X75433904Y-112578914D01*
X75433904Y-112578914D02*
X75386285Y-112674152D01*
X75386285Y-112674152D02*
X75338666Y-112721771D01*
X75338666Y-112721771D02*
X75243428Y-112769390D01*
X75243428Y-112769390D02*
X75052952Y-112769390D01*
X75052952Y-112769390D02*
X74957714Y-112817009D01*
X74957714Y-112817009D02*
X74910095Y-112864628D01*
X74910095Y-112864628D02*
X74862476Y-112959866D01*
X74862476Y-112959866D02*
X74862476Y-113150342D01*
X74862476Y-113150342D02*
X74910095Y-113245580D01*
X74910095Y-113245580D02*
X74957714Y-113293200D01*
X74957714Y-113293200D02*
X75052952Y-113340819D01*
X75052952Y-113340819D02*
X75243428Y-113340819D01*
X75243428Y-113340819D02*
X75338666Y-113293200D01*
X75338666Y-113293200D02*
X75386285Y-113245580D01*
X75386285Y-113245580D02*
X75433904Y-113150342D01*
X75433904Y-113150342D02*
X75433904Y-112959866D01*
X75433904Y-112959866D02*
X75386285Y-112864628D01*
X75386285Y-112864628D02*
X75338666Y-112817009D01*
X75338666Y-112817009D02*
X75243428Y-112769390D01*
X142363142Y-74986819D02*
X142029809Y-74510628D01*
X141791714Y-74986819D02*
X141791714Y-73986819D01*
X141791714Y-73986819D02*
X142172666Y-73986819D01*
X142172666Y-73986819D02*
X142267904Y-74034438D01*
X142267904Y-74034438D02*
X142315523Y-74082057D01*
X142315523Y-74082057D02*
X142363142Y-74177295D01*
X142363142Y-74177295D02*
X142363142Y-74320152D01*
X142363142Y-74320152D02*
X142315523Y-74415390D01*
X142315523Y-74415390D02*
X142267904Y-74463009D01*
X142267904Y-74463009D02*
X142172666Y-74510628D01*
X142172666Y-74510628D02*
X141791714Y-74510628D01*
X142744095Y-74082057D02*
X142791714Y-74034438D01*
X142791714Y-74034438D02*
X142886952Y-73986819D01*
X142886952Y-73986819D02*
X143125047Y-73986819D01*
X143125047Y-73986819D02*
X143220285Y-74034438D01*
X143220285Y-74034438D02*
X143267904Y-74082057D01*
X143267904Y-74082057D02*
X143315523Y-74177295D01*
X143315523Y-74177295D02*
X143315523Y-74272533D01*
X143315523Y-74272533D02*
X143267904Y-74415390D01*
X143267904Y-74415390D02*
X142696476Y-74986819D01*
X142696476Y-74986819D02*
X143315523Y-74986819D01*
X143648857Y-73986819D02*
X144315523Y-73986819D01*
X144315523Y-73986819D02*
X143886952Y-74986819D01*
X68746833Y-59207580D02*
X68699214Y-59255200D01*
X68699214Y-59255200D02*
X68556357Y-59302819D01*
X68556357Y-59302819D02*
X68461119Y-59302819D01*
X68461119Y-59302819D02*
X68318262Y-59255200D01*
X68318262Y-59255200D02*
X68223024Y-59159961D01*
X68223024Y-59159961D02*
X68175405Y-59064723D01*
X68175405Y-59064723D02*
X68127786Y-58874247D01*
X68127786Y-58874247D02*
X68127786Y-58731390D01*
X68127786Y-58731390D02*
X68175405Y-58540914D01*
X68175405Y-58540914D02*
X68223024Y-58445676D01*
X68223024Y-58445676D02*
X68318262Y-58350438D01*
X68318262Y-58350438D02*
X68461119Y-58302819D01*
X68461119Y-58302819D02*
X68556357Y-58302819D01*
X68556357Y-58302819D02*
X68699214Y-58350438D01*
X68699214Y-58350438D02*
X68746833Y-58398057D01*
X69223024Y-59302819D02*
X69413500Y-59302819D01*
X69413500Y-59302819D02*
X69508738Y-59255200D01*
X69508738Y-59255200D02*
X69556357Y-59207580D01*
X69556357Y-59207580D02*
X69651595Y-59064723D01*
X69651595Y-59064723D02*
X69699214Y-58874247D01*
X69699214Y-58874247D02*
X69699214Y-58493295D01*
X69699214Y-58493295D02*
X69651595Y-58398057D01*
X69651595Y-58398057D02*
X69603976Y-58350438D01*
X69603976Y-58350438D02*
X69508738Y-58302819D01*
X69508738Y-58302819D02*
X69318262Y-58302819D01*
X69318262Y-58302819D02*
X69223024Y-58350438D01*
X69223024Y-58350438D02*
X69175405Y-58398057D01*
X69175405Y-58398057D02*
X69127786Y-58493295D01*
X69127786Y-58493295D02*
X69127786Y-58731390D01*
X69127786Y-58731390D02*
X69175405Y-58826628D01*
X69175405Y-58826628D02*
X69223024Y-58874247D01*
X69223024Y-58874247D02*
X69318262Y-58921866D01*
X69318262Y-58921866D02*
X69508738Y-58921866D01*
X69508738Y-58921866D02*
X69603976Y-58874247D01*
X69603976Y-58874247D02*
X69651595Y-58826628D01*
X69651595Y-58826628D02*
X69699214Y-58731390D01*
X142363142Y-78034819D02*
X142029809Y-77558628D01*
X141791714Y-78034819D02*
X141791714Y-77034819D01*
X141791714Y-77034819D02*
X142172666Y-77034819D01*
X142172666Y-77034819D02*
X142267904Y-77082438D01*
X142267904Y-77082438D02*
X142315523Y-77130057D01*
X142315523Y-77130057D02*
X142363142Y-77225295D01*
X142363142Y-77225295D02*
X142363142Y-77368152D01*
X142363142Y-77368152D02*
X142315523Y-77463390D01*
X142315523Y-77463390D02*
X142267904Y-77511009D01*
X142267904Y-77511009D02*
X142172666Y-77558628D01*
X142172666Y-77558628D02*
X141791714Y-77558628D01*
X142744095Y-77130057D02*
X142791714Y-77082438D01*
X142791714Y-77082438D02*
X142886952Y-77034819D01*
X142886952Y-77034819D02*
X143125047Y-77034819D01*
X143125047Y-77034819D02*
X143220285Y-77082438D01*
X143220285Y-77082438D02*
X143267904Y-77130057D01*
X143267904Y-77130057D02*
X143315523Y-77225295D01*
X143315523Y-77225295D02*
X143315523Y-77320533D01*
X143315523Y-77320533D02*
X143267904Y-77463390D01*
X143267904Y-77463390D02*
X142696476Y-78034819D01*
X142696476Y-78034819D02*
X143315523Y-78034819D01*
X144220285Y-77034819D02*
X143744095Y-77034819D01*
X143744095Y-77034819D02*
X143696476Y-77511009D01*
X143696476Y-77511009D02*
X143744095Y-77463390D01*
X143744095Y-77463390D02*
X143839333Y-77415771D01*
X143839333Y-77415771D02*
X144077428Y-77415771D01*
X144077428Y-77415771D02*
X144172666Y-77463390D01*
X144172666Y-77463390D02*
X144220285Y-77511009D01*
X144220285Y-77511009D02*
X144267904Y-77606247D01*
X144267904Y-77606247D02*
X144267904Y-77844342D01*
X144267904Y-77844342D02*
X144220285Y-77939580D01*
X144220285Y-77939580D02*
X144172666Y-77987200D01*
X144172666Y-77987200D02*
X144077428Y-78034819D01*
X144077428Y-78034819D02*
X143839333Y-78034819D01*
X143839333Y-78034819D02*
X143744095Y-77987200D01*
X143744095Y-77987200D02*
X143696476Y-77939580D01*
X142418666Y-151456819D02*
X142418666Y-152171104D01*
X142418666Y-152171104D02*
X142371047Y-152313961D01*
X142371047Y-152313961D02*
X142275809Y-152409200D01*
X142275809Y-152409200D02*
X142132952Y-152456819D01*
X142132952Y-152456819D02*
X142037714Y-152456819D01*
X142847238Y-151552057D02*
X142894857Y-151504438D01*
X142894857Y-151504438D02*
X142990095Y-151456819D01*
X142990095Y-151456819D02*
X143228190Y-151456819D01*
X143228190Y-151456819D02*
X143323428Y-151504438D01*
X143323428Y-151504438D02*
X143371047Y-151552057D01*
X143371047Y-151552057D02*
X143418666Y-151647295D01*
X143418666Y-151647295D02*
X143418666Y-151742533D01*
X143418666Y-151742533D02*
X143371047Y-151885390D01*
X143371047Y-151885390D02*
X142799619Y-152456819D01*
X142799619Y-152456819D02*
X143418666Y-152456819D01*
X142363142Y-65334819D02*
X142029809Y-64858628D01*
X141791714Y-65334819D02*
X141791714Y-64334819D01*
X141791714Y-64334819D02*
X142172666Y-64334819D01*
X142172666Y-64334819D02*
X142267904Y-64382438D01*
X142267904Y-64382438D02*
X142315523Y-64430057D01*
X142315523Y-64430057D02*
X142363142Y-64525295D01*
X142363142Y-64525295D02*
X142363142Y-64668152D01*
X142363142Y-64668152D02*
X142315523Y-64763390D01*
X142315523Y-64763390D02*
X142267904Y-64811009D01*
X142267904Y-64811009D02*
X142172666Y-64858628D01*
X142172666Y-64858628D02*
X141791714Y-64858628D01*
X142696476Y-64334819D02*
X143315523Y-64334819D01*
X143315523Y-64334819D02*
X142982190Y-64715771D01*
X142982190Y-64715771D02*
X143125047Y-64715771D01*
X143125047Y-64715771D02*
X143220285Y-64763390D01*
X143220285Y-64763390D02*
X143267904Y-64811009D01*
X143267904Y-64811009D02*
X143315523Y-64906247D01*
X143315523Y-64906247D02*
X143315523Y-65144342D01*
X143315523Y-65144342D02*
X143267904Y-65239580D01*
X143267904Y-65239580D02*
X143220285Y-65287200D01*
X143220285Y-65287200D02*
X143125047Y-65334819D01*
X143125047Y-65334819D02*
X142839333Y-65334819D01*
X142839333Y-65334819D02*
X142744095Y-65287200D01*
X142744095Y-65287200D02*
X142696476Y-65239580D01*
X143886952Y-64763390D02*
X143791714Y-64715771D01*
X143791714Y-64715771D02*
X143744095Y-64668152D01*
X143744095Y-64668152D02*
X143696476Y-64572914D01*
X143696476Y-64572914D02*
X143696476Y-64525295D01*
X143696476Y-64525295D02*
X143744095Y-64430057D01*
X143744095Y-64430057D02*
X143791714Y-64382438D01*
X143791714Y-64382438D02*
X143886952Y-64334819D01*
X143886952Y-64334819D02*
X144077428Y-64334819D01*
X144077428Y-64334819D02*
X144172666Y-64382438D01*
X144172666Y-64382438D02*
X144220285Y-64430057D01*
X144220285Y-64430057D02*
X144267904Y-64525295D01*
X144267904Y-64525295D02*
X144267904Y-64572914D01*
X144267904Y-64572914D02*
X144220285Y-64668152D01*
X144220285Y-64668152D02*
X144172666Y-64715771D01*
X144172666Y-64715771D02*
X144077428Y-64763390D01*
X144077428Y-64763390D02*
X143886952Y-64763390D01*
X143886952Y-64763390D02*
X143791714Y-64811009D01*
X143791714Y-64811009D02*
X143744095Y-64858628D01*
X143744095Y-64858628D02*
X143696476Y-64953866D01*
X143696476Y-64953866D02*
X143696476Y-65144342D01*
X143696476Y-65144342D02*
X143744095Y-65239580D01*
X143744095Y-65239580D02*
X143791714Y-65287200D01*
X143791714Y-65287200D02*
X143886952Y-65334819D01*
X143886952Y-65334819D02*
X144077428Y-65334819D01*
X144077428Y-65334819D02*
X144172666Y-65287200D01*
X144172666Y-65287200D02*
X144220285Y-65239580D01*
X144220285Y-65239580D02*
X144267904Y-65144342D01*
X144267904Y-65144342D02*
X144267904Y-64953866D01*
X144267904Y-64953866D02*
X144220285Y-64858628D01*
X144220285Y-64858628D02*
X144172666Y-64811009D01*
X144172666Y-64811009D02*
X144077428Y-64763390D01*
X76674819Y-139373333D02*
X77389104Y-139373333D01*
X77389104Y-139373333D02*
X77531961Y-139420952D01*
X77531961Y-139420952D02*
X77627200Y-139516190D01*
X77627200Y-139516190D02*
X77674819Y-139659047D01*
X77674819Y-139659047D02*
X77674819Y-139754285D01*
X77674819Y-138897142D02*
X76674819Y-138897142D01*
X76674819Y-138897142D02*
X76674819Y-138516190D01*
X76674819Y-138516190D02*
X76722438Y-138420952D01*
X76722438Y-138420952D02*
X76770057Y-138373333D01*
X76770057Y-138373333D02*
X76865295Y-138325714D01*
X76865295Y-138325714D02*
X77008152Y-138325714D01*
X77008152Y-138325714D02*
X77103390Y-138373333D01*
X77103390Y-138373333D02*
X77151009Y-138420952D01*
X77151009Y-138420952D02*
X77198628Y-138516190D01*
X77198628Y-138516190D02*
X77198628Y-138897142D01*
X77674819Y-137373333D02*
X77674819Y-137944761D01*
X77674819Y-137659047D02*
X76674819Y-137659047D01*
X76674819Y-137659047D02*
X76817676Y-137754285D01*
X76817676Y-137754285D02*
X76912914Y-137849523D01*
X76912914Y-137849523D02*
X76960533Y-137944761D01*
X146834642Y-59461580D02*
X146787023Y-59509200D01*
X146787023Y-59509200D02*
X146644166Y-59556819D01*
X146644166Y-59556819D02*
X146548928Y-59556819D01*
X146548928Y-59556819D02*
X146406071Y-59509200D01*
X146406071Y-59509200D02*
X146310833Y-59413961D01*
X146310833Y-59413961D02*
X146263214Y-59318723D01*
X146263214Y-59318723D02*
X146215595Y-59128247D01*
X146215595Y-59128247D02*
X146215595Y-58985390D01*
X146215595Y-58985390D02*
X146263214Y-58794914D01*
X146263214Y-58794914D02*
X146310833Y-58699676D01*
X146310833Y-58699676D02*
X146406071Y-58604438D01*
X146406071Y-58604438D02*
X146548928Y-58556819D01*
X146548928Y-58556819D02*
X146644166Y-58556819D01*
X146644166Y-58556819D02*
X146787023Y-58604438D01*
X146787023Y-58604438D02*
X146834642Y-58652057D01*
X147787023Y-59556819D02*
X147215595Y-59556819D01*
X147501309Y-59556819D02*
X147501309Y-58556819D01*
X147501309Y-58556819D02*
X147406071Y-58699676D01*
X147406071Y-58699676D02*
X147310833Y-58794914D01*
X147310833Y-58794914D02*
X147215595Y-58842533D01*
X148120357Y-58556819D02*
X148739404Y-58556819D01*
X148739404Y-58556819D02*
X148406071Y-58937771D01*
X148406071Y-58937771D02*
X148548928Y-58937771D01*
X148548928Y-58937771D02*
X148644166Y-58985390D01*
X148644166Y-58985390D02*
X148691785Y-59033009D01*
X148691785Y-59033009D02*
X148739404Y-59128247D01*
X148739404Y-59128247D02*
X148739404Y-59366342D01*
X148739404Y-59366342D02*
X148691785Y-59461580D01*
X148691785Y-59461580D02*
X148644166Y-59509200D01*
X148644166Y-59509200D02*
X148548928Y-59556819D01*
X148548928Y-59556819D02*
X148263214Y-59556819D01*
X148263214Y-59556819D02*
X148167976Y-59509200D01*
X148167976Y-59509200D02*
X148120357Y-59461580D01*
X166324819Y-105187333D02*
X167039104Y-105187333D01*
X167039104Y-105187333D02*
X167181961Y-105234952D01*
X167181961Y-105234952D02*
X167277200Y-105330190D01*
X167277200Y-105330190D02*
X167324819Y-105473047D01*
X167324819Y-105473047D02*
X167324819Y-105568285D01*
X166753390Y-104568285D02*
X166705771Y-104663523D01*
X166705771Y-104663523D02*
X166658152Y-104711142D01*
X166658152Y-104711142D02*
X166562914Y-104758761D01*
X166562914Y-104758761D02*
X166515295Y-104758761D01*
X166515295Y-104758761D02*
X166420057Y-104711142D01*
X166420057Y-104711142D02*
X166372438Y-104663523D01*
X166372438Y-104663523D02*
X166324819Y-104568285D01*
X166324819Y-104568285D02*
X166324819Y-104377809D01*
X166324819Y-104377809D02*
X166372438Y-104282571D01*
X166372438Y-104282571D02*
X166420057Y-104234952D01*
X166420057Y-104234952D02*
X166515295Y-104187333D01*
X166515295Y-104187333D02*
X166562914Y-104187333D01*
X166562914Y-104187333D02*
X166658152Y-104234952D01*
X166658152Y-104234952D02*
X166705771Y-104282571D01*
X166705771Y-104282571D02*
X166753390Y-104377809D01*
X166753390Y-104377809D02*
X166753390Y-104568285D01*
X166753390Y-104568285D02*
X166801009Y-104663523D01*
X166801009Y-104663523D02*
X166848628Y-104711142D01*
X166848628Y-104711142D02*
X166943866Y-104758761D01*
X166943866Y-104758761D02*
X167134342Y-104758761D01*
X167134342Y-104758761D02*
X167229580Y-104711142D01*
X167229580Y-104711142D02*
X167277200Y-104663523D01*
X167277200Y-104663523D02*
X167324819Y-104568285D01*
X167324819Y-104568285D02*
X167324819Y-104377809D01*
X167324819Y-104377809D02*
X167277200Y-104282571D01*
X167277200Y-104282571D02*
X167229580Y-104234952D01*
X167229580Y-104234952D02*
X167134342Y-104187333D01*
X167134342Y-104187333D02*
X166943866Y-104187333D01*
X166943866Y-104187333D02*
X166848628Y-104234952D01*
X166848628Y-104234952D02*
X166801009Y-104282571D01*
X166801009Y-104282571D02*
X166753390Y-104377809D01*
X66591810Y-96322819D02*
X66591810Y-95322819D01*
X67639428Y-96227580D02*
X67591809Y-96275200D01*
X67591809Y-96275200D02*
X67448952Y-96322819D01*
X67448952Y-96322819D02*
X67353714Y-96322819D01*
X67353714Y-96322819D02*
X67210857Y-96275200D01*
X67210857Y-96275200D02*
X67115619Y-96179961D01*
X67115619Y-96179961D02*
X67068000Y-96084723D01*
X67068000Y-96084723D02*
X67020381Y-95894247D01*
X67020381Y-95894247D02*
X67020381Y-95751390D01*
X67020381Y-95751390D02*
X67068000Y-95560914D01*
X67068000Y-95560914D02*
X67115619Y-95465676D01*
X67115619Y-95465676D02*
X67210857Y-95370438D01*
X67210857Y-95370438D02*
X67353714Y-95322819D01*
X67353714Y-95322819D02*
X67448952Y-95322819D01*
X67448952Y-95322819D02*
X67591809Y-95370438D01*
X67591809Y-95370438D02*
X67639428Y-95418057D01*
X68496571Y-95656152D02*
X68496571Y-96322819D01*
X68258476Y-95275200D02*
X68020381Y-95989485D01*
X68020381Y-95989485D02*
X68639428Y-95989485D01*
X118796666Y-151456819D02*
X118796666Y-152171104D01*
X118796666Y-152171104D02*
X118749047Y-152313961D01*
X118749047Y-152313961D02*
X118653809Y-152409200D01*
X118653809Y-152409200D02*
X118510952Y-152456819D01*
X118510952Y-152456819D02*
X118415714Y-152456819D01*
X119177619Y-151456819D02*
X119796666Y-151456819D01*
X119796666Y-151456819D02*
X119463333Y-151837771D01*
X119463333Y-151837771D02*
X119606190Y-151837771D01*
X119606190Y-151837771D02*
X119701428Y-151885390D01*
X119701428Y-151885390D02*
X119749047Y-151933009D01*
X119749047Y-151933009D02*
X119796666Y-152028247D01*
X119796666Y-152028247D02*
X119796666Y-152266342D01*
X119796666Y-152266342D02*
X119749047Y-152361580D01*
X119749047Y-152361580D02*
X119701428Y-152409200D01*
X119701428Y-152409200D02*
X119606190Y-152456819D01*
X119606190Y-152456819D02*
X119320476Y-152456819D01*
X119320476Y-152456819D02*
X119225238Y-152409200D01*
X119225238Y-152409200D02*
X119177619Y-152361580D01*
X148484810Y-50764819D02*
X148484810Y-49764819D01*
X149532428Y-50669580D02*
X149484809Y-50717200D01*
X149484809Y-50717200D02*
X149341952Y-50764819D01*
X149341952Y-50764819D02*
X149246714Y-50764819D01*
X149246714Y-50764819D02*
X149103857Y-50717200D01*
X149103857Y-50717200D02*
X149008619Y-50621961D01*
X149008619Y-50621961D02*
X148961000Y-50526723D01*
X148961000Y-50526723D02*
X148913381Y-50336247D01*
X148913381Y-50336247D02*
X148913381Y-50193390D01*
X148913381Y-50193390D02*
X148961000Y-50002914D01*
X148961000Y-50002914D02*
X149008619Y-49907676D01*
X149008619Y-49907676D02*
X149103857Y-49812438D01*
X149103857Y-49812438D02*
X149246714Y-49764819D01*
X149246714Y-49764819D02*
X149341952Y-49764819D01*
X149341952Y-49764819D02*
X149484809Y-49812438D01*
X149484809Y-49812438D02*
X149532428Y-49860057D01*
X150437190Y-49764819D02*
X149961000Y-49764819D01*
X149961000Y-49764819D02*
X149913381Y-50241009D01*
X149913381Y-50241009D02*
X149961000Y-50193390D01*
X149961000Y-50193390D02*
X150056238Y-50145771D01*
X150056238Y-50145771D02*
X150294333Y-50145771D01*
X150294333Y-50145771D02*
X150389571Y-50193390D01*
X150389571Y-50193390D02*
X150437190Y-50241009D01*
X150437190Y-50241009D02*
X150484809Y-50336247D01*
X150484809Y-50336247D02*
X150484809Y-50574342D01*
X150484809Y-50574342D02*
X150437190Y-50669580D01*
X150437190Y-50669580D02*
X150389571Y-50717200D01*
X150389571Y-50717200D02*
X150294333Y-50764819D01*
X150294333Y-50764819D02*
X150056238Y-50764819D01*
X150056238Y-50764819D02*
X149961000Y-50717200D01*
X149961000Y-50717200D02*
X149913381Y-50669580D01*
X73529142Y-54920819D02*
X73195809Y-54444628D01*
X72957714Y-54920819D02*
X72957714Y-53920819D01*
X72957714Y-53920819D02*
X73338666Y-53920819D01*
X73338666Y-53920819D02*
X73433904Y-53968438D01*
X73433904Y-53968438D02*
X73481523Y-54016057D01*
X73481523Y-54016057D02*
X73529142Y-54111295D01*
X73529142Y-54111295D02*
X73529142Y-54254152D01*
X73529142Y-54254152D02*
X73481523Y-54349390D01*
X73481523Y-54349390D02*
X73433904Y-54397009D01*
X73433904Y-54397009D02*
X73338666Y-54444628D01*
X73338666Y-54444628D02*
X72957714Y-54444628D01*
X73910095Y-54016057D02*
X73957714Y-53968438D01*
X73957714Y-53968438D02*
X74052952Y-53920819D01*
X74052952Y-53920819D02*
X74291047Y-53920819D01*
X74291047Y-53920819D02*
X74386285Y-53968438D01*
X74386285Y-53968438D02*
X74433904Y-54016057D01*
X74433904Y-54016057D02*
X74481523Y-54111295D01*
X74481523Y-54111295D02*
X74481523Y-54206533D01*
X74481523Y-54206533D02*
X74433904Y-54349390D01*
X74433904Y-54349390D02*
X73862476Y-54920819D01*
X73862476Y-54920819D02*
X74481523Y-54920819D01*
X75100571Y-53920819D02*
X75195809Y-53920819D01*
X75195809Y-53920819D02*
X75291047Y-53968438D01*
X75291047Y-53968438D02*
X75338666Y-54016057D01*
X75338666Y-54016057D02*
X75386285Y-54111295D01*
X75386285Y-54111295D02*
X75433904Y-54301771D01*
X75433904Y-54301771D02*
X75433904Y-54539866D01*
X75433904Y-54539866D02*
X75386285Y-54730342D01*
X75386285Y-54730342D02*
X75338666Y-54825580D01*
X75338666Y-54825580D02*
X75291047Y-54873200D01*
X75291047Y-54873200D02*
X75195809Y-54920819D01*
X75195809Y-54920819D02*
X75100571Y-54920819D01*
X75100571Y-54920819D02*
X75005333Y-54873200D01*
X75005333Y-54873200D02*
X74957714Y-54825580D01*
X74957714Y-54825580D02*
X74910095Y-54730342D01*
X74910095Y-54730342D02*
X74862476Y-54539866D01*
X74862476Y-54539866D02*
X74862476Y-54301771D01*
X74862476Y-54301771D02*
X74910095Y-54111295D01*
X74910095Y-54111295D02*
X74957714Y-54016057D01*
X74957714Y-54016057D02*
X75005333Y-53968438D01*
X75005333Y-53968438D02*
X75100571Y-53920819D01*
X73529142Y-102164819D02*
X73195809Y-101688628D01*
X72957714Y-102164819D02*
X72957714Y-101164819D01*
X72957714Y-101164819D02*
X73338666Y-101164819D01*
X73338666Y-101164819D02*
X73433904Y-101212438D01*
X73433904Y-101212438D02*
X73481523Y-101260057D01*
X73481523Y-101260057D02*
X73529142Y-101355295D01*
X73529142Y-101355295D02*
X73529142Y-101498152D01*
X73529142Y-101498152D02*
X73481523Y-101593390D01*
X73481523Y-101593390D02*
X73433904Y-101641009D01*
X73433904Y-101641009D02*
X73338666Y-101688628D01*
X73338666Y-101688628D02*
X72957714Y-101688628D01*
X73910095Y-101260057D02*
X73957714Y-101212438D01*
X73957714Y-101212438D02*
X74052952Y-101164819D01*
X74052952Y-101164819D02*
X74291047Y-101164819D01*
X74291047Y-101164819D02*
X74386285Y-101212438D01*
X74386285Y-101212438D02*
X74433904Y-101260057D01*
X74433904Y-101260057D02*
X74481523Y-101355295D01*
X74481523Y-101355295D02*
X74481523Y-101450533D01*
X74481523Y-101450533D02*
X74433904Y-101593390D01*
X74433904Y-101593390D02*
X73862476Y-102164819D01*
X73862476Y-102164819D02*
X74481523Y-102164819D01*
X75338666Y-101498152D02*
X75338666Y-102164819D01*
X75100571Y-101117200D02*
X74862476Y-101831485D01*
X74862476Y-101831485D02*
X75481523Y-101831485D01*
X73529142Y-51110819D02*
X73195809Y-50634628D01*
X72957714Y-51110819D02*
X72957714Y-50110819D01*
X72957714Y-50110819D02*
X73338666Y-50110819D01*
X73338666Y-50110819D02*
X73433904Y-50158438D01*
X73433904Y-50158438D02*
X73481523Y-50206057D01*
X73481523Y-50206057D02*
X73529142Y-50301295D01*
X73529142Y-50301295D02*
X73529142Y-50444152D01*
X73529142Y-50444152D02*
X73481523Y-50539390D01*
X73481523Y-50539390D02*
X73433904Y-50587009D01*
X73433904Y-50587009D02*
X73338666Y-50634628D01*
X73338666Y-50634628D02*
X72957714Y-50634628D01*
X74481523Y-51110819D02*
X73910095Y-51110819D01*
X74195809Y-51110819D02*
X74195809Y-50110819D01*
X74195809Y-50110819D02*
X74100571Y-50253676D01*
X74100571Y-50253676D02*
X74005333Y-50348914D01*
X74005333Y-50348914D02*
X73910095Y-50396533D01*
X74957714Y-51110819D02*
X75148190Y-51110819D01*
X75148190Y-51110819D02*
X75243428Y-51063200D01*
X75243428Y-51063200D02*
X75291047Y-51015580D01*
X75291047Y-51015580D02*
X75386285Y-50872723D01*
X75386285Y-50872723D02*
X75433904Y-50682247D01*
X75433904Y-50682247D02*
X75433904Y-50301295D01*
X75433904Y-50301295D02*
X75386285Y-50206057D01*
X75386285Y-50206057D02*
X75338666Y-50158438D01*
X75338666Y-50158438D02*
X75243428Y-50110819D01*
X75243428Y-50110819D02*
X75052952Y-50110819D01*
X75052952Y-50110819D02*
X74957714Y-50158438D01*
X74957714Y-50158438D02*
X74910095Y-50206057D01*
X74910095Y-50206057D02*
X74862476Y-50301295D01*
X74862476Y-50301295D02*
X74862476Y-50539390D01*
X74862476Y-50539390D02*
X74910095Y-50634628D01*
X74910095Y-50634628D02*
X74957714Y-50682247D01*
X74957714Y-50682247D02*
X75052952Y-50729866D01*
X75052952Y-50729866D02*
X75243428Y-50729866D01*
X75243428Y-50729866D02*
X75338666Y-50682247D01*
X75338666Y-50682247D02*
X75386285Y-50634628D01*
X75386285Y-50634628D02*
X75433904Y-50539390D01*
X142363142Y-102164819D02*
X142029809Y-101688628D01*
X141791714Y-102164819D02*
X141791714Y-101164819D01*
X141791714Y-101164819D02*
X142172666Y-101164819D01*
X142172666Y-101164819D02*
X142267904Y-101212438D01*
X142267904Y-101212438D02*
X142315523Y-101260057D01*
X142315523Y-101260057D02*
X142363142Y-101355295D01*
X142363142Y-101355295D02*
X142363142Y-101498152D01*
X142363142Y-101498152D02*
X142315523Y-101593390D01*
X142315523Y-101593390D02*
X142267904Y-101641009D01*
X142267904Y-101641009D02*
X142172666Y-101688628D01*
X142172666Y-101688628D02*
X141791714Y-101688628D01*
X142696476Y-101164819D02*
X143315523Y-101164819D01*
X143315523Y-101164819D02*
X142982190Y-101545771D01*
X142982190Y-101545771D02*
X143125047Y-101545771D01*
X143125047Y-101545771D02*
X143220285Y-101593390D01*
X143220285Y-101593390D02*
X143267904Y-101641009D01*
X143267904Y-101641009D02*
X143315523Y-101736247D01*
X143315523Y-101736247D02*
X143315523Y-101974342D01*
X143315523Y-101974342D02*
X143267904Y-102069580D01*
X143267904Y-102069580D02*
X143220285Y-102117200D01*
X143220285Y-102117200D02*
X143125047Y-102164819D01*
X143125047Y-102164819D02*
X142839333Y-102164819D01*
X142839333Y-102164819D02*
X142744095Y-102117200D01*
X142744095Y-102117200D02*
X142696476Y-102069580D01*
X144172666Y-101498152D02*
X144172666Y-102164819D01*
X143934571Y-101117200D02*
X143696476Y-101831485D01*
X143696476Y-101831485D02*
X144315523Y-101831485D01*
X142363142Y-107498819D02*
X142029809Y-107022628D01*
X141791714Y-107498819D02*
X141791714Y-106498819D01*
X141791714Y-106498819D02*
X142172666Y-106498819D01*
X142172666Y-106498819D02*
X142267904Y-106546438D01*
X142267904Y-106546438D02*
X142315523Y-106594057D01*
X142315523Y-106594057D02*
X142363142Y-106689295D01*
X142363142Y-106689295D02*
X142363142Y-106832152D01*
X142363142Y-106832152D02*
X142315523Y-106927390D01*
X142315523Y-106927390D02*
X142267904Y-106975009D01*
X142267904Y-106975009D02*
X142172666Y-107022628D01*
X142172666Y-107022628D02*
X141791714Y-107022628D01*
X143220285Y-106832152D02*
X143220285Y-107498819D01*
X142982190Y-106451200D02*
X142744095Y-107165485D01*
X142744095Y-107165485D02*
X143363142Y-107165485D01*
X143696476Y-106594057D02*
X143744095Y-106546438D01*
X143744095Y-106546438D02*
X143839333Y-106498819D01*
X143839333Y-106498819D02*
X144077428Y-106498819D01*
X144077428Y-106498819D02*
X144172666Y-106546438D01*
X144172666Y-106546438D02*
X144220285Y-106594057D01*
X144220285Y-106594057D02*
X144267904Y-106689295D01*
X144267904Y-106689295D02*
X144267904Y-106784533D01*
X144267904Y-106784533D02*
X144220285Y-106927390D01*
X144220285Y-106927390D02*
X143648857Y-107498819D01*
X143648857Y-107498819D02*
X144267904Y-107498819D01*
X142363142Y-113340819D02*
X142029809Y-112864628D01*
X141791714Y-113340819D02*
X141791714Y-112340819D01*
X141791714Y-112340819D02*
X142172666Y-112340819D01*
X142172666Y-112340819D02*
X142267904Y-112388438D01*
X142267904Y-112388438D02*
X142315523Y-112436057D01*
X142315523Y-112436057D02*
X142363142Y-112531295D01*
X142363142Y-112531295D02*
X142363142Y-112674152D01*
X142363142Y-112674152D02*
X142315523Y-112769390D01*
X142315523Y-112769390D02*
X142267904Y-112817009D01*
X142267904Y-112817009D02*
X142172666Y-112864628D01*
X142172666Y-112864628D02*
X141791714Y-112864628D01*
X143220285Y-112674152D02*
X143220285Y-113340819D01*
X142982190Y-112293200D02*
X142744095Y-113007485D01*
X142744095Y-113007485D02*
X143363142Y-113007485D01*
X143934571Y-112340819D02*
X144029809Y-112340819D01*
X144029809Y-112340819D02*
X144125047Y-112388438D01*
X144125047Y-112388438D02*
X144172666Y-112436057D01*
X144172666Y-112436057D02*
X144220285Y-112531295D01*
X144220285Y-112531295D02*
X144267904Y-112721771D01*
X144267904Y-112721771D02*
X144267904Y-112959866D01*
X144267904Y-112959866D02*
X144220285Y-113150342D01*
X144220285Y-113150342D02*
X144172666Y-113245580D01*
X144172666Y-113245580D02*
X144125047Y-113293200D01*
X144125047Y-113293200D02*
X144029809Y-113340819D01*
X144029809Y-113340819D02*
X143934571Y-113340819D01*
X143934571Y-113340819D02*
X143839333Y-113293200D01*
X143839333Y-113293200D02*
X143791714Y-113245580D01*
X143791714Y-113245580D02*
X143744095Y-113150342D01*
X143744095Y-113150342D02*
X143696476Y-112959866D01*
X143696476Y-112959866D02*
X143696476Y-112721771D01*
X143696476Y-112721771D02*
X143744095Y-112531295D01*
X143744095Y-112531295D02*
X143791714Y-112436057D01*
X143791714Y-112436057D02*
X143839333Y-112388438D01*
X143839333Y-112388438D02*
X143934571Y-112340819D01*
X73529142Y-110292819D02*
X73195809Y-109816628D01*
X72957714Y-110292819D02*
X72957714Y-109292819D01*
X72957714Y-109292819D02*
X73338666Y-109292819D01*
X73338666Y-109292819D02*
X73433904Y-109340438D01*
X73433904Y-109340438D02*
X73481523Y-109388057D01*
X73481523Y-109388057D02*
X73529142Y-109483295D01*
X73529142Y-109483295D02*
X73529142Y-109626152D01*
X73529142Y-109626152D02*
X73481523Y-109721390D01*
X73481523Y-109721390D02*
X73433904Y-109769009D01*
X73433904Y-109769009D02*
X73338666Y-109816628D01*
X73338666Y-109816628D02*
X72957714Y-109816628D01*
X74481523Y-110292819D02*
X73910095Y-110292819D01*
X74195809Y-110292819D02*
X74195809Y-109292819D01*
X74195809Y-109292819D02*
X74100571Y-109435676D01*
X74100571Y-109435676D02*
X74005333Y-109530914D01*
X74005333Y-109530914D02*
X73910095Y-109578533D01*
X74814857Y-109292819D02*
X75481523Y-109292819D01*
X75481523Y-109292819D02*
X75052952Y-110292819D01*
D12*
X85351667Y-150549318D02*
X85351667Y-151456461D01*
X85351667Y-151456461D02*
X85291190Y-151637889D01*
X85291190Y-151637889D02*
X85170238Y-151758842D01*
X85170238Y-151758842D02*
X84988809Y-151819318D01*
X84988809Y-151819318D02*
X84867857Y-151819318D01*
X85956428Y-151819318D02*
X85956428Y-150549318D01*
X85956428Y-150549318D02*
X86440238Y-150549318D01*
X86440238Y-150549318D02*
X86561190Y-150609794D01*
X86561190Y-150609794D02*
X86621667Y-150670270D01*
X86621667Y-150670270D02*
X86682143Y-150791222D01*
X86682143Y-150791222D02*
X86682143Y-150972651D01*
X86682143Y-150972651D02*
X86621667Y-151093603D01*
X86621667Y-151093603D02*
X86561190Y-151154080D01*
X86561190Y-151154080D02*
X86440238Y-151214556D01*
X86440238Y-151214556D02*
X85956428Y-151214556D01*
X87165952Y-150670270D02*
X87226428Y-150609794D01*
X87226428Y-150609794D02*
X87347381Y-150549318D01*
X87347381Y-150549318D02*
X87649762Y-150549318D01*
X87649762Y-150549318D02*
X87770714Y-150609794D01*
X87770714Y-150609794D02*
X87831190Y-150670270D01*
X87831190Y-150670270D02*
X87891667Y-150791222D01*
X87891667Y-150791222D02*
X87891667Y-150912175D01*
X87891667Y-150912175D02*
X87831190Y-151093603D01*
X87831190Y-151093603D02*
X87105476Y-151819318D01*
X87105476Y-151819318D02*
X87891667Y-151819318D01*
D11*
X142363142Y-110292819D02*
X142029809Y-109816628D01*
X141791714Y-110292819D02*
X141791714Y-109292819D01*
X141791714Y-109292819D02*
X142172666Y-109292819D01*
X142172666Y-109292819D02*
X142267904Y-109340438D01*
X142267904Y-109340438D02*
X142315523Y-109388057D01*
X142315523Y-109388057D02*
X142363142Y-109483295D01*
X142363142Y-109483295D02*
X142363142Y-109626152D01*
X142363142Y-109626152D02*
X142315523Y-109721390D01*
X142315523Y-109721390D02*
X142267904Y-109769009D01*
X142267904Y-109769009D02*
X142172666Y-109816628D01*
X142172666Y-109816628D02*
X141791714Y-109816628D01*
X143220285Y-109626152D02*
X143220285Y-110292819D01*
X142982190Y-109245200D02*
X142744095Y-109959485D01*
X142744095Y-109959485D02*
X143363142Y-109959485D01*
X144267904Y-110292819D02*
X143696476Y-110292819D01*
X143982190Y-110292819D02*
X143982190Y-109292819D01*
X143982190Y-109292819D02*
X143886952Y-109435676D01*
X143886952Y-109435676D02*
X143791714Y-109530914D01*
X143791714Y-109530914D02*
X143696476Y-109578533D01*
X151500819Y-81987333D02*
X152215104Y-81987333D01*
X152215104Y-81987333D02*
X152357961Y-82034952D01*
X152357961Y-82034952D02*
X152453200Y-82130190D01*
X152453200Y-82130190D02*
X152500819Y-82273047D01*
X152500819Y-82273047D02*
X152500819Y-82368285D01*
X152500819Y-81463523D02*
X152500819Y-81273047D01*
X152500819Y-81273047D02*
X152453200Y-81177809D01*
X152453200Y-81177809D02*
X152405580Y-81130190D01*
X152405580Y-81130190D02*
X152262723Y-81034952D01*
X152262723Y-81034952D02*
X152072247Y-80987333D01*
X152072247Y-80987333D02*
X151691295Y-80987333D01*
X151691295Y-80987333D02*
X151596057Y-81034952D01*
X151596057Y-81034952D02*
X151548438Y-81082571D01*
X151548438Y-81082571D02*
X151500819Y-81177809D01*
X151500819Y-81177809D02*
X151500819Y-81368285D01*
X151500819Y-81368285D02*
X151548438Y-81463523D01*
X151548438Y-81463523D02*
X151596057Y-81511142D01*
X151596057Y-81511142D02*
X151691295Y-81558761D01*
X151691295Y-81558761D02*
X151929390Y-81558761D01*
X151929390Y-81558761D02*
X152024628Y-81511142D01*
X152024628Y-81511142D02*
X152072247Y-81463523D01*
X152072247Y-81463523D02*
X152119866Y-81368285D01*
X152119866Y-81368285D02*
X152119866Y-81177809D01*
X152119866Y-81177809D02*
X152072247Y-81082571D01*
X152072247Y-81082571D02*
X152024628Y-81034952D01*
X152024628Y-81034952D02*
X151929390Y-80987333D01*
X49760819Y-105249333D02*
X50475104Y-105249333D01*
X50475104Y-105249333D02*
X50617961Y-105296952D01*
X50617961Y-105296952D02*
X50713200Y-105392190D01*
X50713200Y-105392190D02*
X50760819Y-105535047D01*
X50760819Y-105535047D02*
X50760819Y-105630285D01*
X49760819Y-104296952D02*
X49760819Y-104773142D01*
X49760819Y-104773142D02*
X50237009Y-104820761D01*
X50237009Y-104820761D02*
X50189390Y-104773142D01*
X50189390Y-104773142D02*
X50141771Y-104677904D01*
X50141771Y-104677904D02*
X50141771Y-104439809D01*
X50141771Y-104439809D02*
X50189390Y-104344571D01*
X50189390Y-104344571D02*
X50237009Y-104296952D01*
X50237009Y-104296952D02*
X50332247Y-104249333D01*
X50332247Y-104249333D02*
X50570342Y-104249333D01*
X50570342Y-104249333D02*
X50665580Y-104296952D01*
X50665580Y-104296952D02*
X50713200Y-104344571D01*
X50713200Y-104344571D02*
X50760819Y-104439809D01*
X50760819Y-104439809D02*
X50760819Y-104677904D01*
X50760819Y-104677904D02*
X50713200Y-104773142D01*
X50713200Y-104773142D02*
X50665580Y-104820761D01*
X142363142Y-51364819D02*
X142029809Y-50888628D01*
X141791714Y-51364819D02*
X141791714Y-50364819D01*
X141791714Y-50364819D02*
X142172666Y-50364819D01*
X142172666Y-50364819D02*
X142267904Y-50412438D01*
X142267904Y-50412438D02*
X142315523Y-50460057D01*
X142315523Y-50460057D02*
X142363142Y-50555295D01*
X142363142Y-50555295D02*
X142363142Y-50698152D01*
X142363142Y-50698152D02*
X142315523Y-50793390D01*
X142315523Y-50793390D02*
X142267904Y-50841009D01*
X142267904Y-50841009D02*
X142172666Y-50888628D01*
X142172666Y-50888628D02*
X141791714Y-50888628D01*
X142696476Y-50364819D02*
X143315523Y-50364819D01*
X143315523Y-50364819D02*
X142982190Y-50745771D01*
X142982190Y-50745771D02*
X143125047Y-50745771D01*
X143125047Y-50745771D02*
X143220285Y-50793390D01*
X143220285Y-50793390D02*
X143267904Y-50841009D01*
X143267904Y-50841009D02*
X143315523Y-50936247D01*
X143315523Y-50936247D02*
X143315523Y-51174342D01*
X143315523Y-51174342D02*
X143267904Y-51269580D01*
X143267904Y-51269580D02*
X143220285Y-51317200D01*
X143220285Y-51317200D02*
X143125047Y-51364819D01*
X143125047Y-51364819D02*
X142839333Y-51364819D01*
X142839333Y-51364819D02*
X142744095Y-51317200D01*
X142744095Y-51317200D02*
X142696476Y-51269580D01*
X143648857Y-50364819D02*
X144267904Y-50364819D01*
X144267904Y-50364819D02*
X143934571Y-50745771D01*
X143934571Y-50745771D02*
X144077428Y-50745771D01*
X144077428Y-50745771D02*
X144172666Y-50793390D01*
X144172666Y-50793390D02*
X144220285Y-50841009D01*
X144220285Y-50841009D02*
X144267904Y-50936247D01*
X144267904Y-50936247D02*
X144267904Y-51174342D01*
X144267904Y-51174342D02*
X144220285Y-51269580D01*
X144220285Y-51269580D02*
X144172666Y-51317200D01*
X144172666Y-51317200D02*
X144077428Y-51364819D01*
X144077428Y-51364819D02*
X143791714Y-51364819D01*
X143791714Y-51364819D02*
X143696476Y-51317200D01*
X143696476Y-51317200D02*
X143648857Y-51269580D01*
X74513333Y-74986819D02*
X74180000Y-74510628D01*
X73941905Y-74986819D02*
X73941905Y-73986819D01*
X73941905Y-73986819D02*
X74322857Y-73986819D01*
X74322857Y-73986819D02*
X74418095Y-74034438D01*
X74418095Y-74034438D02*
X74465714Y-74082057D01*
X74465714Y-74082057D02*
X74513333Y-74177295D01*
X74513333Y-74177295D02*
X74513333Y-74320152D01*
X74513333Y-74320152D02*
X74465714Y-74415390D01*
X74465714Y-74415390D02*
X74418095Y-74463009D01*
X74418095Y-74463009D02*
X74322857Y-74510628D01*
X74322857Y-74510628D02*
X73941905Y-74510628D01*
X74989524Y-74986819D02*
X75180000Y-74986819D01*
X75180000Y-74986819D02*
X75275238Y-74939200D01*
X75275238Y-74939200D02*
X75322857Y-74891580D01*
X75322857Y-74891580D02*
X75418095Y-74748723D01*
X75418095Y-74748723D02*
X75465714Y-74558247D01*
X75465714Y-74558247D02*
X75465714Y-74177295D01*
X75465714Y-74177295D02*
X75418095Y-74082057D01*
X75418095Y-74082057D02*
X75370476Y-74034438D01*
X75370476Y-74034438D02*
X75275238Y-73986819D01*
X75275238Y-73986819D02*
X75084762Y-73986819D01*
X75084762Y-73986819D02*
X74989524Y-74034438D01*
X74989524Y-74034438D02*
X74941905Y-74082057D01*
X74941905Y-74082057D02*
X74894286Y-74177295D01*
X74894286Y-74177295D02*
X74894286Y-74415390D01*
X74894286Y-74415390D02*
X74941905Y-74510628D01*
X74941905Y-74510628D02*
X74989524Y-74558247D01*
X74989524Y-74558247D02*
X75084762Y-74605866D01*
X75084762Y-74605866D02*
X75275238Y-74605866D01*
X75275238Y-74605866D02*
X75370476Y-74558247D01*
X75370476Y-74558247D02*
X75418095Y-74510628D01*
X75418095Y-74510628D02*
X75465714Y-74415390D01*
X142363142Y-88702819D02*
X142029809Y-88226628D01*
X141791714Y-88702819D02*
X141791714Y-87702819D01*
X141791714Y-87702819D02*
X142172666Y-87702819D01*
X142172666Y-87702819D02*
X142267904Y-87750438D01*
X142267904Y-87750438D02*
X142315523Y-87798057D01*
X142315523Y-87798057D02*
X142363142Y-87893295D01*
X142363142Y-87893295D02*
X142363142Y-88036152D01*
X142363142Y-88036152D02*
X142315523Y-88131390D01*
X142315523Y-88131390D02*
X142267904Y-88179009D01*
X142267904Y-88179009D02*
X142172666Y-88226628D01*
X142172666Y-88226628D02*
X141791714Y-88226628D01*
X142744095Y-87798057D02*
X142791714Y-87750438D01*
X142791714Y-87750438D02*
X142886952Y-87702819D01*
X142886952Y-87702819D02*
X143125047Y-87702819D01*
X143125047Y-87702819D02*
X143220285Y-87750438D01*
X143220285Y-87750438D02*
X143267904Y-87798057D01*
X143267904Y-87798057D02*
X143315523Y-87893295D01*
X143315523Y-87893295D02*
X143315523Y-87988533D01*
X143315523Y-87988533D02*
X143267904Y-88131390D01*
X143267904Y-88131390D02*
X142696476Y-88702819D01*
X142696476Y-88702819D02*
X143315523Y-88702819D01*
X143886952Y-88131390D02*
X143791714Y-88083771D01*
X143791714Y-88083771D02*
X143744095Y-88036152D01*
X143744095Y-88036152D02*
X143696476Y-87940914D01*
X143696476Y-87940914D02*
X143696476Y-87893295D01*
X143696476Y-87893295D02*
X143744095Y-87798057D01*
X143744095Y-87798057D02*
X143791714Y-87750438D01*
X143791714Y-87750438D02*
X143886952Y-87702819D01*
X143886952Y-87702819D02*
X144077428Y-87702819D01*
X144077428Y-87702819D02*
X144172666Y-87750438D01*
X144172666Y-87750438D02*
X144220285Y-87798057D01*
X144220285Y-87798057D02*
X144267904Y-87893295D01*
X144267904Y-87893295D02*
X144267904Y-87940914D01*
X144267904Y-87940914D02*
X144220285Y-88036152D01*
X144220285Y-88036152D02*
X144172666Y-88083771D01*
X144172666Y-88083771D02*
X144077428Y-88131390D01*
X144077428Y-88131390D02*
X143886952Y-88131390D01*
X143886952Y-88131390D02*
X143791714Y-88179009D01*
X143791714Y-88179009D02*
X143744095Y-88226628D01*
X143744095Y-88226628D02*
X143696476Y-88321866D01*
X143696476Y-88321866D02*
X143696476Y-88512342D01*
X143696476Y-88512342D02*
X143744095Y-88607580D01*
X143744095Y-88607580D02*
X143791714Y-88655200D01*
X143791714Y-88655200D02*
X143886952Y-88702819D01*
X143886952Y-88702819D02*
X144077428Y-88702819D01*
X144077428Y-88702819D02*
X144172666Y-88655200D01*
X144172666Y-88655200D02*
X144220285Y-88607580D01*
X144220285Y-88607580D02*
X144267904Y-88512342D01*
X144267904Y-88512342D02*
X144267904Y-88321866D01*
X144267904Y-88321866D02*
X144220285Y-88226628D01*
X144220285Y-88226628D02*
X144172666Y-88179009D01*
X144172666Y-88179009D02*
X144077428Y-88131390D01*
X73529142Y-91496819D02*
X73195809Y-91020628D01*
X72957714Y-91496819D02*
X72957714Y-90496819D01*
X72957714Y-90496819D02*
X73338666Y-90496819D01*
X73338666Y-90496819D02*
X73433904Y-90544438D01*
X73433904Y-90544438D02*
X73481523Y-90592057D01*
X73481523Y-90592057D02*
X73529142Y-90687295D01*
X73529142Y-90687295D02*
X73529142Y-90830152D01*
X73529142Y-90830152D02*
X73481523Y-90925390D01*
X73481523Y-90925390D02*
X73433904Y-90973009D01*
X73433904Y-90973009D02*
X73338666Y-91020628D01*
X73338666Y-91020628D02*
X72957714Y-91020628D01*
X74481523Y-91496819D02*
X73910095Y-91496819D01*
X74195809Y-91496819D02*
X74195809Y-90496819D01*
X74195809Y-90496819D02*
X74100571Y-90639676D01*
X74100571Y-90639676D02*
X74005333Y-90734914D01*
X74005333Y-90734914D02*
X73910095Y-90782533D01*
X74862476Y-90592057D02*
X74910095Y-90544438D01*
X74910095Y-90544438D02*
X75005333Y-90496819D01*
X75005333Y-90496819D02*
X75243428Y-90496819D01*
X75243428Y-90496819D02*
X75338666Y-90544438D01*
X75338666Y-90544438D02*
X75386285Y-90592057D01*
X75386285Y-90592057D02*
X75433904Y-90687295D01*
X75433904Y-90687295D02*
X75433904Y-90782533D01*
X75433904Y-90782533D02*
X75386285Y-90925390D01*
X75386285Y-90925390D02*
X74814857Y-91496819D01*
X74814857Y-91496819D02*
X75433904Y-91496819D01*
X74259333Y-85400819D02*
X73926000Y-84924628D01*
X73687905Y-85400819D02*
X73687905Y-84400819D01*
X73687905Y-84400819D02*
X74068857Y-84400819D01*
X74068857Y-84400819D02*
X74164095Y-84448438D01*
X74164095Y-84448438D02*
X74211714Y-84496057D01*
X74211714Y-84496057D02*
X74259333Y-84591295D01*
X74259333Y-84591295D02*
X74259333Y-84734152D01*
X74259333Y-84734152D02*
X74211714Y-84829390D01*
X74211714Y-84829390D02*
X74164095Y-84877009D01*
X74164095Y-84877009D02*
X74068857Y-84924628D01*
X74068857Y-84924628D02*
X73687905Y-84924628D01*
X74830762Y-84829390D02*
X74735524Y-84781771D01*
X74735524Y-84781771D02*
X74687905Y-84734152D01*
X74687905Y-84734152D02*
X74640286Y-84638914D01*
X74640286Y-84638914D02*
X74640286Y-84591295D01*
X74640286Y-84591295D02*
X74687905Y-84496057D01*
X74687905Y-84496057D02*
X74735524Y-84448438D01*
X74735524Y-84448438D02*
X74830762Y-84400819D01*
X74830762Y-84400819D02*
X75021238Y-84400819D01*
X75021238Y-84400819D02*
X75116476Y-84448438D01*
X75116476Y-84448438D02*
X75164095Y-84496057D01*
X75164095Y-84496057D02*
X75211714Y-84591295D01*
X75211714Y-84591295D02*
X75211714Y-84638914D01*
X75211714Y-84638914D02*
X75164095Y-84734152D01*
X75164095Y-84734152D02*
X75116476Y-84781771D01*
X75116476Y-84781771D02*
X75021238Y-84829390D01*
X75021238Y-84829390D02*
X74830762Y-84829390D01*
X74830762Y-84829390D02*
X74735524Y-84877009D01*
X74735524Y-84877009D02*
X74687905Y-84924628D01*
X74687905Y-84924628D02*
X74640286Y-85019866D01*
X74640286Y-85019866D02*
X74640286Y-85210342D01*
X74640286Y-85210342D02*
X74687905Y-85305580D01*
X74687905Y-85305580D02*
X74735524Y-85353200D01*
X74735524Y-85353200D02*
X74830762Y-85400819D01*
X74830762Y-85400819D02*
X75021238Y-85400819D01*
X75021238Y-85400819D02*
X75116476Y-85353200D01*
X75116476Y-85353200D02*
X75164095Y-85305580D01*
X75164095Y-85305580D02*
X75211714Y-85210342D01*
X75211714Y-85210342D02*
X75211714Y-85019866D01*
X75211714Y-85019866D02*
X75164095Y-84924628D01*
X75164095Y-84924628D02*
X75116476Y-84877009D01*
X75116476Y-84877009D02*
X75021238Y-84829390D01*
X69687333Y-145757580D02*
X69639714Y-145805200D01*
X69639714Y-145805200D02*
X69496857Y-145852819D01*
X69496857Y-145852819D02*
X69401619Y-145852819D01*
X69401619Y-145852819D02*
X69258762Y-145805200D01*
X69258762Y-145805200D02*
X69163524Y-145709961D01*
X69163524Y-145709961D02*
X69115905Y-145614723D01*
X69115905Y-145614723D02*
X69068286Y-145424247D01*
X69068286Y-145424247D02*
X69068286Y-145281390D01*
X69068286Y-145281390D02*
X69115905Y-145090914D01*
X69115905Y-145090914D02*
X69163524Y-144995676D01*
X69163524Y-144995676D02*
X69258762Y-144900438D01*
X69258762Y-144900438D02*
X69401619Y-144852819D01*
X69401619Y-144852819D02*
X69496857Y-144852819D01*
X69496857Y-144852819D02*
X69639714Y-144900438D01*
X69639714Y-144900438D02*
X69687333Y-144948057D01*
X70544476Y-145186152D02*
X70544476Y-145852819D01*
X70306381Y-144805200D02*
X70068286Y-145519485D01*
X70068286Y-145519485D02*
X70687333Y-145519485D01*
X78323333Y-148805580D02*
X78275714Y-148853200D01*
X78275714Y-148853200D02*
X78132857Y-148900819D01*
X78132857Y-148900819D02*
X78037619Y-148900819D01*
X78037619Y-148900819D02*
X77894762Y-148853200D01*
X77894762Y-148853200D02*
X77799524Y-148757961D01*
X77799524Y-148757961D02*
X77751905Y-148662723D01*
X77751905Y-148662723D02*
X77704286Y-148472247D01*
X77704286Y-148472247D02*
X77704286Y-148329390D01*
X77704286Y-148329390D02*
X77751905Y-148138914D01*
X77751905Y-148138914D02*
X77799524Y-148043676D01*
X77799524Y-148043676D02*
X77894762Y-147948438D01*
X77894762Y-147948438D02*
X78037619Y-147900819D01*
X78037619Y-147900819D02*
X78132857Y-147900819D01*
X78132857Y-147900819D02*
X78275714Y-147948438D01*
X78275714Y-147948438D02*
X78323333Y-147996057D01*
X78704286Y-147996057D02*
X78751905Y-147948438D01*
X78751905Y-147948438D02*
X78847143Y-147900819D01*
X78847143Y-147900819D02*
X79085238Y-147900819D01*
X79085238Y-147900819D02*
X79180476Y-147948438D01*
X79180476Y-147948438D02*
X79228095Y-147996057D01*
X79228095Y-147996057D02*
X79275714Y-148091295D01*
X79275714Y-148091295D02*
X79275714Y-148186533D01*
X79275714Y-148186533D02*
X79228095Y-148329390D01*
X79228095Y-148329390D02*
X78656667Y-148900819D01*
X78656667Y-148900819D02*
X79275714Y-148900819D01*
X49760819Y-59371333D02*
X50475104Y-59371333D01*
X50475104Y-59371333D02*
X50617961Y-59418952D01*
X50617961Y-59418952D02*
X50713200Y-59514190D01*
X50713200Y-59514190D02*
X50760819Y-59657047D01*
X50760819Y-59657047D02*
X50760819Y-59752285D01*
X50094152Y-58466571D02*
X50760819Y-58466571D01*
X49713200Y-58704666D02*
X50427485Y-58942761D01*
X50427485Y-58942761D02*
X50427485Y-58323714D01*
X73529142Y-68636819D02*
X73195809Y-68160628D01*
X72957714Y-68636819D02*
X72957714Y-67636819D01*
X72957714Y-67636819D02*
X73338666Y-67636819D01*
X73338666Y-67636819D02*
X73433904Y-67684438D01*
X73433904Y-67684438D02*
X73481523Y-67732057D01*
X73481523Y-67732057D02*
X73529142Y-67827295D01*
X73529142Y-67827295D02*
X73529142Y-67970152D01*
X73529142Y-67970152D02*
X73481523Y-68065390D01*
X73481523Y-68065390D02*
X73433904Y-68113009D01*
X73433904Y-68113009D02*
X73338666Y-68160628D01*
X73338666Y-68160628D02*
X72957714Y-68160628D01*
X74481523Y-68636819D02*
X73910095Y-68636819D01*
X74195809Y-68636819D02*
X74195809Y-67636819D01*
X74195809Y-67636819D02*
X74100571Y-67779676D01*
X74100571Y-67779676D02*
X74005333Y-67874914D01*
X74005333Y-67874914D02*
X73910095Y-67922533D01*
X75386285Y-67636819D02*
X74910095Y-67636819D01*
X74910095Y-67636819D02*
X74862476Y-68113009D01*
X74862476Y-68113009D02*
X74910095Y-68065390D01*
X74910095Y-68065390D02*
X75005333Y-68017771D01*
X75005333Y-68017771D02*
X75243428Y-68017771D01*
X75243428Y-68017771D02*
X75338666Y-68065390D01*
X75338666Y-68065390D02*
X75386285Y-68113009D01*
X75386285Y-68113009D02*
X75433904Y-68208247D01*
X75433904Y-68208247D02*
X75433904Y-68446342D01*
X75433904Y-68446342D02*
X75386285Y-68541580D01*
X75386285Y-68541580D02*
X75338666Y-68589200D01*
X75338666Y-68589200D02*
X75243428Y-68636819D01*
X75243428Y-68636819D02*
X75005333Y-68636819D01*
X75005333Y-68636819D02*
X74910095Y-68589200D01*
X74910095Y-68589200D02*
X74862476Y-68541580D01*
X73529142Y-65334819D02*
X73195809Y-64858628D01*
X72957714Y-65334819D02*
X72957714Y-64334819D01*
X72957714Y-64334819D02*
X73338666Y-64334819D01*
X73338666Y-64334819D02*
X73433904Y-64382438D01*
X73433904Y-64382438D02*
X73481523Y-64430057D01*
X73481523Y-64430057D02*
X73529142Y-64525295D01*
X73529142Y-64525295D02*
X73529142Y-64668152D01*
X73529142Y-64668152D02*
X73481523Y-64763390D01*
X73481523Y-64763390D02*
X73433904Y-64811009D01*
X73433904Y-64811009D02*
X73338666Y-64858628D01*
X73338666Y-64858628D02*
X72957714Y-64858628D01*
X74481523Y-65334819D02*
X73910095Y-65334819D01*
X74195809Y-65334819D02*
X74195809Y-64334819D01*
X74195809Y-64334819D02*
X74100571Y-64477676D01*
X74100571Y-64477676D02*
X74005333Y-64572914D01*
X74005333Y-64572914D02*
X73910095Y-64620533D01*
X75338666Y-64668152D02*
X75338666Y-65334819D01*
X75100571Y-64287200D02*
X74862476Y-65001485D01*
X74862476Y-65001485D02*
X75481523Y-65001485D01*
X84348714Y-26254104D02*
X84824904Y-26254104D01*
X84253476Y-26539819D02*
X84586809Y-25539819D01*
X84586809Y-25539819D02*
X84920142Y-26539819D01*
X85777285Y-26539819D02*
X85205857Y-26539819D01*
X85491571Y-26539819D02*
X85491571Y-25539819D01*
X85491571Y-25539819D02*
X85396333Y-25682676D01*
X85396333Y-25682676D02*
X85301095Y-25777914D01*
X85301095Y-25777914D02*
X85205857Y-25825533D01*
X142363142Y-62032819D02*
X142029809Y-61556628D01*
X141791714Y-62032819D02*
X141791714Y-61032819D01*
X141791714Y-61032819D02*
X142172666Y-61032819D01*
X142172666Y-61032819D02*
X142267904Y-61080438D01*
X142267904Y-61080438D02*
X142315523Y-61128057D01*
X142315523Y-61128057D02*
X142363142Y-61223295D01*
X142363142Y-61223295D02*
X142363142Y-61366152D01*
X142363142Y-61366152D02*
X142315523Y-61461390D01*
X142315523Y-61461390D02*
X142267904Y-61509009D01*
X142267904Y-61509009D02*
X142172666Y-61556628D01*
X142172666Y-61556628D02*
X141791714Y-61556628D01*
X142696476Y-61032819D02*
X143315523Y-61032819D01*
X143315523Y-61032819D02*
X142982190Y-61413771D01*
X142982190Y-61413771D02*
X143125047Y-61413771D01*
X143125047Y-61413771D02*
X143220285Y-61461390D01*
X143220285Y-61461390D02*
X143267904Y-61509009D01*
X143267904Y-61509009D02*
X143315523Y-61604247D01*
X143315523Y-61604247D02*
X143315523Y-61842342D01*
X143315523Y-61842342D02*
X143267904Y-61937580D01*
X143267904Y-61937580D02*
X143220285Y-61985200D01*
X143220285Y-61985200D02*
X143125047Y-62032819D01*
X143125047Y-62032819D02*
X142839333Y-62032819D01*
X142839333Y-62032819D02*
X142744095Y-61985200D01*
X142744095Y-61985200D02*
X142696476Y-61937580D01*
X143791714Y-62032819D02*
X143982190Y-62032819D01*
X143982190Y-62032819D02*
X144077428Y-61985200D01*
X144077428Y-61985200D02*
X144125047Y-61937580D01*
X144125047Y-61937580D02*
X144220285Y-61794723D01*
X144220285Y-61794723D02*
X144267904Y-61604247D01*
X144267904Y-61604247D02*
X144267904Y-61223295D01*
X144267904Y-61223295D02*
X144220285Y-61128057D01*
X144220285Y-61128057D02*
X144172666Y-61080438D01*
X144172666Y-61080438D02*
X144077428Y-61032819D01*
X144077428Y-61032819D02*
X143886952Y-61032819D01*
X143886952Y-61032819D02*
X143791714Y-61080438D01*
X143791714Y-61080438D02*
X143744095Y-61128057D01*
X143744095Y-61128057D02*
X143696476Y-61223295D01*
X143696476Y-61223295D02*
X143696476Y-61461390D01*
X143696476Y-61461390D02*
X143744095Y-61556628D01*
X143744095Y-61556628D02*
X143791714Y-61604247D01*
X143791714Y-61604247D02*
X143886952Y-61651866D01*
X143886952Y-61651866D02*
X144077428Y-61651866D01*
X144077428Y-61651866D02*
X144172666Y-61604247D01*
X144172666Y-61604247D02*
X144220285Y-61556628D01*
X144220285Y-61556628D02*
X144267904Y-61461390D01*
X73529142Y-62032819D02*
X73195809Y-61556628D01*
X72957714Y-62032819D02*
X72957714Y-61032819D01*
X72957714Y-61032819D02*
X73338666Y-61032819D01*
X73338666Y-61032819D02*
X73433904Y-61080438D01*
X73433904Y-61080438D02*
X73481523Y-61128057D01*
X73481523Y-61128057D02*
X73529142Y-61223295D01*
X73529142Y-61223295D02*
X73529142Y-61366152D01*
X73529142Y-61366152D02*
X73481523Y-61461390D01*
X73481523Y-61461390D02*
X73433904Y-61509009D01*
X73433904Y-61509009D02*
X73338666Y-61556628D01*
X73338666Y-61556628D02*
X72957714Y-61556628D01*
X74481523Y-62032819D02*
X73910095Y-62032819D01*
X74195809Y-62032819D02*
X74195809Y-61032819D01*
X74195809Y-61032819D02*
X74100571Y-61175676D01*
X74100571Y-61175676D02*
X74005333Y-61270914D01*
X74005333Y-61270914D02*
X73910095Y-61318533D01*
X74814857Y-61032819D02*
X75433904Y-61032819D01*
X75433904Y-61032819D02*
X75100571Y-61413771D01*
X75100571Y-61413771D02*
X75243428Y-61413771D01*
X75243428Y-61413771D02*
X75338666Y-61461390D01*
X75338666Y-61461390D02*
X75386285Y-61509009D01*
X75386285Y-61509009D02*
X75433904Y-61604247D01*
X75433904Y-61604247D02*
X75433904Y-61842342D01*
X75433904Y-61842342D02*
X75386285Y-61937580D01*
X75386285Y-61937580D02*
X75338666Y-61985200D01*
X75338666Y-61985200D02*
X75243428Y-62032819D01*
X75243428Y-62032819D02*
X74957714Y-62032819D01*
X74957714Y-62032819D02*
X74862476Y-61985200D01*
X74862476Y-61985200D02*
X74814857Y-61937580D01*
X147189142Y-105283580D02*
X147141523Y-105331200D01*
X147141523Y-105331200D02*
X146998666Y-105378819D01*
X146998666Y-105378819D02*
X146903428Y-105378819D01*
X146903428Y-105378819D02*
X146760571Y-105331200D01*
X146760571Y-105331200D02*
X146665333Y-105235961D01*
X146665333Y-105235961D02*
X146617714Y-105140723D01*
X146617714Y-105140723D02*
X146570095Y-104950247D01*
X146570095Y-104950247D02*
X146570095Y-104807390D01*
X146570095Y-104807390D02*
X146617714Y-104616914D01*
X146617714Y-104616914D02*
X146665333Y-104521676D01*
X146665333Y-104521676D02*
X146760571Y-104426438D01*
X146760571Y-104426438D02*
X146903428Y-104378819D01*
X146903428Y-104378819D02*
X146998666Y-104378819D01*
X146998666Y-104378819D02*
X147141523Y-104426438D01*
X147141523Y-104426438D02*
X147189142Y-104474057D01*
X148141523Y-105378819D02*
X147570095Y-105378819D01*
X147855809Y-105378819D02*
X147855809Y-104378819D01*
X147855809Y-104378819D02*
X147760571Y-104521676D01*
X147760571Y-104521676D02*
X147665333Y-104616914D01*
X147665333Y-104616914D02*
X147570095Y-104664533D01*
X148998666Y-104712152D02*
X148998666Y-105378819D01*
X148760571Y-104331200D02*
X148522476Y-105045485D01*
X148522476Y-105045485D02*
X149141523Y-105045485D01*
X66131333Y-145757580D02*
X66083714Y-145805200D01*
X66083714Y-145805200D02*
X65940857Y-145852819D01*
X65940857Y-145852819D02*
X65845619Y-145852819D01*
X65845619Y-145852819D02*
X65702762Y-145805200D01*
X65702762Y-145805200D02*
X65607524Y-145709961D01*
X65607524Y-145709961D02*
X65559905Y-145614723D01*
X65559905Y-145614723D02*
X65512286Y-145424247D01*
X65512286Y-145424247D02*
X65512286Y-145281390D01*
X65512286Y-145281390D02*
X65559905Y-145090914D01*
X65559905Y-145090914D02*
X65607524Y-144995676D01*
X65607524Y-144995676D02*
X65702762Y-144900438D01*
X65702762Y-144900438D02*
X65845619Y-144852819D01*
X65845619Y-144852819D02*
X65940857Y-144852819D01*
X65940857Y-144852819D02*
X66083714Y-144900438D01*
X66083714Y-144900438D02*
X66131333Y-144948057D01*
X67036095Y-144852819D02*
X66559905Y-144852819D01*
X66559905Y-144852819D02*
X66512286Y-145329009D01*
X66512286Y-145329009D02*
X66559905Y-145281390D01*
X66559905Y-145281390D02*
X66655143Y-145233771D01*
X66655143Y-145233771D02*
X66893238Y-145233771D01*
X66893238Y-145233771D02*
X66988476Y-145281390D01*
X66988476Y-145281390D02*
X67036095Y-145329009D01*
X67036095Y-145329009D02*
X67083714Y-145424247D01*
X67083714Y-145424247D02*
X67083714Y-145662342D01*
X67083714Y-145662342D02*
X67036095Y-145757580D01*
X67036095Y-145757580D02*
X66988476Y-145805200D01*
X66988476Y-145805200D02*
X66893238Y-145852819D01*
X66893238Y-145852819D02*
X66655143Y-145852819D01*
X66655143Y-145852819D02*
X66559905Y-145805200D01*
X66559905Y-145805200D02*
X66512286Y-145757580D01*
X68704666Y-157437295D02*
X68323714Y-157437295D01*
X68323714Y-157437295D02*
X68323714Y-156637295D01*
X69390380Y-157437295D02*
X68933237Y-157437295D01*
X69161809Y-157437295D02*
X69161809Y-156637295D01*
X69161809Y-156637295D02*
X69085618Y-156751580D01*
X69085618Y-156751580D02*
X69009428Y-156827771D01*
X69009428Y-156827771D02*
X68933237Y-156865866D01*
X73529142Y-96068819D02*
X73195809Y-95592628D01*
X72957714Y-96068819D02*
X72957714Y-95068819D01*
X72957714Y-95068819D02*
X73338666Y-95068819D01*
X73338666Y-95068819D02*
X73433904Y-95116438D01*
X73433904Y-95116438D02*
X73481523Y-95164057D01*
X73481523Y-95164057D02*
X73529142Y-95259295D01*
X73529142Y-95259295D02*
X73529142Y-95402152D01*
X73529142Y-95402152D02*
X73481523Y-95497390D01*
X73481523Y-95497390D02*
X73433904Y-95545009D01*
X73433904Y-95545009D02*
X73338666Y-95592628D01*
X73338666Y-95592628D02*
X72957714Y-95592628D01*
X73910095Y-95164057D02*
X73957714Y-95116438D01*
X73957714Y-95116438D02*
X74052952Y-95068819D01*
X74052952Y-95068819D02*
X74291047Y-95068819D01*
X74291047Y-95068819D02*
X74386285Y-95116438D01*
X74386285Y-95116438D02*
X74433904Y-95164057D01*
X74433904Y-95164057D02*
X74481523Y-95259295D01*
X74481523Y-95259295D02*
X74481523Y-95354533D01*
X74481523Y-95354533D02*
X74433904Y-95497390D01*
X74433904Y-95497390D02*
X73862476Y-96068819D01*
X73862476Y-96068819D02*
X74481523Y-96068819D01*
X74862476Y-95164057D02*
X74910095Y-95116438D01*
X74910095Y-95116438D02*
X75005333Y-95068819D01*
X75005333Y-95068819D02*
X75243428Y-95068819D01*
X75243428Y-95068819D02*
X75338666Y-95116438D01*
X75338666Y-95116438D02*
X75386285Y-95164057D01*
X75386285Y-95164057D02*
X75433904Y-95259295D01*
X75433904Y-95259295D02*
X75433904Y-95354533D01*
X75433904Y-95354533D02*
X75386285Y-95497390D01*
X75386285Y-95497390D02*
X74814857Y-96068819D01*
X74814857Y-96068819D02*
X75433904Y-96068819D01*
X68524642Y-105283580D02*
X68477023Y-105331200D01*
X68477023Y-105331200D02*
X68334166Y-105378819D01*
X68334166Y-105378819D02*
X68238928Y-105378819D01*
X68238928Y-105378819D02*
X68096071Y-105331200D01*
X68096071Y-105331200D02*
X68000833Y-105235961D01*
X68000833Y-105235961D02*
X67953214Y-105140723D01*
X67953214Y-105140723D02*
X67905595Y-104950247D01*
X67905595Y-104950247D02*
X67905595Y-104807390D01*
X67905595Y-104807390D02*
X67953214Y-104616914D01*
X67953214Y-104616914D02*
X68000833Y-104521676D01*
X68000833Y-104521676D02*
X68096071Y-104426438D01*
X68096071Y-104426438D02*
X68238928Y-104378819D01*
X68238928Y-104378819D02*
X68334166Y-104378819D01*
X68334166Y-104378819D02*
X68477023Y-104426438D01*
X68477023Y-104426438D02*
X68524642Y-104474057D01*
X69477023Y-105378819D02*
X68905595Y-105378819D01*
X69191309Y-105378819D02*
X69191309Y-104378819D01*
X69191309Y-104378819D02*
X69096071Y-104521676D01*
X69096071Y-104521676D02*
X69000833Y-104616914D01*
X69000833Y-104616914D02*
X68905595Y-104664533D01*
X70096071Y-104378819D02*
X70191309Y-104378819D01*
X70191309Y-104378819D02*
X70286547Y-104426438D01*
X70286547Y-104426438D02*
X70334166Y-104474057D01*
X70334166Y-104474057D02*
X70381785Y-104569295D01*
X70381785Y-104569295D02*
X70429404Y-104759771D01*
X70429404Y-104759771D02*
X70429404Y-104997866D01*
X70429404Y-104997866D02*
X70381785Y-105188342D01*
X70381785Y-105188342D02*
X70334166Y-105283580D01*
X70334166Y-105283580D02*
X70286547Y-105331200D01*
X70286547Y-105331200D02*
X70191309Y-105378819D01*
X70191309Y-105378819D02*
X70096071Y-105378819D01*
X70096071Y-105378819D02*
X70000833Y-105331200D01*
X70000833Y-105331200D02*
X69953214Y-105283580D01*
X69953214Y-105283580D02*
X69905595Y-105188342D01*
X69905595Y-105188342D02*
X69857976Y-104997866D01*
X69857976Y-104997866D02*
X69857976Y-104759771D01*
X69857976Y-104759771D02*
X69905595Y-104569295D01*
X69905595Y-104569295D02*
X69953214Y-104474057D01*
X69953214Y-104474057D02*
X70000833Y-104426438D01*
X70000833Y-104426438D02*
X70096071Y-104378819D01*
X128615333Y-140010819D02*
X128282000Y-139534628D01*
X128043905Y-140010819D02*
X128043905Y-139010819D01*
X128043905Y-139010819D02*
X128424857Y-139010819D01*
X128424857Y-139010819D02*
X128520095Y-139058438D01*
X128520095Y-139058438D02*
X128567714Y-139106057D01*
X128567714Y-139106057D02*
X128615333Y-139201295D01*
X128615333Y-139201295D02*
X128615333Y-139344152D01*
X128615333Y-139344152D02*
X128567714Y-139439390D01*
X128567714Y-139439390D02*
X128520095Y-139487009D01*
X128520095Y-139487009D02*
X128424857Y-139534628D01*
X128424857Y-139534628D02*
X128043905Y-139534628D01*
X129472476Y-139010819D02*
X129282000Y-139010819D01*
X129282000Y-139010819D02*
X129186762Y-139058438D01*
X129186762Y-139058438D02*
X129139143Y-139106057D01*
X129139143Y-139106057D02*
X129043905Y-139248914D01*
X129043905Y-139248914D02*
X128996286Y-139439390D01*
X128996286Y-139439390D02*
X128996286Y-139820342D01*
X128996286Y-139820342D02*
X129043905Y-139915580D01*
X129043905Y-139915580D02*
X129091524Y-139963200D01*
X129091524Y-139963200D02*
X129186762Y-140010819D01*
X129186762Y-140010819D02*
X129377238Y-140010819D01*
X129377238Y-140010819D02*
X129472476Y-139963200D01*
X129472476Y-139963200D02*
X129520095Y-139915580D01*
X129520095Y-139915580D02*
X129567714Y-139820342D01*
X129567714Y-139820342D02*
X129567714Y-139582247D01*
X129567714Y-139582247D02*
X129520095Y-139487009D01*
X129520095Y-139487009D02*
X129472476Y-139439390D01*
X129472476Y-139439390D02*
X129377238Y-139391771D01*
X129377238Y-139391771D02*
X129186762Y-139391771D01*
X129186762Y-139391771D02*
X129091524Y-139439390D01*
X129091524Y-139439390D02*
X129043905Y-139487009D01*
X129043905Y-139487009D02*
X128996286Y-139582247D01*
X142363142Y-96068819D02*
X142029809Y-95592628D01*
X141791714Y-96068819D02*
X141791714Y-95068819D01*
X141791714Y-95068819D02*
X142172666Y-95068819D01*
X142172666Y-95068819D02*
X142267904Y-95116438D01*
X142267904Y-95116438D02*
X142315523Y-95164057D01*
X142315523Y-95164057D02*
X142363142Y-95259295D01*
X142363142Y-95259295D02*
X142363142Y-95402152D01*
X142363142Y-95402152D02*
X142315523Y-95497390D01*
X142315523Y-95497390D02*
X142267904Y-95545009D01*
X142267904Y-95545009D02*
X142172666Y-95592628D01*
X142172666Y-95592628D02*
X141791714Y-95592628D01*
X142696476Y-95068819D02*
X143315523Y-95068819D01*
X143315523Y-95068819D02*
X142982190Y-95449771D01*
X142982190Y-95449771D02*
X143125047Y-95449771D01*
X143125047Y-95449771D02*
X143220285Y-95497390D01*
X143220285Y-95497390D02*
X143267904Y-95545009D01*
X143267904Y-95545009D02*
X143315523Y-95640247D01*
X143315523Y-95640247D02*
X143315523Y-95878342D01*
X143315523Y-95878342D02*
X143267904Y-95973580D01*
X143267904Y-95973580D02*
X143220285Y-96021200D01*
X143220285Y-96021200D02*
X143125047Y-96068819D01*
X143125047Y-96068819D02*
X142839333Y-96068819D01*
X142839333Y-96068819D02*
X142744095Y-96021200D01*
X142744095Y-96021200D02*
X142696476Y-95973580D01*
X144172666Y-95068819D02*
X143982190Y-95068819D01*
X143982190Y-95068819D02*
X143886952Y-95116438D01*
X143886952Y-95116438D02*
X143839333Y-95164057D01*
X143839333Y-95164057D02*
X143744095Y-95306914D01*
X143744095Y-95306914D02*
X143696476Y-95497390D01*
X143696476Y-95497390D02*
X143696476Y-95878342D01*
X143696476Y-95878342D02*
X143744095Y-95973580D01*
X143744095Y-95973580D02*
X143791714Y-96021200D01*
X143791714Y-96021200D02*
X143886952Y-96068819D01*
X143886952Y-96068819D02*
X144077428Y-96068819D01*
X144077428Y-96068819D02*
X144172666Y-96021200D01*
X144172666Y-96021200D02*
X144220285Y-95973580D01*
X144220285Y-95973580D02*
X144267904Y-95878342D01*
X144267904Y-95878342D02*
X144267904Y-95640247D01*
X144267904Y-95640247D02*
X144220285Y-95545009D01*
X144220285Y-95545009D02*
X144172666Y-95497390D01*
X144172666Y-95497390D02*
X144077428Y-95449771D01*
X144077428Y-95449771D02*
X143886952Y-95449771D01*
X143886952Y-95449771D02*
X143791714Y-95497390D01*
X143791714Y-95497390D02*
X143744095Y-95545009D01*
X143744095Y-95545009D02*
X143696476Y-95640247D01*
X66591810Y-50348819D02*
X66591810Y-49348819D01*
X67639428Y-50253580D02*
X67591809Y-50301200D01*
X67591809Y-50301200D02*
X67448952Y-50348819D01*
X67448952Y-50348819D02*
X67353714Y-50348819D01*
X67353714Y-50348819D02*
X67210857Y-50301200D01*
X67210857Y-50301200D02*
X67115619Y-50205961D01*
X67115619Y-50205961D02*
X67068000Y-50110723D01*
X67068000Y-50110723D02*
X67020381Y-49920247D01*
X67020381Y-49920247D02*
X67020381Y-49777390D01*
X67020381Y-49777390D02*
X67068000Y-49586914D01*
X67068000Y-49586914D02*
X67115619Y-49491676D01*
X67115619Y-49491676D02*
X67210857Y-49396438D01*
X67210857Y-49396438D02*
X67353714Y-49348819D01*
X67353714Y-49348819D02*
X67448952Y-49348819D01*
X67448952Y-49348819D02*
X67591809Y-49396438D01*
X67591809Y-49396438D02*
X67639428Y-49444057D01*
X67972762Y-49348819D02*
X68591809Y-49348819D01*
X68591809Y-49348819D02*
X68258476Y-49729771D01*
X68258476Y-49729771D02*
X68401333Y-49729771D01*
X68401333Y-49729771D02*
X68496571Y-49777390D01*
X68496571Y-49777390D02*
X68544190Y-49825009D01*
X68544190Y-49825009D02*
X68591809Y-49920247D01*
X68591809Y-49920247D02*
X68591809Y-50158342D01*
X68591809Y-50158342D02*
X68544190Y-50253580D01*
X68544190Y-50253580D02*
X68496571Y-50301200D01*
X68496571Y-50301200D02*
X68401333Y-50348819D01*
X68401333Y-50348819D02*
X68115619Y-50348819D01*
X68115619Y-50348819D02*
X68020381Y-50301200D01*
X68020381Y-50301200D02*
X67972762Y-50253580D01*
X142363142Y-85400819D02*
X142029809Y-84924628D01*
X141791714Y-85400819D02*
X141791714Y-84400819D01*
X141791714Y-84400819D02*
X142172666Y-84400819D01*
X142172666Y-84400819D02*
X142267904Y-84448438D01*
X142267904Y-84448438D02*
X142315523Y-84496057D01*
X142315523Y-84496057D02*
X142363142Y-84591295D01*
X142363142Y-84591295D02*
X142363142Y-84734152D01*
X142363142Y-84734152D02*
X142315523Y-84829390D01*
X142315523Y-84829390D02*
X142267904Y-84877009D01*
X142267904Y-84877009D02*
X142172666Y-84924628D01*
X142172666Y-84924628D02*
X141791714Y-84924628D01*
X142744095Y-84496057D02*
X142791714Y-84448438D01*
X142791714Y-84448438D02*
X142886952Y-84400819D01*
X142886952Y-84400819D02*
X143125047Y-84400819D01*
X143125047Y-84400819D02*
X143220285Y-84448438D01*
X143220285Y-84448438D02*
X143267904Y-84496057D01*
X143267904Y-84496057D02*
X143315523Y-84591295D01*
X143315523Y-84591295D02*
X143315523Y-84686533D01*
X143315523Y-84686533D02*
X143267904Y-84829390D01*
X143267904Y-84829390D02*
X142696476Y-85400819D01*
X142696476Y-85400819D02*
X143315523Y-85400819D01*
X144172666Y-84400819D02*
X143982190Y-84400819D01*
X143982190Y-84400819D02*
X143886952Y-84448438D01*
X143886952Y-84448438D02*
X143839333Y-84496057D01*
X143839333Y-84496057D02*
X143744095Y-84638914D01*
X143744095Y-84638914D02*
X143696476Y-84829390D01*
X143696476Y-84829390D02*
X143696476Y-85210342D01*
X143696476Y-85210342D02*
X143744095Y-85305580D01*
X143744095Y-85305580D02*
X143791714Y-85353200D01*
X143791714Y-85353200D02*
X143886952Y-85400819D01*
X143886952Y-85400819D02*
X144077428Y-85400819D01*
X144077428Y-85400819D02*
X144172666Y-85353200D01*
X144172666Y-85353200D02*
X144220285Y-85305580D01*
X144220285Y-85305580D02*
X144267904Y-85210342D01*
X144267904Y-85210342D02*
X144267904Y-84972247D01*
X144267904Y-84972247D02*
X144220285Y-84877009D01*
X144220285Y-84877009D02*
X144172666Y-84829390D01*
X144172666Y-84829390D02*
X144077428Y-84781771D01*
X144077428Y-84781771D02*
X143886952Y-84781771D01*
X143886952Y-84781771D02*
X143791714Y-84829390D01*
X143791714Y-84829390D02*
X143744095Y-84877009D01*
X143744095Y-84877009D02*
X143696476Y-84972247D01*
X82133333Y-141788819D02*
X81800000Y-141312628D01*
X81561905Y-141788819D02*
X81561905Y-140788819D01*
X81561905Y-140788819D02*
X81942857Y-140788819D01*
X81942857Y-140788819D02*
X82038095Y-140836438D01*
X82038095Y-140836438D02*
X82085714Y-140884057D01*
X82085714Y-140884057D02*
X82133333Y-140979295D01*
X82133333Y-140979295D02*
X82133333Y-141122152D01*
X82133333Y-141122152D02*
X82085714Y-141217390D01*
X82085714Y-141217390D02*
X82038095Y-141265009D01*
X82038095Y-141265009D02*
X81942857Y-141312628D01*
X81942857Y-141312628D02*
X81561905Y-141312628D01*
X82466667Y-140788819D02*
X83085714Y-140788819D01*
X83085714Y-140788819D02*
X82752381Y-141169771D01*
X82752381Y-141169771D02*
X82895238Y-141169771D01*
X82895238Y-141169771D02*
X82990476Y-141217390D01*
X82990476Y-141217390D02*
X83038095Y-141265009D01*
X83038095Y-141265009D02*
X83085714Y-141360247D01*
X83085714Y-141360247D02*
X83085714Y-141598342D01*
X83085714Y-141598342D02*
X83038095Y-141693580D01*
X83038095Y-141693580D02*
X82990476Y-141741200D01*
X82990476Y-141741200D02*
X82895238Y-141788819D01*
X82895238Y-141788819D02*
X82609524Y-141788819D01*
X82609524Y-141788819D02*
X82514286Y-141741200D01*
X82514286Y-141741200D02*
X82466667Y-141693580D01*
X142363142Y-99116819D02*
X142029809Y-98640628D01*
X141791714Y-99116819D02*
X141791714Y-98116819D01*
X141791714Y-98116819D02*
X142172666Y-98116819D01*
X142172666Y-98116819D02*
X142267904Y-98164438D01*
X142267904Y-98164438D02*
X142315523Y-98212057D01*
X142315523Y-98212057D02*
X142363142Y-98307295D01*
X142363142Y-98307295D02*
X142363142Y-98450152D01*
X142363142Y-98450152D02*
X142315523Y-98545390D01*
X142315523Y-98545390D02*
X142267904Y-98593009D01*
X142267904Y-98593009D02*
X142172666Y-98640628D01*
X142172666Y-98640628D02*
X141791714Y-98640628D01*
X142696476Y-98116819D02*
X143315523Y-98116819D01*
X143315523Y-98116819D02*
X142982190Y-98497771D01*
X142982190Y-98497771D02*
X143125047Y-98497771D01*
X143125047Y-98497771D02*
X143220285Y-98545390D01*
X143220285Y-98545390D02*
X143267904Y-98593009D01*
X143267904Y-98593009D02*
X143315523Y-98688247D01*
X143315523Y-98688247D02*
X143315523Y-98926342D01*
X143315523Y-98926342D02*
X143267904Y-99021580D01*
X143267904Y-99021580D02*
X143220285Y-99069200D01*
X143220285Y-99069200D02*
X143125047Y-99116819D01*
X143125047Y-99116819D02*
X142839333Y-99116819D01*
X142839333Y-99116819D02*
X142744095Y-99069200D01*
X142744095Y-99069200D02*
X142696476Y-99021580D01*
X144220285Y-98116819D02*
X143744095Y-98116819D01*
X143744095Y-98116819D02*
X143696476Y-98593009D01*
X143696476Y-98593009D02*
X143744095Y-98545390D01*
X143744095Y-98545390D02*
X143839333Y-98497771D01*
X143839333Y-98497771D02*
X144077428Y-98497771D01*
X144077428Y-98497771D02*
X144172666Y-98545390D01*
X144172666Y-98545390D02*
X144220285Y-98593009D01*
X144220285Y-98593009D02*
X144267904Y-98688247D01*
X144267904Y-98688247D02*
X144267904Y-98926342D01*
X144267904Y-98926342D02*
X144220285Y-99021580D01*
X144220285Y-99021580D02*
X144172666Y-99069200D01*
X144172666Y-99069200D02*
X144077428Y-99116819D01*
X144077428Y-99116819D02*
X143839333Y-99116819D01*
X143839333Y-99116819D02*
X143744095Y-99069200D01*
X143744095Y-99069200D02*
X143696476Y-99021580D01*
X73529142Y-88448819D02*
X73195809Y-87972628D01*
X72957714Y-88448819D02*
X72957714Y-87448819D01*
X72957714Y-87448819D02*
X73338666Y-87448819D01*
X73338666Y-87448819D02*
X73433904Y-87496438D01*
X73433904Y-87496438D02*
X73481523Y-87544057D01*
X73481523Y-87544057D02*
X73529142Y-87639295D01*
X73529142Y-87639295D02*
X73529142Y-87782152D01*
X73529142Y-87782152D02*
X73481523Y-87877390D01*
X73481523Y-87877390D02*
X73433904Y-87925009D01*
X73433904Y-87925009D02*
X73338666Y-87972628D01*
X73338666Y-87972628D02*
X72957714Y-87972628D01*
X74481523Y-88448819D02*
X73910095Y-88448819D01*
X74195809Y-88448819D02*
X74195809Y-87448819D01*
X74195809Y-87448819D02*
X74100571Y-87591676D01*
X74100571Y-87591676D02*
X74005333Y-87686914D01*
X74005333Y-87686914D02*
X73910095Y-87734533D01*
X75100571Y-87448819D02*
X75195809Y-87448819D01*
X75195809Y-87448819D02*
X75291047Y-87496438D01*
X75291047Y-87496438D02*
X75338666Y-87544057D01*
X75338666Y-87544057D02*
X75386285Y-87639295D01*
X75386285Y-87639295D02*
X75433904Y-87829771D01*
X75433904Y-87829771D02*
X75433904Y-88067866D01*
X75433904Y-88067866D02*
X75386285Y-88258342D01*
X75386285Y-88258342D02*
X75338666Y-88353580D01*
X75338666Y-88353580D02*
X75291047Y-88401200D01*
X75291047Y-88401200D02*
X75195809Y-88448819D01*
X75195809Y-88448819D02*
X75100571Y-88448819D01*
X75100571Y-88448819D02*
X75005333Y-88401200D01*
X75005333Y-88401200D02*
X74957714Y-88353580D01*
X74957714Y-88353580D02*
X74910095Y-88258342D01*
X74910095Y-88258342D02*
X74862476Y-88067866D01*
X74862476Y-88067866D02*
X74862476Y-87829771D01*
X74862476Y-87829771D02*
X74910095Y-87639295D01*
X74910095Y-87639295D02*
X74957714Y-87544057D01*
X74957714Y-87544057D02*
X75005333Y-87496438D01*
X75005333Y-87496438D02*
X75100571Y-87448819D01*
X66738810Y-68284819D02*
X66738810Y-67284819D01*
X67786428Y-68189580D02*
X67738809Y-68237200D01*
X67738809Y-68237200D02*
X67595952Y-68284819D01*
X67595952Y-68284819D02*
X67500714Y-68284819D01*
X67500714Y-68284819D02*
X67357857Y-68237200D01*
X67357857Y-68237200D02*
X67262619Y-68141961D01*
X67262619Y-68141961D02*
X67215000Y-68046723D01*
X67215000Y-68046723D02*
X67167381Y-67856247D01*
X67167381Y-67856247D02*
X67167381Y-67713390D01*
X67167381Y-67713390D02*
X67215000Y-67522914D01*
X67215000Y-67522914D02*
X67262619Y-67427676D01*
X67262619Y-67427676D02*
X67357857Y-67332438D01*
X67357857Y-67332438D02*
X67500714Y-67284819D01*
X67500714Y-67284819D02*
X67595952Y-67284819D01*
X67595952Y-67284819D02*
X67738809Y-67332438D01*
X67738809Y-67332438D02*
X67786428Y-67380057D01*
X68738809Y-68284819D02*
X68167381Y-68284819D01*
X68453095Y-68284819D02*
X68453095Y-67284819D01*
X68453095Y-67284819D02*
X68357857Y-67427676D01*
X68357857Y-67427676D02*
X68262619Y-67522914D01*
X68262619Y-67522914D02*
X68167381Y-67570533D01*
X69179333Y-141439580D02*
X69131714Y-141487200D01*
X69131714Y-141487200D02*
X68988857Y-141534819D01*
X68988857Y-141534819D02*
X68893619Y-141534819D01*
X68893619Y-141534819D02*
X68750762Y-141487200D01*
X68750762Y-141487200D02*
X68655524Y-141391961D01*
X68655524Y-141391961D02*
X68607905Y-141296723D01*
X68607905Y-141296723D02*
X68560286Y-141106247D01*
X68560286Y-141106247D02*
X68560286Y-140963390D01*
X68560286Y-140963390D02*
X68607905Y-140772914D01*
X68607905Y-140772914D02*
X68655524Y-140677676D01*
X68655524Y-140677676D02*
X68750762Y-140582438D01*
X68750762Y-140582438D02*
X68893619Y-140534819D01*
X68893619Y-140534819D02*
X68988857Y-140534819D01*
X68988857Y-140534819D02*
X69131714Y-140582438D01*
X69131714Y-140582438D02*
X69179333Y-140630057D01*
X69512667Y-140534819D02*
X70131714Y-140534819D01*
X70131714Y-140534819D02*
X69798381Y-140915771D01*
X69798381Y-140915771D02*
X69941238Y-140915771D01*
X69941238Y-140915771D02*
X70036476Y-140963390D01*
X70036476Y-140963390D02*
X70084095Y-141011009D01*
X70084095Y-141011009D02*
X70131714Y-141106247D01*
X70131714Y-141106247D02*
X70131714Y-141344342D01*
X70131714Y-141344342D02*
X70084095Y-141439580D01*
X70084095Y-141439580D02*
X70036476Y-141487200D01*
X70036476Y-141487200D02*
X69941238Y-141534819D01*
X69941238Y-141534819D02*
X69655524Y-141534819D01*
X69655524Y-141534819D02*
X69560286Y-141487200D01*
X69560286Y-141487200D02*
X69512667Y-141439580D01*
X63083333Y-146360819D02*
X62750000Y-145884628D01*
X62511905Y-146360819D02*
X62511905Y-145360819D01*
X62511905Y-145360819D02*
X62892857Y-145360819D01*
X62892857Y-145360819D02*
X62988095Y-145408438D01*
X62988095Y-145408438D02*
X63035714Y-145456057D01*
X63035714Y-145456057D02*
X63083333Y-145551295D01*
X63083333Y-145551295D02*
X63083333Y-145694152D01*
X63083333Y-145694152D02*
X63035714Y-145789390D01*
X63035714Y-145789390D02*
X62988095Y-145837009D01*
X62988095Y-145837009D02*
X62892857Y-145884628D01*
X62892857Y-145884628D02*
X62511905Y-145884628D01*
X63464286Y-145456057D02*
X63511905Y-145408438D01*
X63511905Y-145408438D02*
X63607143Y-145360819D01*
X63607143Y-145360819D02*
X63845238Y-145360819D01*
X63845238Y-145360819D02*
X63940476Y-145408438D01*
X63940476Y-145408438D02*
X63988095Y-145456057D01*
X63988095Y-145456057D02*
X64035714Y-145551295D01*
X64035714Y-145551295D02*
X64035714Y-145646533D01*
X64035714Y-145646533D02*
X63988095Y-145789390D01*
X63988095Y-145789390D02*
X63416667Y-146360819D01*
X63416667Y-146360819D02*
X64035714Y-146360819D01*
D13*
%TO.C,J7*%
X165780000Y-52603000D02*
X165780000Y-54023000D01*
X160020000Y-52603000D02*
X165780000Y-52603000D01*
X158500000Y-52603000D02*
X158190000Y-52603000D01*
X158190000Y-52603000D02*
X158190000Y-65473000D01*
X165780000Y-54023000D02*
X165280000Y-54023000D01*
X165280000Y-54023000D02*
X165280000Y-64053000D01*
X165780000Y-64053000D02*
X165780000Y-65473000D01*
X165280000Y-64053000D02*
X165780000Y-64053000D01*
X165780000Y-65473000D02*
X160020000Y-65473000D01*
X158190000Y-65473000D02*
X158500000Y-65473000D01*
%TO.C,R1*%
X75969000Y-133999936D02*
X75969000Y-134454064D01*
X74499000Y-133999936D02*
X74499000Y-134454064D01*
D11*
%TO.C,IC7*%
X147386000Y-61699000D02*
X147386000Y-61749000D01*
X147386000Y-61699000D02*
X151536000Y-61699000D01*
X147386000Y-61749000D02*
X145986000Y-61749000D01*
X147386000Y-66849000D02*
X147386000Y-66704000D01*
X147386000Y-66849000D02*
X151536000Y-66849000D01*
X151536000Y-61699000D02*
X151536000Y-61844000D01*
X151536000Y-66849000D02*
X151536000Y-66704000D01*
D13*
%TO.C,C11*%
X137302165Y-79760000D02*
X137533835Y-79760000D01*
X137302165Y-80480000D02*
X137533835Y-80480000D01*
%TO.C,C1*%
X76453252Y-152139000D02*
X75030748Y-152139000D01*
X76453252Y-150319000D02*
X75030748Y-150319000D01*
D11*
%TO.C,IC8*%
X147386000Y-107549000D02*
X147386000Y-107599000D01*
X147386000Y-107549000D02*
X151536000Y-107549000D01*
X147386000Y-107599000D02*
X145986000Y-107599000D01*
X147386000Y-112699000D02*
X147386000Y-112554000D01*
X147386000Y-112699000D02*
X151536000Y-112699000D01*
X151536000Y-107549000D02*
X151536000Y-107694000D01*
X151536000Y-112699000D02*
X151536000Y-112554000D01*
D13*
%TO.C,C7*%
X79816335Y-80480000D02*
X79584665Y-80480000D01*
X79816335Y-79760000D02*
X79584665Y-79760000D01*
%TO.C,R4*%
X78771000Y-138518064D02*
X78771000Y-138063936D01*
X80241000Y-138518064D02*
X80241000Y-138063936D01*
%TO.C,R29*%
X139491064Y-72394000D02*
X138036936Y-72394000D01*
X139491064Y-70574000D02*
X138036936Y-70574000D01*
%TO.C,C8*%
X79816335Y-82512000D02*
X79584665Y-82512000D01*
X79816335Y-81792000D02*
X79584665Y-81792000D01*
%TO.C,J6*%
X53310000Y-76264000D02*
X52570000Y-76264000D01*
X52570000Y-76264000D02*
X52570000Y-76764000D01*
X64130000Y-76504000D02*
X52810000Y-76504000D01*
X64130000Y-76504000D02*
X64130000Y-86784000D01*
X62070000Y-76504000D02*
X62070000Y-86784000D01*
X55870000Y-76504000D02*
X55870000Y-86784000D01*
X53370000Y-76504000D02*
X53370000Y-86784000D01*
X52810000Y-76504000D02*
X52810000Y-86784000D01*
X56889000Y-77556000D02*
X56782000Y-77450000D01*
X56623000Y-77822000D02*
X56516000Y-77716000D01*
X59824000Y-80492000D02*
X59717000Y-80385000D01*
X59558000Y-80758000D02*
X59451000Y-80651000D01*
X57178000Y-82926000D02*
X56782000Y-82531000D01*
X56896000Y-83177000D02*
X56516000Y-82797000D01*
X59824000Y-85572000D02*
X59444000Y-85192000D01*
X59558000Y-85838000D02*
X59162000Y-85443000D01*
X64130000Y-86784000D02*
X52810000Y-86784000D01*
X60350000Y-79104000D02*
G75*
G03*
X60350000Y-79104000I-2180000J0D01*
G01*
X60350000Y-84184000D02*
G75*
G03*
X60350000Y-84184000I-2180000J0D01*
G01*
%TO.C,R32*%
X138036936Y-53336000D02*
X139491064Y-53336000D01*
X138036936Y-55156000D02*
X139491064Y-55156000D01*
%TO.C,R30*%
X139491064Y-91952000D02*
X138036936Y-91952000D01*
X139491064Y-90132000D02*
X138036936Y-90132000D01*
%TO.C,U1*%
X73828000Y-143218000D02*
X73828000Y-145018000D01*
X73828000Y-143218000D02*
X73828000Y-142418000D01*
X76948000Y-143218000D02*
X76948000Y-144018000D01*
X76948000Y-143218000D02*
X76948000Y-142418000D01*
%TO.C,J1*%
X94700000Y-153052000D02*
X94700000Y-153792000D01*
X94700000Y-153792000D02*
X95200000Y-153792000D01*
X94940000Y-142232000D02*
X94940000Y-153552000D01*
X94940000Y-142232000D02*
X105220000Y-142232000D01*
X94940000Y-144292000D02*
X105220000Y-144292000D01*
X94940000Y-150492000D02*
X105220000Y-150492000D01*
X94940000Y-152992000D02*
X105220000Y-152992000D01*
X94940000Y-153552000D02*
X105220000Y-153552000D01*
X95992000Y-149473000D02*
X95886000Y-149580000D01*
X96258000Y-149739000D02*
X96152000Y-149846000D01*
X98928000Y-146538000D02*
X98821000Y-146645000D01*
X99194000Y-146804000D02*
X99087000Y-146911000D01*
X101362000Y-149184000D02*
X100967000Y-149580000D01*
X101613000Y-149466000D02*
X101233000Y-149846000D01*
X104008000Y-146538000D02*
X103628000Y-146918000D01*
X104274000Y-146804000D02*
X103879000Y-147200000D01*
X105220000Y-142232000D02*
X105220000Y-153552000D01*
X99720000Y-148192000D02*
G75*
G03*
X99720000Y-148192000I-2180000J0D01*
G01*
X104800000Y-148192000D02*
G75*
G03*
X104800000Y-148192000I-2180000J0D01*
G01*
%TO.C,R37*%
X138036936Y-67272000D02*
X139491064Y-67272000D01*
X138036936Y-69092000D02*
X139491064Y-69092000D01*
%TO.C,C6*%
X86083000Y-137992248D02*
X86083000Y-138514752D01*
X84613000Y-137992248D02*
X84613000Y-138514752D01*
%TO.C,R11*%
X77736936Y-70574000D02*
X79191064Y-70574000D01*
X77736936Y-72394000D02*
X79191064Y-72394000D01*
%TO.C,R21*%
X77710936Y-56638000D02*
X79165064Y-56638000D01*
X77710936Y-58458000D02*
X79165064Y-58458000D01*
%TO.C,R23*%
X77736936Y-97790000D02*
X79191064Y-97790000D01*
X77736936Y-99610000D02*
X79191064Y-99610000D01*
%TO.C,R16*%
X79217064Y-107738000D02*
X77762936Y-107738000D01*
X79217064Y-105918000D02*
X77762936Y-105918000D01*
%TO.C,R5*%
X126215000Y-143392936D02*
X126215000Y-143847064D01*
X124745000Y-143392936D02*
X124745000Y-143847064D01*
D11*
%TO.C,IC2*%
X69790000Y-112699000D02*
X69790000Y-112649000D01*
X69790000Y-112699000D02*
X65640000Y-112699000D01*
X69790000Y-112649000D02*
X71190000Y-112649000D01*
X69790000Y-107549000D02*
X69790000Y-107694000D01*
X69790000Y-107549000D02*
X65640000Y-107549000D01*
X65640000Y-112699000D02*
X65640000Y-112554000D01*
X65640000Y-107549000D02*
X65640000Y-107694000D01*
D13*
%TO.C,R31*%
X138036936Y-56604000D02*
X139491064Y-56604000D01*
X138036936Y-58424000D02*
X139491064Y-58424000D01*
%TO.C,C12*%
X137302165Y-81792000D02*
X137533835Y-81792000D01*
X137302165Y-82512000D02*
X137533835Y-82512000D01*
%TO.C,R7*%
X77736936Y-76670000D02*
X79191064Y-76670000D01*
X77736936Y-78490000D02*
X79191064Y-78490000D01*
D11*
%TO.C,IC6*%
X147386000Y-97141000D02*
X147386000Y-97191000D01*
X147386000Y-97141000D02*
X151536000Y-97141000D01*
X147386000Y-97191000D02*
X145986000Y-97191000D01*
X147386000Y-102291000D02*
X147386000Y-102146000D01*
X147386000Y-102291000D02*
X151536000Y-102291000D01*
X151536000Y-97141000D02*
X151536000Y-97286000D01*
X151536000Y-102291000D02*
X151536000Y-102146000D01*
D13*
%TO.C,R18*%
X79217064Y-113834000D02*
X77762936Y-113834000D01*
X79217064Y-112014000D02*
X77762936Y-112014000D01*
%TO.C,R27*%
X138036936Y-73622000D02*
X139491064Y-73622000D01*
X138036936Y-75442000D02*
X139491064Y-75442000D01*
%TO.C,C9*%
X65936267Y-59580000D02*
X65643733Y-59580000D01*
X65936267Y-58560000D02*
X65643733Y-58560000D01*
%TO.C,R25*%
X139491064Y-78490000D02*
X138036936Y-78490000D01*
X139491064Y-76670000D02*
X138036936Y-76670000D01*
%TO.C,J2*%
X144470000Y-153332000D02*
X144470000Y-152002000D01*
X145800000Y-153332000D02*
X144470000Y-153332000D01*
X147070000Y-153332000D02*
X149670000Y-153332000D01*
X147070000Y-153332000D02*
X147070000Y-150672000D01*
X149670000Y-153332000D02*
X149670000Y-150672000D01*
X147070000Y-150672000D02*
X149670000Y-150672000D01*
%TO.C,R38*%
X139491064Y-65790000D02*
X138036936Y-65790000D01*
X139491064Y-63970000D02*
X138036936Y-63970000D01*
%TO.C,JP1*%
X74680000Y-137145000D02*
X75280000Y-137145000D01*
X75980000Y-137845000D02*
X75980000Y-139245000D01*
X73980000Y-139245000D02*
X73980000Y-137845000D01*
X75280000Y-139945000D02*
X74680000Y-139945000D01*
X75980000Y-137845000D02*
G75*
G03*
X75280000Y-137145000I-699999J1D01*
G01*
X74680000Y-137145000D02*
G75*
G03*
X73980000Y-137845000I-1J-699999D01*
G01*
X75280000Y-139945000D02*
G75*
G03*
X75980000Y-139245000I0J700000D01*
G01*
X73980000Y-139245000D02*
G75*
G03*
X74680000Y-139945000I700000J0D01*
G01*
%TO.C,C13*%
X151433767Y-59580000D02*
X151141233Y-59580000D01*
X151433767Y-58560000D02*
X151141233Y-58560000D01*
%TO.C,J8*%
X165780000Y-98419000D02*
X165780000Y-99839000D01*
X160020000Y-98419000D02*
X165780000Y-98419000D01*
X158500000Y-98419000D02*
X158190000Y-98419000D01*
X158190000Y-98419000D02*
X158190000Y-111289000D01*
X165780000Y-99839000D02*
X165280000Y-99839000D01*
X165280000Y-99839000D02*
X165280000Y-109869000D01*
X165780000Y-109869000D02*
X165780000Y-111289000D01*
X165280000Y-109869000D02*
X165780000Y-109869000D01*
X165780000Y-111289000D02*
X160020000Y-111289000D01*
X158190000Y-111289000D02*
X158500000Y-111289000D01*
D11*
%TO.C,IC4*%
X69790000Y-102291000D02*
X69790000Y-102241000D01*
X69790000Y-102291000D02*
X65640000Y-102291000D01*
X69790000Y-102241000D02*
X71190000Y-102241000D01*
X69790000Y-97141000D02*
X69790000Y-97286000D01*
X69790000Y-97141000D02*
X65640000Y-97141000D01*
X65640000Y-102291000D02*
X65640000Y-102146000D01*
X65640000Y-97141000D02*
X65640000Y-97286000D01*
D13*
%TO.C,J3*%
X120843000Y-153332000D02*
X120843000Y-152002000D01*
X122173000Y-153332000D02*
X120843000Y-153332000D01*
X123443000Y-153332000D02*
X126043000Y-153332000D01*
X123443000Y-153332000D02*
X123443000Y-150672000D01*
X126043000Y-153332000D02*
X126043000Y-150672000D01*
X123443000Y-150672000D02*
X126043000Y-150672000D01*
D11*
%TO.C,IC5*%
X147386000Y-51291000D02*
X147386000Y-51341000D01*
X147386000Y-51291000D02*
X151536000Y-51291000D01*
X147386000Y-51341000D02*
X145986000Y-51341000D01*
X147386000Y-56441000D02*
X147386000Y-56296000D01*
X147386000Y-56441000D02*
X151536000Y-56441000D01*
X151536000Y-51291000D02*
X151536000Y-51436000D01*
X151536000Y-56441000D02*
X151536000Y-56296000D01*
D13*
%TO.C,R20*%
X77710936Y-53336000D02*
X79165064Y-53336000D01*
X77710936Y-55156000D02*
X79165064Y-55156000D01*
%TO.C,R24*%
X77736936Y-100838000D02*
X79191064Y-100838000D01*
X77736936Y-102658000D02*
X79191064Y-102658000D01*
%TO.C,R19*%
X79139064Y-51854000D02*
X77684936Y-51854000D01*
X79139064Y-50034000D02*
X77684936Y-50034000D01*
%TO.C,R34*%
X138036936Y-100838000D02*
X139491064Y-100838000D01*
X138036936Y-102658000D02*
X139491064Y-102658000D01*
%TO.C,R42*%
X139491064Y-107738000D02*
X138036936Y-107738000D01*
X139491064Y-105918000D02*
X138036936Y-105918000D01*
%TO.C,R40*%
X138036936Y-112014000D02*
X139491064Y-112014000D01*
X138036936Y-113834000D02*
X139491064Y-113834000D01*
%TO.C,R17*%
X79217064Y-110786000D02*
X77762936Y-110786000D01*
X79217064Y-108966000D02*
X77762936Y-108966000D01*
D14*
%TO.C,JP2*%
X91785000Y-151245000D02*
X91785000Y-151245000D01*
X91785000Y-151245000D02*
X91785000Y-151245000D01*
X91685000Y-151245000D02*
X91685000Y-151245000D01*
X91160000Y-152845000D02*
X81660000Y-152845000D01*
X91160000Y-149645000D02*
X91160000Y-152845000D01*
X81660000Y-152845000D02*
X81660000Y-149645000D01*
X81660000Y-149645000D02*
X91160000Y-149645000D01*
X91685000Y-151245000D02*
G75*
G03*
X91785000Y-151245000I50000J0D01*
G01*
X91785000Y-151245000D02*
G75*
G03*
X91685000Y-151245000I-50000J0D01*
G01*
X91785000Y-151245000D02*
G75*
G03*
X91685000Y-151245000I-50000J0D01*
G01*
D13*
%TO.C,R41*%
X139491064Y-110786000D02*
X138036936Y-110786000D01*
X139491064Y-108966000D02*
X138036936Y-108966000D01*
%TO.C,J9*%
X163866000Y-87034000D02*
X164606000Y-87034000D01*
X164606000Y-87034000D02*
X164606000Y-86534000D01*
X153046000Y-86794000D02*
X164366000Y-86794000D01*
X153046000Y-86794000D02*
X153046000Y-76514000D01*
X155106000Y-86794000D02*
X155106000Y-76514000D01*
X161306000Y-86794000D02*
X161306000Y-76514000D01*
X163806000Y-86794000D02*
X163806000Y-76514000D01*
X164366000Y-86794000D02*
X164366000Y-76514000D01*
X160287000Y-85742000D02*
X160394000Y-85848000D01*
X160553000Y-85476000D02*
X160660000Y-85582000D01*
X157352000Y-82806000D02*
X157459000Y-82913000D01*
X157618000Y-82540000D02*
X157725000Y-82647000D01*
X159998000Y-80372000D02*
X160394000Y-80767000D01*
X160280000Y-80121000D02*
X160660000Y-80501000D01*
X157352000Y-77726000D02*
X157732000Y-78106000D01*
X157618000Y-77460000D02*
X158014000Y-77855000D01*
X153046000Y-76514000D02*
X164366000Y-76514000D01*
X161186000Y-84194000D02*
G75*
G03*
X161186000Y-84194000I-2180000J0D01*
G01*
X161186000Y-79114000D02*
G75*
G03*
X161186000Y-79114000I-2180000J0D01*
G01*
%TO.C,J5*%
X51396000Y-111351000D02*
X51396000Y-109931000D01*
X57156000Y-111351000D02*
X51396000Y-111351000D01*
X58676000Y-111351000D02*
X58986000Y-111351000D01*
X58986000Y-111351000D02*
X58986000Y-98481000D01*
X51396000Y-109931000D02*
X51896000Y-109931000D01*
X51896000Y-109931000D02*
X51896000Y-99901000D01*
X51396000Y-99901000D02*
X51396000Y-98481000D01*
X51896000Y-99901000D02*
X51396000Y-99901000D01*
X51396000Y-98481000D02*
X57156000Y-98481000D01*
X58986000Y-98481000D02*
X58676000Y-98481000D01*
%TO.C,R33*%
X138036936Y-50000000D02*
X139491064Y-50000000D01*
X138036936Y-51820000D02*
X139491064Y-51820000D01*
%TO.C,R9*%
X79191064Y-75442000D02*
X77736936Y-75442000D01*
X79191064Y-73622000D02*
X77736936Y-73622000D01*
%TO.C,R28*%
X138036936Y-87084000D02*
X139491064Y-87084000D01*
X138036936Y-88904000D02*
X139491064Y-88904000D01*
%TO.C,R12*%
X77762936Y-90132000D02*
X79217064Y-90132000D01*
X77762936Y-91952000D02*
X79217064Y-91952000D01*
%TO.C,R8*%
X77762936Y-84036000D02*
X79217064Y-84036000D01*
X77762936Y-85856000D02*
X79217064Y-85856000D01*
%TO.C,C4*%
X68990000Y-149692752D02*
X68990000Y-148270248D01*
X70810000Y-149692752D02*
X70810000Y-148270248D01*
%TO.C,C2*%
X75572267Y-148945000D02*
X75279733Y-148945000D01*
X75572267Y-147925000D02*
X75279733Y-147925000D01*
%TO.C,J4*%
X51396000Y-65473000D02*
X51396000Y-64053000D01*
X57156000Y-65473000D02*
X51396000Y-65473000D01*
X58676000Y-65473000D02*
X58986000Y-65473000D01*
X58986000Y-65473000D02*
X58986000Y-52603000D01*
X51396000Y-64053000D02*
X51896000Y-64053000D01*
X51896000Y-64053000D02*
X51896000Y-54023000D01*
X51396000Y-54023000D02*
X51396000Y-52603000D01*
X51896000Y-54023000D02*
X51396000Y-54023000D01*
X51396000Y-52603000D02*
X57156000Y-52603000D01*
X58986000Y-52603000D02*
X58676000Y-52603000D01*
%TO.C,R15*%
X79191064Y-69092000D02*
X77736936Y-69092000D01*
X79191064Y-67272000D02*
X77736936Y-67272000D01*
%TO.C,R14*%
X79165064Y-65824000D02*
X77710936Y-65824000D01*
X79165064Y-64004000D02*
X77710936Y-64004000D01*
D15*
%TO.C,A1*%
X81918000Y-29230000D02*
X85218000Y-29230000D01*
X81918000Y-130830000D02*
X81918000Y-29230000D01*
X85218000Y-27420000D02*
X94210000Y-27420000D01*
X85218000Y-29230000D02*
X85218000Y-27420000D01*
X85218000Y-29230000D02*
X94210000Y-29230000D01*
X94210000Y-27420000D02*
X94210000Y-29230000D01*
X94210000Y-29230000D02*
X110808000Y-29230000D01*
X110808000Y-22880000D02*
X110808000Y-29230000D01*
X110808000Y-29230000D02*
X122608000Y-29230000D01*
X122608000Y-22880000D02*
X110808000Y-22880000D01*
X122608000Y-29230000D02*
X122608000Y-22880000D01*
X122608000Y-29230000D02*
X135258000Y-29230000D01*
X135258000Y-29230000D02*
X135258000Y-130830000D01*
X135258000Y-130830000D02*
X81918000Y-130830000D01*
D13*
%TO.C,R39*%
X139491064Y-62522000D02*
X138036936Y-62522000D01*
X139491064Y-60702000D02*
X138036936Y-60702000D01*
%TO.C,R13*%
X79165064Y-62522000D02*
X77710936Y-62522000D01*
X79165064Y-60702000D02*
X77710936Y-60702000D01*
%TO.C,C14*%
X151534267Y-105478000D02*
X151241733Y-105478000D01*
X151534267Y-104458000D02*
X151241733Y-104458000D01*
%TO.C,C5*%
X65434000Y-149654252D02*
X65434000Y-148231748D01*
X67254000Y-149654252D02*
X67254000Y-148231748D01*
D15*
%TO.C,L1*%
X70384000Y-155947000D02*
X67384000Y-155947000D01*
X67384000Y-152607000D02*
X70384000Y-152607000D01*
D13*
%TO.C,R22*%
X79217064Y-96562000D02*
X77762936Y-96562000D01*
X79217064Y-94742000D02*
X77762936Y-94742000D01*
%TO.C,C10*%
X65643733Y-104458000D02*
X65936267Y-104458000D01*
X65643733Y-105478000D02*
X65936267Y-105478000D01*
%TO.C,R6*%
X127872000Y-143839064D02*
X127872000Y-142384936D01*
X129692000Y-143839064D02*
X129692000Y-142384936D01*
%TO.C,R36*%
X138036936Y-94742000D02*
X139491064Y-94742000D01*
X138036936Y-96562000D02*
X139491064Y-96562000D01*
D11*
%TO.C,IC3*%
X69790000Y-56441000D02*
X69790000Y-56391000D01*
X69790000Y-56441000D02*
X65640000Y-56441000D01*
X69790000Y-56391000D02*
X71190000Y-56391000D01*
X69790000Y-51291000D02*
X69790000Y-51436000D01*
X69790000Y-51291000D02*
X65640000Y-51291000D01*
X65640000Y-56441000D02*
X65640000Y-56296000D01*
X65640000Y-51291000D02*
X65640000Y-51436000D01*
D13*
%TO.C,R26*%
X139491064Y-85856000D02*
X138036936Y-85856000D01*
X139491064Y-84036000D02*
X138036936Y-84036000D01*
%TO.C,R3*%
X83210000Y-137013936D02*
X83210000Y-138468064D01*
X81390000Y-137013936D02*
X81390000Y-138468064D01*
%TO.C,R35*%
X138036936Y-97790000D02*
X139491064Y-97790000D01*
X138036936Y-99610000D02*
X139491064Y-99610000D01*
%TO.C,R10*%
X79217064Y-88904000D02*
X77762936Y-88904000D01*
X79217064Y-87084000D02*
X77762936Y-87084000D01*
D11*
%TO.C,IC1*%
X69790000Y-66849000D02*
X69790000Y-66799000D01*
X69790000Y-66849000D02*
X65640000Y-66849000D01*
X69790000Y-66799000D02*
X71190000Y-66799000D01*
X69790000Y-61699000D02*
X69790000Y-61844000D01*
X69790000Y-61699000D02*
X65640000Y-61699000D01*
X65640000Y-66849000D02*
X65640000Y-66704000D01*
X65640000Y-61699000D02*
X65640000Y-61844000D01*
D13*
%TO.C,C3*%
X69492267Y-139812000D02*
X69199733Y-139812000D01*
X69492267Y-138792000D02*
X69199733Y-138792000D01*
%TO.C,R2*%
X62561000Y-149154064D02*
X62561000Y-148699936D01*
X64031000Y-149154064D02*
X64031000Y-148699936D01*
%TD*%
M02*
